<?xml version="1.0" encoding="UTF-8" standalone="no"?>
<!-- Created with Inkscape (http://www.inkscape.org/) -->

<svg
   xmlns:dc="http://purl.org/dc/elements/1.1/"
   xmlns:cc="http://creativecommons.org/ns#"
   xmlns:rdf="http://www.w3.org/1999/02/22-rdf-syntax-ns#"
   xmlns:svg="http://www.w3.org/2000/svg"
   xmlns="http://www.w3.org/2000/svg"
   xmlns:sodipodi="http://sodipodi.sourceforge.net/DTD/sodipodi-0.dtd"
   xmlns:inkscape="http://www.inkscape.org/namespaces/inkscape"
   id="svg2999"
   version="1.1"
   inkscape:version="0.48.2 r9819"
   width="425"
   height="425"
   sodipodi:docname="lem64000.svg">
  <metadata
     id="metadata3005">
    <rdf:RDF>
      <cc:Work
         rdf:about="">
        <dc:format>image/svg+xml</dc:format>
        <dc:type
           rdf:resource="http://purl.org/dc/dcmitype/StillImage" />
        <dc:title></dc:title>
      </cc:Work>
    </rdf:RDF>
  </metadata>
  <defs
     id="defs3003" />
  <sodipodi:namedview
     pagecolor="#ffffff"
     bordercolor="#666666"
     borderopacity="1"
     objecttolerance="10"
     gridtolerance="10"
     guidetolerance="10"
     inkscape:pageopacity="0"
     inkscape:pageshadow="2"
     inkscape:window-width="1920"
     inkscape:window-height="1018"
     id="namedview3001"
     showgrid="false"
     inkscape:zoom="3.1412178"
     inkscape:cx="282.4409"
     inkscape:cy="230.07436"
     inkscape:window-x="-8"
     inkscape:window-y="-8"
     inkscape:window-maximized="1"
     inkscape:current-layer="svg2999" />
  <path
     inkscape:connector-curvature="0"
     id="path3077"
     d="m 287.67434,415.43719 c 1.65003,-1.06063 -1.47955,-1.20102 -36.19338,-1.6236 -11.33556,-0.13799 -33.73022,-0.66139 -49.7659,-1.16311 -16.03568,-0.50172 -39.56138,-0.76762 -52.27933,-0.59088 -24.73911,0.34379 -74.614215,-1.00463 -75.660737,-2.04556 -1.060576,-1.05491 -0.364658,-20.1396 0.846121,-23.20397 0.624326,-1.58009 1.298206,-9.62288 1.497522,-17.87288 0.199314,-8.25 0.61578,-16.575 0.925465,-18.5 0.309684,-1.925 0.978577,-14.975 1.486421,-29 2.876208,-79.43104 4.007492,-99.9534 6.642531,-120.5 0.775896,-6.05 1.414368,-14.36416 1.418831,-18.47592 0.004,-4.11175 0.741401,-14.59987 1.637639,-23.30693 1.61326,-15.67296 1.609089,-15.85292 -0.418806,-18.02409 -1.12659,-1.20618 -3.213923,-4.82933 -4.638514,-8.05144 l -2.59016,-5.85838 -10.312198,0.67847 c -12.632214,0.8311 -28.391777,3.19122 -31.164291,4.6671 -3.638168,1.93668 -14.79514,4.75015 -15.342665,3.86897 C 23.47119,135.96551 22.601493,131.16146 21.830233,125.7593 20.327714,115.23523 16.793903,104.66375 7.9271687,84.168046 4.8889052,77.14502 2.7881609,71.162166 3.2588558,70.872816 c 0.470695,-0.28935 5.9442798,-2.128764 12.1635192,-4.087587 6.21924,-1.958822 14.712158,-5.265831 18.87315,-7.348908 4.160981,-2.083076 8.696475,-4.120409 10.078861,-4.527404 1.382386,-0.406996 10.430731,-4.920959 20.107434,-10.031029 20.881268,-11.026973 24.307636,-12.424641 42.71251,-17.423106 7.75004,-2.104785 21.01262,-6.358646 29.47237,-9.453023 9.22162,-3.373051 18.28055,-5.995775 22.62086,-6.549149 3.98173,-0.507655 8.64344,-1.414798 10.35938,-2.015873 2.61971,-0.917658 4.20812,-0.685442 9.90785,1.448468 9.4124,3.523887 25.41477,6.55198 34.62482,6.55198 10.47102,0 17.94602,-2.133281 28.47533,-8.126546 l 8.86796,-5.047632 7.26798,1.12324 c 17.08334,2.640172 21.2931,3.632489 39.43986,9.296697 10.50614,3.279314 24.15405,6.991117 30.3287,8.24845 6.85852,1.396591 14.09525,3.65139 18.59937,5.795145 4.05502,1.929996 10.76588,4.504991 14.91304,5.722211 4.14715,1.217219 11.96044,3.962571 17.36286,6.100781 9.94598,3.936492 15.43814,4.715717 21.35058,3.029208 2.18908,-0.624428 5.12285,-0.251767 10.76189,1.36703 5.36014,1.538729 7.89515,1.880778 8.21495,1.108446 0.25439,-0.614366 0.49825,0.147028 0.5419,1.691987 0.0436,1.544959 -0.33659,2.553312 -0.84498,2.240785 -0.5084,-0.312528 -1.22255,2.473414 -1.58702,6.190983 -0.36446,3.717568 -1.49679,11.259215 -2.51629,16.759215 -2.12766,11.478367 -3.59826,23.706535 -4.97992,41.408725 -0.53268,6.8248 -1.43361,12.87135 -2.0021,13.43679 -0.70787,0.70409 -2.7011,0.52591 -6.32507,-0.56538 -13.02418,-3.92202 -21.51885,-5.2086 -34.62488,-5.24417 -11.78012,-0.032 -13.55036,0.18899 -15.98228,1.99498 -3.77187,2.80105 -4.62259,5.59404 -2.76989,9.09365 0.89569,1.69188 1.63478,6.16825 1.79564,10.87541 0.15034,4.4 2.56553,20.6 5.36707,36 2.80154,15.4 5.81875,32.5 6.70492,38 2.30723,14.3199 3.87415,40.17695 3.21176,53 -0.42159,8.16162 -0.17134,12.53309 0.96983,16.94144 3.99116,15.41773 5.46113,30.96367 6.90819,73.05856 0.79408,23.1 1.7436,43.90166 2.11004,46.22592 0.62756,3.9804 0.49962,4.28893 -2.20199,5.3106 -1.57754,0.59657 -8.30879,1.38736 -14.95837,1.7573 -9.31587,0.51827 -11.05198,0.8141 -7.56593,1.2892 2.48829,0.33913 -11.08422,0.67729 -30.16115,0.75147 -22.71076,0.0883 -34.1647,-0.19978 -33.17727,-0.83449 z"
     style="fill:#fea700" />
</svg>
