<?xml version="1.0" encoding="UTF-8" standalone="no"?>
<!-- Created with Inkscape (http://www.inkscape.org/) -->

<svg
   xmlns:dc="http://purl.org/dc/elements/1.1/"
   xmlns:cc="http://creativecommons.org/ns#"
   xmlns:rdf="http://www.w3.org/1999/02/22-rdf-syntax-ns#"
   xmlns:svg="http://www.w3.org/2000/svg"
   xmlns="http://www.w3.org/2000/svg"
   xmlns:sodipodi="http://sodipodi.sourceforge.net/DTD/sodipodi-0.dtd"
   xmlns:inkscape="http://www.inkscape.org/namespaces/inkscape"
   id="svg2999"
   version="1.1"
   inkscape:version="0.48.2 r9819"
   width="425"
   height="425"
   sodipodi:docname="lsmen.svg">
  <metadata
     id="metadata3005">
    <rdf:RDF>
      <cc:Work
         rdf:about="">
        <dc:format>image/svg+xml</dc:format>
        <dc:type
           rdf:resource="http://purl.org/dc/dcmitype/StillImage" />
        <dc:title></dc:title>
      </cc:Work>
    </rdf:RDF>
  </metadata>
  <defs
     id="defs3003" />
  <sodipodi:namedview
     pagecolor="#ffffff"
     bordercolor="#666666"
     borderopacity="1"
     objecttolerance="10"
     gridtolerance="10"
     guidetolerance="10"
     inkscape:pageopacity="0"
     inkscape:pageshadow="2"
     inkscape:window-width="1920"
     inkscape:window-height="1018"
     id="namedview3001"
     showgrid="false"
     inkscape:zoom="0.5552941"
     inkscape:cx="-391.64722"
     inkscape:cy="133.8088"
     inkscape:window-x="-8"
     inkscape:window-y="-8"
     inkscape:window-maximized="1"
     inkscape:current-layer="svg2999" />
  <path
     inkscape:connector-curvature="0"
     id="path3042"
     d="m 254.43079,422.25359 c -0.19813,-0.56456 -16.55721,-1.19461 -40.33333,-1.5534 -22,-0.33198 -46.975,-1.05473 -55.5,-1.60611 -9.18738,-0.59422 -28.7921,-0.71655 -48.1374,-0.30037 l -32.6374,0.70213 -0.63754,-3.89623 c -0.68407,-4.18059 0.67176,-26.79528 2.39192,-39.89623 0.57773,-4.4 1.72662,-14.3 2.55309,-22 1.65576,-15.42615 2.84324,-24.43318 5.00987,-38 6.025,-37.72671 7.84935,-55.12068 7.86633,-75 0.0125,-14.65237 -0.29133,-18.03572 -2.20013,-24.5 -1.80792,-6.12262 -2.39747,-11.72396 -3.21015,-30.5 -1.09535,-25.30657 -2.3486,-38.41695 -3.96021,-41.42828 -1.6901,-3.15798 -5.19532,-5.07172 -9.28941,-5.07172 -2.23992,0 -6.24663,-1.23202 -9.73737,-2.99414 -6.42413,-3.24289 -5.72418,-2.01664 -9.42163,-16.50586 -2.714511,-10.63734 -11.577091,-34.236323 -19.201961,-51.130365 -0.71692,-1.588432 8.08444,-6.283551 13.0088,-6.939593 2.25675,-0.300654 6.353191,-1.619715 9.103191,-2.931247 2.75,-1.311532 8.375,-3.980808 12.5,-5.931724 4.125,-1.950916 10.2,-5.315487 13.5,-7.476826 13.15853,-8.618195 21.85527,-13.381156 27.61945,-15.126408 3.32651,-1.007189 12.87299,-5.215472 21.21438,-9.35174 17.99869,-8.925056 22.05328,-10.612096 25.50486,-10.612096 1.42694,0 4.46726,-0.7152325 6.75625,-1.5894055 4.08468,-1.559955 4.37252,-1.521197 15.53343,2.0915515 16.71282,5.409883 24.62473,6.7234 35.87163,5.955319 12.30652,-0.840445 16.19063,-1.691991 29.64113,-6.49848 l 11.14113,-3.9812435 4.85887,2.078479 c 2.67238,1.143163 5.85338,3.0097075 7.06888,4.1478765 2.29317,2.147261 5.70126,3.726965 25.65538,11.891654 12.49066,5.110845 25.76908,11.865402 29.13461,14.820395 4.63256,4.067472 37.17303,21.354148 50.71861,26.943571 7.84751,3.23818 8.6802,4.433307 5.80159,8.326831 -1.26175,1.706608 -3.08595,6.075292 -4.05378,9.708188 -1.58009,5.931124 -10.24081,30.631953 -14.72921,42.008483 -1.71315,4.34223 -1.86185,4.44318 -10.73721,7.28939 -4.95,1.58739 -9.94789,3.67576 -11.10643,4.64082 -1.15854,0.96506 -3.69411,4.97741 -5.6346,8.91634 -3.27582,6.64947 -3.53487,7.86221 -3.62184,16.95596 -0.1073,11.21974 -1.74857,28.12138 -5.15048,53.03934 -0.69979,5.12568 -0.40745,8.35205 1.63097,18 1.36597,6.46521 2.93346,14.42205 3.48331,17.68186 0.54985,3.25981 1.1711,6.20421 1.38055,6.54311 0.20946,0.3389 1.3072,6.44678 2.43944,13.57307 1.13224,7.12629 2.49464,14.75689 3.02756,16.95689 1.19947,4.95161 5.65638,26.48579 11.07287,53.5 2.26069,11.275 4.73513,23.425 5.49876,27 0.76362,3.575 1.90506,9.875 2.53653,14 0.63147,4.125 2.05304,11.43008 3.15906,16.23352 1.10601,4.80343 1.7738,9.35147 1.48397,10.10674 -0.28983,0.75528 -2.25332,1.64285 -4.36331,1.97237 -2.11,0.32952 -6.76136,1.06053 -10.33636,1.62446 -20.0041,3.15551 -49.03578,6.00736 -68.75,6.75348 -8.3875,0.31744 -15.25,0.96692 -15.25,1.44329 0,1.18423 -9.74985,1.104 -10.16667,-0.0837 z"
     style="fill:#d78727" />
</svg>
