<?xml version="1.0" encoding="UTF-8" standalone="no"?>
<!-- Created with Inkscape (http://www.inkscape.org/) -->

<svg
   xmlns:dc="http://purl.org/dc/elements/1.1/"
   xmlns:cc="http://creativecommons.org/ns#"
   xmlns:rdf="http://www.w3.org/1999/02/22-rdf-syntax-ns#"
   xmlns:svg="http://www.w3.org/2000/svg"
   xmlns="http://www.w3.org/2000/svg"
   xmlns:sodipodi="http://sodipodi.sourceforge.net/DTD/sodipodi-0.dtd"
   xmlns:inkscape="http://www.inkscape.org/namespaces/inkscape"
   id="svg2999"
   version="1.1"
   inkscape:version="0.48.2 r9819"
   width="425"
   height="425"
   sodipodi:docname="lem64000girly.svg">
  <metadata
     id="metadata3005">
    <rdf:RDF>
      <cc:Work
         rdf:about="">
        <dc:format>image/svg+xml</dc:format>
        <dc:type
           rdf:resource="http://purl.org/dc/dcmitype/StillImage" />
        <dc:title></dc:title>
      </cc:Work>
    </rdf:RDF>
  </metadata>
  <defs
     id="defs3003" />
  <sodipodi:namedview
     pagecolor="#ffffff"
     bordercolor="#666666"
     borderopacity="1"
     objecttolerance="10"
     gridtolerance="10"
     guidetolerance="10"
     inkscape:pageopacity="0"
     inkscape:pageshadow="2"
     inkscape:window-width="1920"
     inkscape:window-height="1018"
     id="namedview3001"
     showgrid="false"
     inkscape:zoom="6.2824356"
     inkscape:cx="179.16424"
     inkscape:cy="413.26063"
     inkscape:window-x="-8"
     inkscape:window-y="-8"
     inkscape:window-maximized="1"
     inkscape:current-layer="svg2999" />
  <path
     inkscape:connector-curvature="0"
     id="path3042"
     d="m 249.68342,420.47878 c -0.19954,-0.56886 -16.67431,-1.20374 -40.61857,-1.56525 -22.15559,-0.33453 -47.30721,-1.06281 -55.8925,-1.61839 -9.25235,-0.59877 -28.99572,-0.72205 -48.47783,-0.30267 l -32.868208,0.70748 -0.642048,-3.92601 c -0.688908,-4.21252 0.676511,-27.00007 2.408835,-40.20117 0.581816,-4.43363 1.738832,-14.40932 2.571146,-22.16816 1.66747,-15.54407 2.863348,-24.61994 5.0453,-38.29043 6.067609,-38.01507 7.90486,-55.54202 7.921961,-75.57327 0.01259,-14.76439 -0.29339,-18.17357 -2.215689,-24.68726 -1.820706,-6.16943 -2.414425,-11.81358 -3.232852,-30.73315 -1.103097,-25.49998 -2.36521,-38.71058 -3.988218,-41.74492 -1.702052,-3.18213 -5.232061,-5.1105 -9.355105,-5.1105 -2.25576,0 -6.290806,-1.24142 -9.806233,-3.01702 -6.469561,-3.26767 -5.764661,-2.03207 -9.48826,-16.63201 -2.733707,-10.71866 -11.658965,-34.498016 -19.337758,-51.521187 -0.72199,-1.600572 8.141614,-6.331578 13.100799,-6.992636 2.27271,-0.302952 6.398121,-1.632095 9.16757,-2.953649 2.769448,-1.321559 8.434227,-4.011237 12.588399,-5.977066 4.154173,-1.965826 10.272135,-5.356115 13.595473,-7.533975 13.251588,-8.684066 22.009828,-13.483434 27.814768,-15.242024 3.35004,-1.014888 12.96403,-5.255338 21.36441,-9.423222 18.12598,-8.9932746 22.20924,-10.6932095 25.68524,-10.6932095 1.43702,0 4.49885,-0.7206994 6.80403,-1.601554 4.11356,-1.5718787 4.40343,-1.5328246 15.64328,2.107538 16.83101,5.4512335 24.79888,6.7747905 36.12531,6.0008405 12.39356,-0.84687 16.30513,-1.704926 29.85076,-6.5481531 l 11.21992,-4.011674 4.89323,2.0943658 c 2.69128,1.1519008 5.89478,3.0327122 7.11887,4.1795807 2.30939,2.1636734 5.74158,3.7554516 25.83681,11.9825486 12.579,5.14991 25.95133,11.956095 29.34065,14.933673 4.66533,4.098563 37.43593,21.517371 51.0773,27.149515 7.90301,3.262933 8.74159,4.467194 5.84262,8.390477 -1.27067,1.719653 -3.10777,6.121729 -4.08245,9.782393 -1.59127,5.976458 -10.31324,30.866098 -14.83338,42.329568 -1.72526,4.37544 -1.87502,4.47714 -10.81314,7.34513 -4.985,1.59949 -10.01824,3.70384 -11.18498,4.67628 -1.16673,0.97241 -3.72023,5.01544 -5.67445,8.9845 -3.29898,6.70028 -3.55986,7.9223 -3.64745,17.08554 -0.10805,11.30548 -1.76093,28.33632 -5.1869,53.44477 -0.70474,5.16484 -0.41033,8.41586 1.6425,18.13758 1.37564,6.51462 2.95421,14.53227 3.50795,17.81701 0.55373,3.28472 1.17938,6.25162 1.39032,6.59312 0.21093,0.34148 1.31644,6.49604 2.45668,13.67679 1.14025,7.18078 2.51228,14.86969 3.04898,17.08652 1.20795,4.98944 5.69637,26.68823 11.15117,53.90893 2.27668,11.36117 4.76862,23.60404 5.53765,27.20637 0.76902,3.60233 1.91854,9.95049 2.55447,14.10702 0.63593,4.15651 2.06756,11.51742 3.1814,16.35757 1.11383,4.84016 1.78635,9.42296 1.49446,10.18401 -0.29188,0.76105 -2.26925,1.6554 -4.39416,1.98742 -2.12493,0.33207 -6.80918,1.06866 -10.40946,1.63689 -20.14558,3.17964 -49.38256,6.05329 -69.2362,6.80511 -8.44683,0.31987 -15.35785,0.9743 -15.35785,1.45432 0,1.19328 -9.8188,1.11245 -10.23857,-0.0842 z"
     style="fill:#d78727" />
</svg>
