<?xml version="1.0" encoding="UTF-8" standalone="no"?>
<!-- Created with Inkscape (http://www.inkscape.org/) -->

<svg
   xmlns:dc="http://purl.org/dc/elements/1.1/"
   xmlns:cc="http://creativecommons.org/ns#"
   xmlns:rdf="http://www.w3.org/1999/02/22-rdf-syntax-ns#"
   xmlns:svg="http://www.w3.org/2000/svg"
   xmlns="http://www.w3.org/2000/svg"
   xmlns:sodipodi="http://sodipodi.sourceforge.net/DTD/sodipodi-0.dtd"
   xmlns:inkscape="http://www.inkscape.org/namespaces/inkscape"
   id="svg2999"
   version="1.1"
   inkscape:version="0.48.2 r9819"
   width="425"
   height="425"
   sodipodi:docname="lem64000girly.svg">
  <metadata
     id="metadata3005">
    <rdf:RDF>
      <cc:Work
         rdf:about="">
        <dc:format>image/svg+xml</dc:format>
        <dc:type
           rdf:resource="http://purl.org/dc/dcmitype/StillImage" />
        <dc:title></dc:title>
      </cc:Work>
    </rdf:RDF>
  </metadata>
  <defs
     id="defs3003" />
  <sodipodi:namedview
     pagecolor="#ffffff"
     bordercolor="#666666"
     borderopacity="1"
     objecttolerance="10"
     gridtolerance="10"
     guidetolerance="10"
     inkscape:pageopacity="0"
     inkscape:pageshadow="2"
     inkscape:window-width="1920"
     inkscape:window-height="1018"
     id="namedview3001"
     showgrid="false"
     inkscape:zoom="6.2824356"
     inkscape:cx="179.16424"
     inkscape:cy="413.26063"
     inkscape:window-x="-8"
     inkscape:window-y="-8"
     inkscape:window-maximized="1"
     inkscape:current-layer="svg2999" />
  <path
     inkscape:connector-curvature="0"
     id="path3042"
     d="m 249.52425,419.524 c -0.19954,-0.56714 -16.67431,-1.20008 -40.61857,-1.56051 -22.15559,-0.33351 -47.30721,-1.05957 -55.8925,-1.61347 -9.25235,-0.59695 -28.99572,-0.71985 -48.47783,-0.30175 l -32.868212,0.70534 -0.642048,-3.91409 c -0.688908,-4.19974 0.676511,-26.91809 2.408835,-40.07909 0.581816,-4.42017 1.738832,-14.36556 2.571146,-22.10084 1.66747,-15.49687 2.863348,-24.54518 5.0453,-38.17417 6.067609,-37.89963 7.90486,-55.37334 7.921961,-75.34377 0.01259,-14.71955 -0.29339,-18.11839 -2.215689,-24.6123 -1.820706,-6.15069 -2.414425,-11.7777 -3.232852,-30.63981 -1.103097,-25.42256 -2.36521,-38.59304 -3.988218,-41.61816 -1.702052,-3.17247 -5.232061,-5.09498 -9.355105,-5.09498 -2.25576,0 -6.290806,-1.23766 -9.806233,-3.00786 -6.469561,-3.25775 -5.764661,-2.02589 -9.48826,-16.58151 -2.733707,-10.6861 -11.658965,-34.393254 -19.337758,-51.364731 -0.72199,-1.595712 8.141614,-6.312352 13.100799,-6.971402 2.27271,-0.302032 6.398121,-1.627139 9.16757,-2.944681 2.769448,-1.317545 8.434227,-3.999055 12.588399,-5.958914 4.154173,-1.959858 10.272135,-5.339851 13.595473,-7.511097 13.251588,-8.657696 22.009832,-13.44249 27.814772,-15.19574 3.35004,-1.011806 12.96403,-5.239378 21.36441,-9.394606 18.12598,-8.9659646 22.20924,-10.6607373 25.68524,-10.6607373 1.43702,0 4.49885,-0.7185108 6.80403,-1.5966906 4.11356,-1.5671053 4.40343,-1.5281698 15.64328,2.1011382 16.83101,5.4346797 24.79888,6.7542167 36.12531,5.9826167 12.39356,-0.844297 16.30513,-1.699748 29.85076,-6.5282673 l 11.21992,-3.9994919 4.89323,2.0880059 c 2.69128,1.1484028 5.89478,3.0235028 7.11887,4.1668887 2.30939,2.157103 5.74158,3.7440476 25.83681,11.9461606 12.579,5.134272 25.95133,11.919789 29.34065,14.888325 4.66533,4.086117 37.43593,21.452029 51.0773,27.067071 7.90301,3.253023 8.74159,4.453628 5.84262,8.364997 -1.27067,1.714431 -3.10777,6.103139 -4.08245,9.752687 -1.59127,5.95831 -10.31324,30.772368 -14.83338,42.201038 -1.72526,4.36214 -1.87502,4.46354 -10.81314,7.32281 -4.985,1.59465 -10.01824,3.6926 -11.18498,4.66208 -1.16673,0.96947 -3.72023,5.00022 -5.67445,8.95722 -3.29898,6.67994 -3.55986,7.89824 -3.64745,17.03366 -0.10805,11.27116 -1.76093,28.25028 -5.1869,53.28247 -0.70474,5.14916 -0.41033,8.39032 1.6425,18.0825 1.37564,6.49484 2.95421,14.48815 3.50795,17.76291 0.55373,3.27474 1.17938,6.23264 1.39032,6.5731 0.21093,0.34044 1.31644,6.47632 2.45668,13.63527 1.14025,7.15896 2.51228,14.82453 3.04898,17.03462 1.20795,4.9743 5.69637,26.60719 11.15117,53.74523 2.27668,11.32667 4.76862,23.53236 5.53765,27.12375 0.76902,3.59139 1.91854,9.92027 2.55447,14.06418 0.63593,4.14389 2.06756,11.48246 3.1814,16.30791 1.11383,4.82546 1.78635,9.39434 1.49446,10.15307 -0.29188,0.75875 -2.26925,1.65038 -4.39416,1.9814 -2.12493,0.33105 -6.80918,1.0654 -10.40946,1.63191 -20.14558,3.16998 -49.38256,6.03491 -69.2362,6.78445 -8.44683,0.31889 -15.35785,0.97134 -15.35785,1.4499 0,1.18966 -9.8188,1.10907 -10.23857,-0.084 z"
     style="fill:#d78727" />
</svg>
