<?xml version="1.0" encoding="UTF-8" standalone="no"?>
<!-- Created with Inkscape (http://www.inkscape.org/) -->

<svg
   xmlns:dc="http://purl.org/dc/elements/1.1/"
   xmlns:cc="http://creativecommons.org/ns#"
   xmlns:rdf="http://www.w3.org/1999/02/22-rdf-syntax-ns#"
   xmlns:svg="http://www.w3.org/2000/svg"
   xmlns="http://www.w3.org/2000/svg"
   xmlns:sodipodi="http://sodipodi.sourceforge.net/DTD/sodipodi-0.dtd"
   xmlns:inkscape="http://www.inkscape.org/namespaces/inkscape"
   id="svg2999"
   version="1.1"
   inkscape:version="0.48.2 r9819"
   width="425"
   height="425"
   sodipodi:docname="lem64000.svg">
  <metadata
     id="metadata3005">
    <rdf:RDF>
      <cc:Work
         rdf:about="">
        <dc:format>image/svg+xml</dc:format>
        <dc:type
           rdf:resource="http://purl.org/dc/dcmitype/StillImage" />
        <dc:title></dc:title>
      </cc:Work>
    </rdf:RDF>
  </metadata>
  <defs
     id="defs3003" />
  <sodipodi:namedview
     pagecolor="#ffffff"
     bordercolor="#666666"
     borderopacity="1"
     objecttolerance="10"
     gridtolerance="10"
     guidetolerance="10"
     inkscape:pageopacity="0"
     inkscape:pageshadow="2"
     inkscape:window-width="1920"
     inkscape:window-height="1018"
     id="namedview3001"
     showgrid="false"
     inkscape:zoom="0.78530445"
     inkscape:cx="323.03439"
     inkscape:cy="431.33675"
     inkscape:window-x="-8"
     inkscape:window-y="-8"
     inkscape:window-maximized="1"
     inkscape:current-layer="svg2999" />
  <path
     inkscape:connector-curvature="0"
     id="path3077"
     d="m 287.67434,417.42687 c 1.65003,-1.07374 -1.47955,-1.21586 -36.19338,-1.64367 -11.33556,-0.13969 -33.73022,-0.66957 -49.7659,-1.17749 -16.03568,-0.50792 -39.56138,-0.77711 -52.27933,-0.59818 -24.73911,0.34804 -74.614215,-1.01705 -75.660737,-2.07085 -1.060576,-1.06795 -0.364658,-20.38858 0.846121,-23.49084 0.624326,-1.59962 1.298206,-9.74184 1.497522,-18.09384 0.199314,-8.35199 0.61578,-16.77991 0.925465,-18.72871 0.309684,-1.94879 0.978577,-15.16013 1.486421,-29.35852 2.876208,-80.41302 4.007492,-101.1891 6.642531,-121.98971 0.775896,-6.12479 1.414368,-14.54174 1.418831,-18.70433 0.004,-4.16259 0.741401,-14.78037 1.637639,-23.59507 1.61326,-15.86672 1.609089,-16.04891 -0.418806,-18.24692 -1.12659,-1.22109 -3.213923,-4.88903 -4.638514,-8.15098 l -2.59016,-5.9308 -10.312198,0.68686 c -12.632214,0.84137 -28.391777,3.23067 -31.164291,4.72479 -3.638168,1.96063 -14.79514,4.80888 -15.342665,3.9168 -0.291699,-0.47526 -1.161396,-5.3387 -1.932656,-10.80765 C 20.327714,113.51359 16.793903,102.81141 7.9271687,82.062327 4.8889052,74.952477 2.7881609,68.895659 3.2588558,68.602731 3.7295508,68.309804 9.2031356,66.44765 15.422375,64.464611 21.641615,62.481572 30.134533,59.133679 34.295525,57.02485 38.456506,54.916021 42.992,52.853501 44.374386,52.441474 45.756772,52.029447 54.805117,47.459679 64.48182,42.286434 85.363088,31.123137 88.789456,29.70819 107.19433,24.64793 c 7.75004,-2.130805 21.01262,-6.437256 29.47237,-9.569888 9.22162,-3.414751 18.28055,-6.0698993 22.62086,-6.6301146 3.98173,-0.513931 8.64344,-1.4322888 10.35938,-2.0407947 2.61971,-0.9290028 4.20812,-0.693916 9.90785,1.466375 9.4124,3.5674523 25.41477,6.6329803 34.62482,6.6329803 10.47102,0 17.94602,-2.159654 28.47533,-8.2270123 l 8.86796,-5.1100346 7.26798,1.1371263 c 17.08334,2.6728118 21.2931,3.6773966 39.43986,9.4116296 10.50614,3.319856 24.15405,7.077547 30.3287,8.350424 6.85852,1.413857 14.09525,3.696531 18.59937,5.866789 4.05502,1.953856 10.76588,4.560685 14.91304,5.792953 4.14715,1.232267 11.96044,4.01156 17.36286,6.176204 9.94598,3.985158 15.43814,4.774016 21.35058,3.066657 2.18908,-0.632147 5.12285,-0.254879 10.76189,1.38393 5.36014,1.557752 7.89515,1.90403 8.21495,1.12215 0.25439,-0.621961 0.49825,0.148846 0.5419,1.712905 0.0436,1.564058 -0.33659,2.584878 -0.84498,2.268487 -0.5084,-0.316392 -1.22255,2.503992 -1.58702,6.26752 -0.36446,3.763528 -1.49679,11.398411 -2.51629,16.966406 -2.12766,11.620271 -3.59826,23.999613 -4.97992,41.920648 -0.53268,6.90918 -1.43361,13.03048 -2.0021,13.60291 -0.70787,0.71279 -2.7011,0.53241 -6.32507,-0.57237 -13.02418,-3.97051 -21.51885,-5.27299 -34.62488,-5.309 -11.78012,-0.0324 -13.55036,0.19132 -15.98228,2.01964 -3.77187,2.83568 -4.62259,5.6632 -2.76989,9.20607 0.89569,1.7128 1.63478,6.24451 1.79564,11.00986 0.15034,4.4544 2.56553,20.85468 5.36707,36.44506 2.80154,15.59039 5.81875,32.90179 6.70492,38.46979 2.30723,14.49693 3.87415,40.67365 3.21176,53.65522 -0.42159,8.26252 -0.17134,12.68804 0.96983,17.15089 3.99116,15.60833 5.46113,31.34646 6.90819,73.96176 0.79408,23.38558 1.7436,44.44441 2.11004,46.7974 0.62756,4.02961 0.49962,4.34196 -2.20199,5.37626 -1.57754,0.60394 -8.30879,1.40451 -14.95837,1.77902 -9.31587,0.52468 -11.05198,0.82417 -7.56593,1.30514 2.48829,0.34332 -11.08422,0.68566 -30.16115,0.76076 -22.71076,0.0894 -34.1647,-0.20225 -33.17727,-0.84481 z"
     style="fill:#fea700" />
</svg>
