<?xml version="1.0" encoding="UTF-8" standalone="no"?>
<!-- Created with Inkscape (http://www.inkscape.org/) -->

<svg
   xmlns:dc="http://purl.org/dc/elements/1.1/"
   xmlns:cc="http://creativecommons.org/ns#"
   xmlns:rdf="http://www.w3.org/1999/02/22-rdf-syntax-ns#"
   xmlns:svg="http://www.w3.org/2000/svg"
   xmlns="http://www.w3.org/2000/svg"
   xmlns:sodipodi="http://sodipodi.sourceforge.net/DTD/sodipodi-0.dtd"
   xmlns:inkscape="http://www.inkscape.org/namespaces/inkscape"
   id="svg2999"
   version="1.1"
   inkscape:version="0.48.2 r9819"
   width="425"
   height="425"
   sodipodi:docname="lem64000.svg">
  <metadata
     id="metadata3005">
    <rdf:RDF>
      <cc:Work
         rdf:about="">
        <dc:format>image/svg+xml</dc:format>
        <dc:type
           rdf:resource="http://purl.org/dc/dcmitype/StillImage" />
        <dc:title></dc:title>
      </cc:Work>
    </rdf:RDF>
  </metadata>
  <defs
     id="defs3003" />
  <sodipodi:namedview
     pagecolor="#ffffff"
     bordercolor="#666666"
     borderopacity="1"
     objecttolerance="10"
     gridtolerance="10"
     guidetolerance="10"
     inkscape:pageopacity="0"
     inkscape:pageshadow="2"
     inkscape:window-width="1920"
     inkscape:window-height="1018"
     id="namedview3001"
     showgrid="false"
     inkscape:zoom="4.4423528"
     inkscape:cx="270.6855"
     inkscape:cy="91.107495"
     inkscape:window-x="-8"
     inkscape:window-y="-8"
     inkscape:window-maximized="1"
     inkscape:current-layer="svg2999" />
  <path
     inkscape:connector-curvature="0"
     id="path3077"
     d="m 251.48096,417.82588 c -11.33556,-0.14001 -33.73022,-0.6711 -49.7659,-1.18018 -16.03568,-0.50908 -39.56138,-0.77888 -52.27933,-0.59955 -24.73911,0.34883 -74.614215,-1.01939 -75.660737,-2.07559 -1.060576,-1.0704 -0.364658,-20.43526 0.846121,-23.54461 0.624326,-1.60329 1.298206,-9.76415 1.497522,-18.13526 0.199314,-8.37111 0.61578,-16.81833 0.925465,-18.77159 0.309684,-1.95325 0.978577,-15.19483 1.486421,-29.42572 2.876208,-80.59711 4.007492,-101.42074 6.642531,-122.26897 0.775896,-6.13881 1.414368,-14.57503 1.418831,-18.74715 0.004,-4.17211 0.741401,-14.8142 1.637639,-23.64908 1.61326,-15.90305 1.609089,-16.08565 -0.418806,-18.28869 -1.12659,-1.22389 -3.213923,-4.90023 -4.638514,-8.16964 l -2.59016,-5.94437 -10.312198,0.68842 c -12.632214,0.8433 -28.391777,3.23807 -31.164291,4.73562 -3.638168,1.96511 -14.79514,4.81988 -15.342665,3.92577 C 23.47119,135.89893 22.601493,131.02436 21.830233,125.5429 20.327714,114.86433 16.793903,104.13766 7.9271687,83.34107 4.8889052,76.214944 2.7881609,70.144261 3.2588558,69.850663 3.7295508,69.557065 9.2031356,67.690648 15.422375,65.70307 c 6.21924,-1.987579 14.712158,-5.343135 18.87315,-7.456792 4.160981,-2.113656 8.696475,-4.180898 10.078861,-4.593867 1.382386,-0.412972 10.430731,-4.9932 20.107434,-10.178288 20.881268,-11.188851 24.307636,-12.607037 42.71251,-17.678881 7.75004,-2.135683 21.01262,-6.451992 29.47237,-9.591795 9.22162,-3.422568 18.28055,-6.083795 22.62086,-6.645292 3.98173,-0.5151075 8.64344,-1.4355676 10.35938,-2.0454664 2.61971,-0.9311295 4.20812,-0.6955045 9.90785,1.4697318 9.4124,3.5756186 25.41477,6.6481646 34.62482,6.6481646 10.47102,0 17.94602,-2.164598 28.47533,-8.2458456 l 8.86796,-5.1217324 7.26798,1.1397294 c 17.08334,2.6789303 21.2931,3.6858148 39.43986,9.4331746 10.50614,3.327455 24.15405,7.093748 30.3287,8.369539 6.85852,1.417094 14.09525,3.704994 18.59937,5.880219 4.05502,1.958329 10.76588,4.571126 14.91304,5.806214 4.14715,1.235089 11.96044,4.020743 17.36286,6.190342 9.94598,3.994281 15.43814,4.784945 21.35058,3.073678 2.18908,-0.633595 5.12285,-0.255464 10.76189,1.387098 5.36014,1.561318 7.89515,1.908389 8.21495,1.124718 0.25439,-0.623385 0.49825,0.149187 0.5419,1.716826 0.0436,1.567639 -0.33659,2.590795 -0.84498,2.273681 -0.5084,-0.317117 -1.22255,2.509724 -1.58702,6.281867 -0.36446,3.772143 -1.49679,11.424503 -2.51629,17.005244 -2.12766,11.646873 -3.59826,24.054553 -4.97992,42.016623 -0.53268,6.92498 -1.43361,13.0603 -2.0021,13.63403 -0.70787,0.71443 -2.7011,0.53364 -6.32507,-0.57367 -13.02418,-3.9796 -21.51885,-5.28507 -34.62488,-5.32116 -11.78012,-0.0325 -13.55036,0.19177 -15.98228,2.02427 -3.77187,2.84217 -4.62259,5.67616 -2.76989,9.22714 0.89569,1.71673 1.63478,6.25881 1.79564,11.03507 0.15034,4.46459 2.56553,20.90242 5.36707,36.52849 2.80154,15.62607 5.81875,32.97711 6.70492,38.55785 2.30723,14.53011 3.87415,40.76675 3.21176,53.77805 -0.42159,8.28143 -0.17134,12.71707 0.96983,17.19015 3.99116,15.64405 5.46113,31.41821 6.90819,74.13107 0.79408,23.43911 1.7436,44.54615 2.11004,46.90452 0.62756,4.03884 0.49962,4.3519 -2.20199,5.38857 -1.57754,0.60533 -8.30879,1.40773 -14.95837,1.78309 -14.30111,0.83031 -21.36571,0.68141 -37.50197,0.71999 -31.55905,0.92461 -51.4609,-0.91678 -69.59576,-1.14354 z"
     style="fill:#fea700"
     sodipodi:nodetypes="csssssssscssscsscsssssssssssssscssssssssscsssscssssssssssssccc" />
</svg>
