<?xml version="1.0" encoding="UTF-8" standalone="no"?>
<!-- Created with Inkscape (http://www.inkscape.org/) -->

<svg
   xmlns:dc="http://purl.org/dc/elements/1.1/"
   xmlns:cc="http://creativecommons.org/ns#"
   xmlns:rdf="http://www.w3.org/1999/02/22-rdf-syntax-ns#"
   xmlns:svg="http://www.w3.org/2000/svg"
   xmlns="http://www.w3.org/2000/svg"
   xmlns:sodipodi="http://sodipodi.sourceforge.net/DTD/sodipodi-0.dtd"
   xmlns:inkscape="http://www.inkscape.org/namespaces/inkscape"
   id="svg2999"
   version="1.1"
   inkscape:version="0.48.2 r9819"
   width="425"
   height="425"
   sodipodi:docname="lem64000girly.svg">
  <metadata
     id="metadata3005">
    <rdf:RDF>
      <cc:Work
         rdf:about="">
        <dc:format>image/svg+xml</dc:format>
        <dc:type
           rdf:resource="http://purl.org/dc/dcmitype/StillImage" />
        <dc:title></dc:title>
      </cc:Work>
    </rdf:RDF>
  </metadata>
  <defs
     id="defs3003" />
  <sodipodi:namedview
     pagecolor="#ffffff"
     bordercolor="#666666"
     borderopacity="1"
     objecttolerance="10"
     gridtolerance="10"
     guidetolerance="10"
     inkscape:pageopacity="0"
     inkscape:pageshadow="2"
     inkscape:window-width="1920"
     inkscape:window-height="1018"
     id="namedview3001"
     showgrid="false"
     inkscape:zoom="0.78530445"
     inkscape:cx="79.441087"
     inkscape:cy="460.03446"
     inkscape:window-x="-8"
     inkscape:window-y="-8"
     inkscape:window-maximized="1"
     inkscape:current-layer="svg2999" />
  <path
     inkscape:connector-curvature="0"
     id="path3077"
     d="m 287.1096,417.43719 c 1.64121,-1.06063 -1.47165,-1.20102 -36,-1.6236 -11.275,-0.13799 -33.55,-0.66139 -49.5,-1.16311 -15.95,-0.50172 -39.35,-0.76762 -52,-0.59088 -24.60693,0.34379 -74.215552,-1.00463 -75.256482,-2.04556 -1.05491,-1.05491 -0.36271,-20.1396 0.8416,-23.20397 0.62099,-1.58009 1.29127,-9.62288 1.48952,-17.87288 0.19825,-8.25 0.61249,-16.575 0.92052,-18.5 0.30803,-1.925 0.97335,-14.975 1.47848,-29 2.86084,-79.43104 3.98608,-99.9534 6.60704,-120.5 0.77175,-6.05 1.40681,-14.36416 1.41125,-18.47592 0.004,-4.11175 0.73744,-14.59987 1.62889,-23.30693 1.60464,-15.67296 1.60049,-15.85292 -0.41657,-18.02409 -1.12057,-1.20618 -3.19675,-4.82933 -4.61373,-8.05144 l -2.57632,-5.85838 -10.2571,0.67847 c -12.56472,0.8311 -28.24008,3.19122 -30.99778,4.6671 -3.61873,1.93668 -14.71609,4.75015 -15.26069,3.86897 -0.29014,-0.46946 -1.15519,-5.27351 -1.92233,-10.67567 -1.49449,-10.52407 -5.00942,-21.09555 -13.8287795,-41.591254 -3.02203,-7.023026 -5.11155,-13.00588 -4.64337,-13.29523 0.46818,-0.28935 5.9125195,-2.128764 12.0985295,-4.087587 6.18601,-1.958822 14.63355,-5.265831 18.77231,-7.348908 4.13875,-2.083076 8.65001,-4.120409 10.02501,-4.527404 1.375,-0.406996 10.375,-4.920959 20,-10.031029 20.7697,-11.026973 24.17776,-12.424641 42.484302,-17.423106 7.70863,-2.104785 20.90034,-6.358646 29.31489,-9.453023 9.17235,-3.373051 18.18288,-5.995775 22.5,-6.549149 3.96045,-0.507655 8.59726,-1.414798 10.30403,-2.015873 2.60571,-0.917658 4.18563,-0.685442 9.85491,1.448468 9.36211,3.523887 25.27898,6.55198 34.43983,6.55198 10.41507,0 17.85013,-2.133281 28.32318,-8.126546 l 8.82058,-5.047632 7.22914,1.12324 c 16.99207,2.640172 21.17934,3.632489 39.22914,9.296697 10.45,3.279314 24.02499,6.991117 30.16665,8.24845 6.82188,1.396591 14.01994,3.65139 18.5,5.795145 4.03334,1.929996 10.70835,4.504991 14.83335,5.722211 4.125,1.217219 11.89654,3.962571 17.2701,6.100781 9.89283,3.936492 15.35565,4.715717 21.2365,3.029208 2.17738,-0.624428 5.09547,-0.251767 10.70439,1.36703 5.3315,1.538729 7.85296,1.880778 8.17105,1.108446 0.25304,-0.614366 0.49559,0.147028 0.53901,1.691987 0.0434,1.544959 -0.33479,2.553312 -0.84047,2.240785 -0.50568,-0.312528 -1.21602,2.473414 -1.57854,6.190983 -0.36251,3.717568 -1.48879,11.259215 -2.50284,16.759215 -2.1163,11.478367 -3.57904,23.706535 -4.95332,41.408725 -0.52983,6.8248 -1.42595,12.87135 -1.99139,13.43679 -0.70409,0.70409 -2.68668,0.52591 -6.29128,-0.56538 -12.95459,-3.92202 -21.40388,-5.2086 -34.43988,-5.24417 -11.71718,-0.032 -13.47797,0.18899 -15.89689,1.99498 -3.75171,2.80105 -4.59789,5.59404 -2.75509,9.09365 0.8909,1.69188 1.62605,6.16825 1.78604,10.87541 0.14955,4.4 2.55183,20.6 5.3384,36 2.78657,15.4 5.78766,32.5 6.66909,38 2.29491,14.3199 3.85346,40.17695 3.19461,53 -0.41934,8.16162 -0.17043,12.53309 0.96465,16.94144 3.96983,15.41773 5.43194,30.96367 6.87127,73.05856 0.78984,23.1 1.73429,43.90166 2.09877,46.22592 0.6242,3.9804 0.49695,4.28893 -2.19023,5.3106 -1.56911,0.59657 -8.2644,1.38736 -14.87844,1.7573 -9.2661,0.51827 -10.99293,0.8141 -7.52551,1.2892 2.475,0.33913 -11.025,0.67729 -30,0.75147 -22.58942,0.0883 -33.98215,-0.19978 -33,-0.83449 z"
     style="fill:#fea700" />
</svg>
