<?xml version="1.0" encoding="UTF-8" standalone="no"?>
<!-- Created with Inkscape (http://www.inkscape.org/) -->

<svg
   xmlns:dc="http://purl.org/dc/elements/1.1/"
   xmlns:cc="http://creativecommons.org/ns#"
   xmlns:rdf="http://www.w3.org/1999/02/22-rdf-syntax-ns#"
   xmlns:svg="http://www.w3.org/2000/svg"
   xmlns="http://www.w3.org/2000/svg"
   xmlns:sodipodi="http://sodipodi.sourceforge.net/DTD/sodipodi-0.dtd"
   xmlns:inkscape="http://www.inkscape.org/namespaces/inkscape"
   id="svg2999"
   version="1.1"
   inkscape:version="0.48.2 r9819"
   width="425"
   height="425"
   sodipodi:docname="lem64000girly.svg">
  <metadata
     id="metadata3005">
    <rdf:RDF>
      <cc:Work
         rdf:about="">
        <dc:format>image/svg+xml</dc:format>
        <dc:type
           rdf:resource="http://purl.org/dc/dcmitype/StillImage" />
        <dc:title></dc:title>
      </cc:Work>
    </rdf:RDF>
  </metadata>
  <defs
     id="defs3003" />
  <sodipodi:namedview
     pagecolor="#ffffff"
     bordercolor="#666666"
     borderopacity="1"
     objecttolerance="10"
     gridtolerance="10"
     guidetolerance="10"
     inkscape:pageopacity="0"
     inkscape:pageshadow="2"
     inkscape:window-width="1920"
     inkscape:window-height="1018"
     id="namedview3001"
     showgrid="false"
     inkscape:zoom="6.2824356"
     inkscape:cx="179.16424"
     inkscape:cy="413.26063"
     inkscape:window-x="-8"
     inkscape:window-y="-8"
     inkscape:window-maximized="1"
     inkscape:current-layer="svg2999" />
  <path
     inkscape:connector-curvature="0"
     id="path3042"
     d="m 249.52425,419.52387 c -0.19954,-0.568 -16.67431,-1.20191 -40.61857,-1.56288 -22.15559,-0.33402 -47.30721,-1.06119 -55.8925,-1.61593 -9.25235,-0.59786 -28.99572,-0.72095 -48.47783,-0.30221 l -32.868212,0.70641 -0.642048,-3.92005 c -0.688908,-4.20613 0.676511,-26.95908 2.408835,-40.14013 0.581816,-4.4269 1.738832,-14.38744 2.571146,-22.1345 1.66747,-15.52047 2.863348,-24.58256 5.0453,-38.2323 6.067609,-37.95735 7.90486,-55.45768 7.921961,-75.45852 0.01259,-14.74197 -0.29339,-18.14598 -2.215689,-24.64978 -1.820706,-6.16006 -2.414425,-11.79564 -3.232852,-30.68648 -1.103097,-25.46127 -2.36521,-38.65181 -3.988218,-41.68154 -1.702052,-3.1773 -5.232061,-5.10274 -9.355105,-5.10274 -2.25576,0 -6.290806,-1.23954 -9.806233,-3.01244 -6.469561,-3.26271 -5.764661,-2.02898 -9.48826,-16.60676 C 48.152268,104.42164 39.22701,80.678383 31.548217,63.681059 c -0.72199,-1.598142 8.141614,-6.321965 13.100799,-6.982019 2.27271,-0.302492 6.398121,-1.629617 9.16757,-2.949165 2.769448,-1.319552 8.434227,-4.005146 12.588399,-5.96799 4.154173,-1.962842 10.272135,-5.347983 13.595473,-7.522536 13.251588,-8.670881 22.009832,-13.462962 27.814772,-15.218882 3.35004,-1.013347 12.96403,-5.247358 21.36441,-9.408914 18.12598,-8.9796194 22.20924,-10.6769732 25.68524,-10.6769732 1.43702,0 4.49885,-0.7196051 6.80403,-1.5991223 4.11356,-1.569492 4.40343,-1.5304972 15.64328,2.1043381 16.83101,5.4429564 24.79888,6.7645034 36.12531,5.9917284 12.39356,-0.845583 16.30513,-1.702337 29.85076,-6.53821 l 11.21992,-4.00558294 4.89323,2.09118584 c 2.69128,1.1501518 5.89478,3.0281075 7.11887,4.1732347 2.30939,2.1603882 5.74158,3.7497494 25.83681,11.9643544 12.579,5.142091 25.95133,11.937942 29.34065,14.910999 4.66533,4.09234 37.43593,21.4847 51.0773,27.108293 7.90301,3.257978 8.74159,4.460411 5.84262,8.377737 -1.27067,1.717042 -3.10777,6.112434 -4.08245,9.76754 -1.59127,5.967384 -10.31324,30.819235 -14.83338,42.265305 -1.72526,4.36879 -1.87502,4.47034 -10.81314,7.33397 -4.985,1.59707 -10.01824,3.69822 -11.18498,4.66918 -1.16673,0.97094 -3.72023,5.00783 -5.67445,8.97086 -3.29898,6.69011 -3.55986,7.91027 -3.64745,17.0596 -0.10805,11.28832 -1.76093,28.2933 -5.1869,53.36362 -0.70474,5.157 -0.41033,8.40309 1.6425,18.11004 1.37564,6.50473 2.95421,14.51021 3.50795,17.78996 0.55373,3.27973 1.17938,6.24213 1.39032,6.58311 0.21093,0.34096 1.31644,6.48618 2.45668,13.65603 1.14025,7.16987 2.51228,14.84711 3.04898,17.06057 1.20795,4.98187 5.69637,26.64771 11.15117,53.82708 2.27668,11.34392 4.76862,23.5682 5.53765,27.16506 0.76902,3.59686 1.91854,9.93538 2.55447,14.0856 0.63593,4.1502 2.06756,11.49994 3.1814,16.33274 1.11383,4.83281 1.78635,9.40865 1.49446,10.16854 -0.29188,0.7599 -2.26925,1.65289 -4.39416,1.98441 -2.12493,0.33156 -6.80918,1.06703 -10.40946,1.6344 -20.14558,3.17481 -49.38256,6.0441 -69.2362,6.79478 -8.44683,0.31938 -15.35785,0.97282 -15.35785,1.45211 0,1.19147 -9.8188,1.11076 -10.23857,-0.0841 z"
     style="fill:#d78727" />
</svg>
