<?xml version="1.0" encoding="UTF-8" standalone="no"?>
<!-- Created with Inkscape (http://www.inkscape.org/) -->

<svg
   xmlns:dc="http://purl.org/dc/elements/1.1/"
   xmlns:cc="http://creativecommons.org/ns#"
   xmlns:rdf="http://www.w3.org/1999/02/22-rdf-syntax-ns#"
   xmlns:svg="http://www.w3.org/2000/svg"
   xmlns="http://www.w3.org/2000/svg"
   xmlns:sodipodi="http://sodipodi.sourceforge.net/DTD/sodipodi-0.dtd"
   xmlns:inkscape="http://www.inkscape.org/namespaces/inkscape"
   id="svg2999"
   version="1.1"
   inkscape:version="0.48.2 r9819"
   width="425"
   height="425"
   sodipodi:docname="lem64000girly.svg">
  <metadata
     id="metadata3005">
    <rdf:RDF>
      <cc:Work
         rdf:about="">
        <dc:format>image/svg+xml</dc:format>
        <dc:type
           rdf:resource="http://purl.org/dc/dcmitype/StillImage" />
        <dc:title></dc:title>
      </cc:Work>
    </rdf:RDF>
  </metadata>
  <defs
     id="defs3003" />
  <sodipodi:namedview
     pagecolor="#ffffff"
     bordercolor="#666666"
     borderopacity="1"
     objecttolerance="10"
     gridtolerance="10"
     guidetolerance="10"
     inkscape:pageopacity="0"
     inkscape:pageshadow="2"
     inkscape:window-width="1920"
     inkscape:window-height="1018"
     id="namedview3001"
     showgrid="false"
     inkscape:zoom="6.2824356"
     inkscape:cx="161.25767"
     inkscape:cy="42.654903"
     inkscape:window-x="-8"
     inkscape:window-y="-8"
     inkscape:window-maximized="1"
     inkscape:current-layer="svg2999" />
  <path
     inkscape:connector-curvature="0"
     id="path3042"
     d="m 249.76104,418.88886 c -0.19917,-0.56542 -16.64372,-1.19643 -40.54406,-1.55577 -22.11495,-0.33249 -47.22044,-1.05634 -55.78998,-1.60856 -9.23538,-0.59513 -28.94253,-0.71765 -48.38891,-0.30083 l -32.807921,0.7032 -0.640871,-3.90218 c -0.687644,-4.18697 0.67527,-26.83619 2.404417,-39.95714 0.580749,-4.40672 1.735642,-14.32184 2.56643,-22.03359 1.664411,-15.44971 2.858095,-24.47049 5.036045,-38.05802 6.05648,-37.78431 7.890361,-55.20484 7.90743,-75.11451 0.01257,-14.67475 -0.292852,-18.06326 -2.211625,-24.53741 -1.817366,-6.13197 -2.409996,-11.74186 -3.226922,-30.54657 -1.101073,-25.34521 -2.360871,-38.47561 -3.980902,-41.49153 -1.69893,-3.16281 -5.222464,-5.07947 -9.337945,-5.07947 -2.251623,0 -6.279267,-1.2339 -9.788246,-2.99871 -6.457694,-3.24784 -5.754087,-2.01972 -9.470856,-16.53106 C 48.758431,105.22313 39.849545,81.588113 32.184837,64.668277 31.464171,63.07742 40.311517,58.375132 45.261605,57.718088 47.530146,57.416975 51.64799,56.0959 54.412359,54.782366 57.176727,53.468831 62.831116,50.79548 66.977668,48.841585 71.124221,46.88769 77.230961,43.517982 80.548203,41.353343 93.775484,32.72199 102.51766,27.951756 108.31196,26.20384 c 3.34389,-1.008727 12.94025,-5.223435 21.32522,-9.366019 18.09273,-8.9386829 22.1685,-10.6282987 25.63812,-10.6282987 1.43439,0 4.4906,-0.7163245 6.79155,-1.5918322 4.10602,-1.5623368 4.39536,-1.5235197 15.61459,2.0947449 16.80014,5.418143 24.75339,6.733665 36.05905,5.964412 12.37082,-0.841728 16.27522,-1.694575 29.796,-6.5084023 l 11.19934,-3.9873222 4.88425,2.0816525 c 2.68635,1.1449084 5.88397,3.0143028 7.10582,4.1542096 2.30515,2.1505394 5.73105,3.7326554 25.78942,11.9098104 12.55592,5.118649 25.90372,11.883519 29.28683,14.843023 4.65677,4.073683 37.36726,21.386753 50.98361,26.98471 7.88851,3.243124 8.72555,4.440076 5.8319,8.339544 -1.26834,1.709214 -3.10207,6.084568 -4.07496,9.723011 -1.58835,5.94018 -10.29432,30.678727 -14.80617,42.072627 -1.7221,4.34886 -1.87158,4.44996 -10.79331,7.30052 -4.97586,1.58981 -9.99986,3.68137 -11.16446,4.6479 -1.16459,0.96653 -3.71341,4.98501 -5.66404,8.92996 -3.29293,6.65962 -3.55333,7.87421 -3.64076,16.98184 -0.10786,11.23687 -1.7577,28.16432 -5.17739,53.12033 -0.70345,5.1335 -0.40958,8.3648 1.63949,18.02748 1.37311,6.47508 2.94879,14.44407 3.50151,17.70886 0.55272,3.26478 1.17722,6.21368 1.38777,6.5531 0.21055,0.33941 1.31403,6.45662 2.45218,13.59379 1.13816,7.13717 2.50767,14.77942 3.04338,16.98278 1.20574,4.95917 5.68593,26.52623 11.13072,53.58169 2.2725,11.29221 4.75987,23.46076 5.52749,27.04122 0.76761,3.58046 1.91502,9.89008 2.54979,14.02138 0.63476,4.13129 2.06376,11.44753 3.17556,16.2583 1.11179,4.81077 1.78307,9.36575 1.49172,10.12217 -0.29134,0.75644 -2.26509,1.64536 -4.3861,1.97538 -2.12103,0.33003 -6.79669,1.06215 -10.39037,1.62694 -20.10862,3.16033 -49.29198,6.01654 -69.1092,6.7638 -8.43133,0.31792 -15.32968,0.96839 -15.32968,1.44549 0,1.18604 -9.80079,1.10569 -10.21979,-0.0838 z"
     style="fill:#d78727" />
</svg>
