<?xml version="1.0" encoding="UTF-8" standalone="no"?>
<!-- Created with Inkscape (http://www.inkscape.org/) -->

<svg
   xmlns:dc="http://purl.org/dc/elements/1.1/"
   xmlns:cc="http://creativecommons.org/ns#"
   xmlns:rdf="http://www.w3.org/1999/02/22-rdf-syntax-ns#"
   xmlns:svg="http://www.w3.org/2000/svg"
   xmlns="http://www.w3.org/2000/svg"
   xmlns:sodipodi="http://sodipodi.sourceforge.net/DTD/sodipodi-0.dtd"
   xmlns:inkscape="http://www.inkscape.org/namespaces/inkscape"
   id="svg2999"
   version="1.1"
   inkscape:version="0.48.2 r9819"
   width="425"
   height="425"
   sodipodi:docname="lem64000.svg">
  <metadata
     id="metadata3005">
    <rdf:RDF>
      <cc:Work
         rdf:about="">
        <dc:format>image/svg+xml</dc:format>
        <dc:type
           rdf:resource="http://purl.org/dc/dcmitype/StillImage" />
        <dc:title></dc:title>
      </cc:Work>
    </rdf:RDF>
  </metadata>
  <defs
     id="defs3003" />
  <sodipodi:namedview
     pagecolor="#ffffff"
     bordercolor="#666666"
     borderopacity="1"
     objecttolerance="10"
     gridtolerance="10"
     guidetolerance="10"
     inkscape:pageopacity="0"
     inkscape:pageshadow="2"
     inkscape:window-width="1920"
     inkscape:window-height="1018"
     id="namedview3001"
     showgrid="false"
     inkscape:zoom="0.78530445"
     inkscape:cx="323.03439"
     inkscape:cy="431.33675"
     inkscape:window-x="-8"
     inkscape:window-y="-8"
     inkscape:window-maximized="1"
     inkscape:current-layer="svg2999" />
  <path
     inkscape:connector-curvature="0"
     id="path3077"
     d="m 287.67434,419.79101 c 1.65003,-1.07702 -1.47955,-1.21958 -36.19338,-1.64869 -11.33556,-0.14012 -33.73022,-0.67161 -49.7659,-1.18108 -16.03568,-0.50947 -39.56138,-0.77948 -52.27933,-0.60001 -24.73911,0.3491 -74.614215,-1.02016 -75.660737,-2.07717 -1.060576,-1.07121 -0.364658,-20.45082 0.846121,-23.56254 0.624326,-1.60451 1.298206,-9.77158 1.497522,-18.14907 0.199314,-8.37748 0.61578,-16.83113 0.925465,-18.78588 0.309684,-1.95474 0.978577,-15.2064 1.486421,-29.44813 2.876208,-80.65848 4.007492,-101.49797 6.642531,-122.36207 0.775896,-6.14349 1.414368,-14.58613 1.418831,-18.76143 0.004,-4.17528 0.741401,-14.82548 1.637639,-23.66708 1.61326,-15.91516 1.609089,-16.0979 -0.418806,-18.30262 -1.12659,-1.22482 -3.213923,-4.90396 -4.638514,-8.17586 l -2.59016,-5.9489 -10.312198,0.68895 c -12.632214,0.84394 -28.391777,3.24053 -31.164291,4.73922 -3.638168,1.96661 -14.79514,4.82355 -15.342665,3.92876 -0.291699,-0.47672 -1.161396,-5.355 -1.932656,-10.84064 C 20.327714,114.95007 16.793903,104.21523 7.9271687,83.402808 4.8889052,76.271256 2.7881609,70.19595 3.2588558,69.902129 c 0.470695,-0.293822 5.9442798,-2.16166 12.1635192,-4.150752 6.21924,-1.989092 14.712158,-5.347203 18.87315,-7.46247 C 38.456506,56.173642 42.992,54.104826 44.374386,53.691542 45.756772,53.278256 54.805117,48.69454 64.48182,43.505504 85.363088,32.308133 88.789456,30.888867 107.19433,25.813161 c 7.75004,-2.137309 21.01262,-6.456905 29.47237,-9.599099 9.22162,-3.425174 18.28055,-6.088427 22.62086,-6.650352 3.98173,-0.5154997 8.64344,-1.4366607 10.35938,-2.047024 2.61971,-0.9318385 4.20812,-0.6960341 9.90785,1.470851 9.4124,3.578341 25.41477,6.653227 34.62482,6.653227 10.47102,0 17.94602,-2.166246 28.47533,-8.2521246 l 8.86796,-5.1256324 7.26798,1.1405973 c 17.08334,2.6809702 21.2931,3.6886214 39.43986,9.4403577 10.50614,3.329989 24.15405,7.09915 30.3287,8.375912 6.85852,1.418173 14.09525,3.707815 18.59937,5.884697 4.05502,1.95982 10.76588,4.574606 14.91304,5.810635 4.14715,1.236029 11.96044,4.023804 17.36286,6.195056 9.94598,3.997322 15.43814,4.788588 21.35058,3.076018 2.18908,-0.634077 5.12285,-0.255658 10.76189,1.388154 5.36014,1.562507 7.89515,1.909842 8.21495,1.125575 0.25439,-0.62386 0.49825,0.1493 0.5419,1.718133 0.0436,1.568833 -0.33659,2.592768 -0.84498,2.275412 -0.5084,-0.317358 -1.22255,2.511635 -1.58702,6.286651 -0.36446,3.775015 -1.49679,11.433202 -2.51629,17.018193 -2.12766,11.655741 -3.59826,24.072869 -4.97992,42.048612 -0.53268,6.93026 -1.43361,13.07025 -2.0021,13.64442 -0.70787,0.71497 -2.7011,0.53404 -6.32507,-0.57411 -13.02418,-3.98263 -21.51885,-5.28909 -34.62488,-5.32521 -11.78012,-0.0325 -13.55036,0.19191 -15.98228,2.02581 -3.77187,2.84433 -4.62259,5.68048 -2.76989,9.23417 0.89569,1.71803 1.63478,6.26357 1.79564,11.04347 0.15034,4.46799 2.56553,20.91833 5.36707,36.5563 2.80154,15.63797 5.81875,33.00222 6.70492,38.58721 2.30723,14.54118 3.87415,40.7978 3.21176,53.819 -0.42159,8.28774 -0.17134,12.72676 0.96983,17.20324 3.99116,15.65597 5.46113,31.44214 6.90819,74.18752 0.79408,23.45696 1.7436,44.58007 2.11004,46.94024 0.62756,4.04191 0.49962,4.35521 -2.20199,5.39267 -1.57754,0.60579 -8.30879,1.4088 -14.95837,1.78445 -9.31587,0.52628 -11.05198,0.82668 -7.56593,1.30912 2.48829,0.34437 -11.08422,0.68776 -30.16115,0.76309 -22.71076,0.0897 -34.1647,-0.20287 -33.17727,-0.84739 z"
     style="fill:#fea700" />
</svg>
