<?xml version="1.0" encoding="UTF-8" standalone="no"?>
<!-- Created with Inkscape (http://www.inkscape.org/) -->

<svg
   xmlns:dc="http://purl.org/dc/elements/1.1/"
   xmlns:cc="http://creativecommons.org/ns#"
   xmlns:rdf="http://www.w3.org/1999/02/22-rdf-syntax-ns#"
   xmlns:svg="http://www.w3.org/2000/svg"
   xmlns="http://www.w3.org/2000/svg"
   version="1.1"
   width="425"
   height="425"
   id="svg2">
  <defs
     id="defs4" />
  <metadata
     id="metadata7">
    <rdf:RDF>
      <cc:Work
         rdf:about="">
        <dc:format>image/svg+xml</dc:format>
        <dc:type
           rdf:resource="http://purl.org/dc/dcmitype/StillImage" />
        <dc:title></dc:title>
      </cc:Work>
    </rdf:RDF>
  </metadata>
  <g
     transform="translate(0,-627.36218)"
     id="layer1">
    <g
       transform="translate(11.42856,-5.7142871)"
       id="g3013">
      <path
         d="m 108.42857,1058.2523 c -9.625,-0.4827 -21.212504,-0.6744 -25.750004,-0.4261 l -8.25,0.4515 0,-6.5424 c 0,-4.299 1.201337,-11.0701 3.503475,-19.7466 1.961177,-7.3915 3.460039,-15.3725 3.404807,-18.1296 -0.296717,-14.81182 0.974639,-35.16351 2.402151,-38.45335 3.437099,-7.92114 5.717061,-70.40777 4.596368,-125.9721 -1.263054,-62.62264 -2.660683,-82.88844 -6.586147,-95.5 -1.961841,-6.30292 -3.660712,-8.29259 -5.66224,-6.63147 -0.793079,0.6582 -5.428164,1.69851 -10.300188,2.31182 -16.024001,2.01714 -13.841534,3.32716 -21.125238,-12.68035 -3.503637,-7.7 -9.303239,-21.37442 -12.888003,-30.38759 -5.206522,-13.09077 -6.248902,-16.57851 -5.18137,-17.33658 2.664193,-1.89188 43.558672,-21.67524 52.163292,-25.23482 4.854798,-2.00835 12.504797,-4.95226 16.999997,-6.54202 4.4952,-1.58977 15.5462,-6.30125 24.55777,-10.46996 24.5428,-11.35339 27.29183,-11.86214 41.32458,-7.64777 18.25129,5.48128 23.68194,6.47396 35.29075,6.45085 11.43347,-0.0228 15.1747,-0.93936 37.87719,-9.27989 4.75365,-1.74642 6.45492,-1.95779 8.89923,-1.10571 1.66211,0.57942 4.8777,1.05349 7.14574,1.05349 6.25817,0 50.32848,11.9947 62.07784,16.89585 14.6172,6.09744 32.24728,12.20233 42,14.54363 17.00547,4.08244 19.51787,4.78041 19.99682,5.55537 0.76625,1.23982 -8.22335,44.1663 -12.10774,57.81606 -0.65862,2.31437 -17.40471,9.37034 -23.57991,9.9354 -7.41983,0.67895 -9.74754,3.14676 -13.44453,14.25369 l -2.82926,8.5 -0.0177,30.5 c -0.0176,30.37421 1.11315,51.02649 3.88745,71 0.80214,5.775 1.95669,16.78901 2.56566,24.47559 1.16639,14.72256 3.16173,28.07935 5.66896,37.94798 2.66684,10.49686 4.31803,26.66879 4.44925,43.57643 0.20819,26.82409 1.39094,42.50365 4.1488,54.99995 1.39589,6.3251 2.80791,14.3258 3.13782,17.7795 0.56361,5.8999 0.46053,6.3323 -1.70575,7.156 -4.3996,1.6727 -36.47234,3.0759 -94.16988,4.12 -31.9,0.5773 -69.475,1.6936 -83.5,2.4806 -27.8477,1.5628 -32.97932,1.5874 -59,0.2826 z"
         id="path3015"
         style="fill:#ff7f2a" />
    </g>
  </g>
</svg>
