<?xml version="1.0" encoding="UTF-8" standalone="no"?>
<!-- Created with Inkscape (http://www.inkscape.org/) -->

<svg
   xmlns:dc="http://purl.org/dc/elements/1.1/"
   xmlns:cc="http://creativecommons.org/ns#"
   xmlns:rdf="http://www.w3.org/1999/02/22-rdf-syntax-ns#"
   xmlns:svg="http://www.w3.org/2000/svg"
   xmlns="http://www.w3.org/2000/svg"
   xmlns:sodipodi="http://sodipodi.sourceforge.net/DTD/sodipodi-0.dtd"
   xmlns:inkscape="http://www.inkscape.org/namespaces/inkscape"
   id="svg2999"
   version="1.1"
   inkscape:version="0.48.2 r9819"
   width="425"
   height="425"
   sodipodi:docname="lsmen.svg">
  <metadata
     id="metadata3005">
    <rdf:RDF>
      <cc:Work
         rdf:about="">
        <dc:format>image/svg+xml</dc:format>
        <dc:type
           rdf:resource="http://purl.org/dc/dcmitype/StillImage" />
        <dc:title></dc:title>
      </cc:Work>
    </rdf:RDF>
  </metadata>
  <defs
     id="defs3003" />
  <sodipodi:namedview
     pagecolor="#ffffff"
     bordercolor="#666666"
     borderopacity="1"
     objecttolerance="10"
     gridtolerance="10"
     guidetolerance="10"
     inkscape:pageopacity="0"
     inkscape:pageshadow="2"
     inkscape:window-width="1920"
     inkscape:window-height="1018"
     id="namedview3001"
     showgrid="false"
     inkscape:zoom="0.78530445"
     inkscape:cx="-122.51475"
     inkscape:cy="221.34856"
     inkscape:window-x="-8"
     inkscape:window-y="-8"
     inkscape:window-maximized="1"
     inkscape:current-layer="svg2999" />
  <path
     style="fill:#c83737"
     d="m 57.774592,384.83017 c -5.151377,-0.87599 -5.583492,-1.46606 -7.594358,-10.37045 -0.85326,-3.77835 -2.455714,-8.0194 -3.56101,-9.42456 -1.105295,-1.40515 -2.009628,-3.69209 -2.009628,-5.08208 0,-1.38998 -0.642857,-4.8168 -1.428571,-7.61514 -0.785714,-2.79834 -2.171964,-10.93789 -3.080555,-18.08789 -3.366342,-26.49083 -10.531831,-79.17673 -11.492331,-84.5 -1.48693,-8.24085 -1.59978,-28.79333 -0.18669,-34 0.67171,-2.475 1.59799,-6.75 2.0584,-9.5 0.46041,-2.75 1.76614,-7.28579 2.90164,-10.07953 1.1355,-2.79375 7.526481,-23.94375 14.202186,-47 C 62.342006,98.198854 65.294171,89.216548 71.714371,75.750057 84.965359,47.955859 94.393708,39.200544 117.1096,33.595329 c 12.07242,-2.978907 34.02918,-10.527981 38.25744,-13.153503 2.05841,-1.278161 6.51606,-3.346973 9.90588,-4.597359 6.10348,-2.251355 6.54529,-2.269342 45.5,-1.852407 42.97686,0.459984 44.27589,0.619567 55.26353,6.789055 5.46859,3.070575 24.43366,9.543751 36.57315,12.48318 8.79107,2.128652 22.18609,8.067392 26.59833,11.792493 8.55273,7.220767 22.093,32.567066 29.21774,54.693266 2.21379,6.874996 9.02156,29.824996 15.1284,50.999996 6.10683,21.175 12.25863,41.41978 13.67066,44.9884 1.41203,3.56862 2.97511,8.74362 3.47351,11.5 0.49841,2.75638 1.42043,7.0366 2.04895,9.5116 1.31339,5.17191 1.31409,9.36775 0.004,24 -1.00581,11.23368 -9.75329,76.64636 -13.23904,99 -1.15783,7.425 -2.42708,15.62343 -2.82055,18.21872 -0.39348,2.5953 -1.53197,5.62101 -2.52999,6.72381 -0.99802,1.1028 -2.648,5.50437 -3.66663,9.78128 -1.01862,4.2769 -2.54276,8.28181 -3.38697,8.89978 -5.71589,4.18414 -30.75187,1.07943 -39.56124,-4.90598 -2.74139,-1.8626 -3.39569,-2.9307 -3.23225,-5.27647 1.20396,-17.28041 2.25278,-24.65477 3.97394,-27.94114 0.57609,-1.1 1.33523,-5.919 1.68697,-10.70888 0.35173,-4.78988 2.21838,-20.17193 4.14811,-34.18232 2.83546,-20.5863 3.52286,-28.79588 3.58294,-42.79112 0.0807,-18.80446 -0.2233,-23.02956 -1.8002,-25.01794 -0.56693,-0.71486 -1.26846,-4.06295 -1.55897,-7.44021 -0.8261,-9.60377 -24.30833,-77.35953 -26.81063,-77.35953 -0.33496,0 -1.53187,3.2625 -2.65979,7.25 -1.12792,3.9875 -3.1891,10.4 -4.58039,14.25 -2.34964,6.50195 -2.53818,8.35185 -2.64993,26 -0.13981,22.08102 -0.13971,23.0238 0.003,27 0.0592,1.65 0.12766,4.35 0.15221,6 0.2266,15.23403 4.06919,34.48388 11.91411,59.68498 6.79017,21.81285 11.078,37.90201 12.94909,48.58872 l 1.27352,7.27369 -2.91439,3.11073 c -8.93213,9.53388 -26.4375,15.23871 -57.91439,18.87372 -14.87829,1.71818 -72.92783,2.37757 -91.80088,1.04277 -34.8629,-2.46567 -57.29523,-8.04256 -68.70768,-17.08139 -4.142333,-3.28079 -5.518416,-5.97099 -5.111673,-9.99322 0.67373,-6.66263 5.963783,-27.56792 11.724733,-46.33392 12.67954,-41.303 13.68526,-47.77717 13.69599,-88.16608 l 0.008,-30 -2.77338,-7 c -1.52536,-3.85 -3.55847,-9.90457 -4.51802,-13.45459 -1.59184,-5.88879 -4.01721,-9.34351 -4.01721,-5.72196 0,0.81956 -1.29099,4.3675 -2.86887,7.88429 -6.96676,15.52758 -23.131134,65.35482 -23.131134,71.3025 0,2.24937 -0.444873,4.53463 -0.988607,5.07837 -1.319452,1.31945 -2.949743,21.13956 -2.008712,24.42074 0.408306,1.42368 0.531343,4.81649 0.273415,7.53958 -0.268484,2.83453 1.053995,16.06585 3.093578,30.95107 1.959396,14.3 4.075893,30.95 4.703327,37 0.627434,6.05 1.403603,11.43355 1.72482,11.96343 1.540566,2.54136 4.739857,28.69302 3.807447,31.12285 -0.69995,1.82405 -10.417916,6.06777 -16.605268,7.25133 -8.223043,1.57296 -16.966051,2.07048 -21.835004,1.24251 z"
     id="path3025"
     inkscape:connector-curvature="0" />
</svg>
