<?xml version="1.0" encoding="UTF-8" standalone="no"?>
<!-- Created with Inkscape (http://www.inkscape.org/) -->

<svg
   xmlns:dc="http://purl.org/dc/elements/1.1/"
   xmlns:cc="http://creativecommons.org/ns#"
   xmlns:rdf="http://www.w3.org/1999/02/22-rdf-syntax-ns#"
   xmlns:svg="http://www.w3.org/2000/svg"
   xmlns="http://www.w3.org/2000/svg"
   xmlns:sodipodi="http://sodipodi.sourceforge.net/DTD/sodipodi-0.dtd"
   xmlns:inkscape="http://www.inkscape.org/namespaces/inkscape"
   id="svg2999"
   version="1.1"
   inkscape:version="0.48.2 r9819"
   width="425"
   height="425"
   sodipodi:docname="hooded.svg">
  <metadata
     id="metadata3005">
    <rdf:RDF>
      <cc:Work
         rdf:about="">
        <dc:format>image/svg+xml</dc:format>
        <dc:type
           rdf:resource="http://purl.org/dc/dcmitype/StillImage" />
        <dc:title></dc:title>
      </cc:Work>
    </rdf:RDF>
  </metadata>
  <defs
     id="defs3003" />
  <sodipodi:namedview
     pagecolor="#ffffff"
     bordercolor="#666666"
     borderopacity="1"
     objecttolerance="10"
     gridtolerance="10"
     guidetolerance="10"
     inkscape:pageopacity="0"
     inkscape:pageshadow="2"
     inkscape:window-width="1920"
     inkscape:window-height="1018"
     id="namedview3001"
     showgrid="false"
     inkscape:zoom="1.1105882"
     inkscape:cx="145.93719"
     inkscape:cy="157.45032"
     inkscape:window-x="-8"
     inkscape:window-y="-8"
     inkscape:window-maximized="1"
     inkscape:current-layer="svg2999"
     showguides="true"
     inkscape:guide-bbox="true" />
  <path
     inkscape:connector-curvature="0"
     id="path3014"
     d="m 175.40981,423.73802 c -31.76955,-0.92903 -50.13384,-2.82716 -67.19138,-6.94491 -7.8576,-1.89685 -13.224822,-1.50115 -23.294761,1.71738 l -7.319185,2.33935 -1.284775,-2.0261 c -0.706627,-1.11436 -2.626182,-6.88925 -4.265678,-12.83311 -1.639497,-5.94385 -7.783939,-25.18502 -13.654317,-42.75815 -12.515153,-37.46443 -25.123387,-80.72233 -27.717573,-95.0969 -4.782582,-26.50061 -5.065357,-52.33169 -0.866296,-79.13496 6.2059,-39.61325 15.146377,-68.58564 41.171219,-133.418897 4.537199,-11.303101 7.463629,-17.268282 9.504624,-19.374052 3.147019,-3.246906 4.986841,-3.915076 37.594002,-13.653072 9.045,-2.701251 20.03995,-6.111871 24.43323,-7.579157 4.39328,-1.467286 11.61839,-3.744631 16.05579,-5.060766 5.15838,-1.5299796 8.85432,-3.2299723 10.24837,-4.7138653 2.59014,-2.7570756 4.86097,-2.4524271 11.32686,1.5195768 11.62226,7.1395795 36.6465,9.2082325 56.5023,4.6708195 4.30563,-0.983915 11.97315,-2.728374 17.03893,-3.876576 10.56024,-2.3935713 15.16363,-2.1231678 20.22356,1.1879342 3.9672,2.5960518 10.64199,5.1932278 49.03419,19.0793028 15.24727,5.514787 29.25231,10.875043 31.1223,11.911678 3.48307,1.930847 9.34448,10.049017 17.49572,24.231883 13.95132,24.274776 22.54748,82.658251 24.21366,164.454421 0.44222,21.70958 0.2772,28.17557 -0.87117,34.13674 -2.74927,14.27139 -15.96947,55.63073 -27.38698,85.68006 -4.51684,11.88771 -10.62763,28.57614 -13.57953,37.08539 -2.95191,8.50927 -6.04171,15.89693 -6.86621,16.41702 -1.05082,0.66284 -3.31288,0.46232 -7.5642,-0.67049 -3.33579,-0.88886 -6.47902,-1.61611 -6.98497,-1.61611 -1.7994,0 -2.11209,3.24294 -0.96875,10.04731 0.98973,5.89019 0.95788,7.10039 -0.21774,8.27601 -1.95759,1.95759 -8.90386,3.10537 -31.41575,5.19105 -16.23883,1.50449 -26.72593,1.8052 -59.20359,1.69763 -21.70799,-0.0719 -51.09834,-0.47079 -65.3119,-0.88644 z M 108.92588,311.00124 c 0.38909,-4.35165 1.39114,-14.04389 2.22678,-21.53831 1.65016,-14.7996 1.83336,-45.36788 0.38014,-63.43243 -0.45736,-5.68542 -1.2732,-15.83461 -1.81297,-22.55374 -0.53978,-6.71914 -1.24958,-19.72279 -1.57735,-28.897 -0.32778,-9.1742 -0.96362,-16.68037 -1.41301,-16.68037 -1.5433,0 -3.90106,4.71292 -6.49182,12.9765 -1.42697,4.55148 -3.895873,10.9999 -5.486457,14.32983 -1.978199,4.14142 -3.237074,8.72677 -3.984186,14.51208 -1.344184,10.4088 -4.921059,23.12266 -7.978558,28.35952 -2.943462,5.04153 -2.888026,5.95838 0.559963,9.26176 2.012762,1.92835 3.51628,4.95357 5.108105,10.27802 3.702517,12.38439 6.861029,25.83391 8.06164,34.32791 2.22598,15.74821 8.586283,37.99845 10.665383,37.31067 0.56919,-0.1883 1.35324,-3.9028 1.74234,-8.25444 z m 221.8811,-9.08676 c 0.73049,-1.42136 1.78727,-6.81312 2.34839,-11.98168 0.65325,-6.01714 2.06897,-12.2661 3.93581,-17.37259 2.74898,-7.51943 2.83097,-8.11847 1.43471,-10.48214 -1.23074,-2.08348 -1.48088,-6.10535 -1.48088,-23.81026 0,-20.36486 -0.10617,-21.6211 -2.41002,-28.51705 -2.70135,-8.08572 -4.75237,-11.77322 -6.08892,-10.94719 -1.23506,0.76331 -1.21803,105.69519 0.0171,105.69519 0.50359,0 1.51328,-1.16293 2.24376,-2.58428 z"
     style="fill:#ff6600" />
</svg>
