<?xml version="1.0" encoding="UTF-8" standalone="no"?>
<!-- Created with Inkscape (http://www.inkscape.org/) -->

<svg
   xmlns:dc="http://purl.org/dc/elements/1.1/"
   xmlns:cc="http://creativecommons.org/ns#"
   xmlns:rdf="http://www.w3.org/1999/02/22-rdf-syntax-ns#"
   xmlns:svg="http://www.w3.org/2000/svg"
   xmlns="http://www.w3.org/2000/svg"
   xmlns:sodipodi="http://sodipodi.sourceforge.net/DTD/sodipodi-0.dtd"
   xmlns:inkscape="http://www.inkscape.org/namespaces/inkscape"
   id="svg2999"
   version="1.1"
   inkscape:version="0.48.2 r9819"
   width="425"
   height="425"
   sodipodi:docname="lslongsleevegirly.svg">
  <metadata
     id="metadata3005">
    <rdf:RDF>
      <cc:Work
         rdf:about="">
        <dc:format>image/svg+xml</dc:format>
        <dc:type
           rdf:resource="http://purl.org/dc/dcmitype/StillImage" />
        <dc:title></dc:title>
      </cc:Work>
    </rdf:RDF>
  </metadata>
  <defs
     id="defs3003" />
  <sodipodi:namedview
     pagecolor="#ffffff"
     bordercolor="#666666"
     borderopacity="1"
     objecttolerance="10"
     gridtolerance="10"
     guidetolerance="10"
     inkscape:pageopacity="0"
     inkscape:pageshadow="2"
     inkscape:window-width="1920"
     inkscape:window-height="1018"
     id="namedview3001"
     showgrid="false"
     inkscape:zoom="1.1105882"
     inkscape:cx="-58.049384"
     inkscape:cy="157.45032"
     inkscape:window-x="-8"
     inkscape:window-y="-8"
     inkscape:window-maximized="1"
     inkscape:current-layer="svg2999"
     showguides="true"
     inkscape:guide-bbox="true" />
  <path
     inkscape:connector-curvature="0"
     id="path3003"
     d="m 73.000013,376.49446 c -0.825,-0.21168 -4.57683,-0.67694 -8.33739,-1.03391 l -6.8374,-0.64906 0.44572,-5.16104 c 0.24515,-2.83858 1.16759,-9.21105 2.04988,-14.16105 3.67203,-20.60159 8.64206,-82.97081 8.88512,-111.5 0.24378,-28.61283 0.43758,-34.6866 1.22324,-38.33642 0.45421,-2.11004 0.90856,-8.63504 1.00968,-14.5 0.10111,-5.86497 1.15231,-19.66358 2.33601,-30.66358 1.18369,-11 2.614516,-24.275 3.179606,-29.5 3.80583,-35.189711 3.93646,-37.783401 2.56916,-51.013171 l -0.77649,-7.51317 6.01737,-11.98683 c 6.39757,-12.74422 8.61288,-15.72087 14.31396,-19.23326 3.577461,-2.20404 24.372171,-9.18578 39.379681,-13.22157 4.37699,-1.17705 10.45199,-3.655 13.5,-5.50656 12.4411,-7.55751 11.54495,-7.44891 59.04185,-7.15514 28.13782,0.17404 43.17587,0.62909 44.5,1.34659 1.1,0.59604 4.60297,1.84001 7.78438,2.76437 3.18141,0.92436 9.03331,3.18174 13.0042,5.01641 10.04501,4.64108 25.64124,10.39478 35.62691,13.14333 14.30644,3.93785 19.13627,8.50247 25.39927,24.00453 3.61103,8.93796 4.04138,10.97053 4.6273,21.85447 0.36734,6.82343 1.21407,13.031631 1.96286,14.391461 0.93574,1.69934 1.4197,8.50062 1.67218,23.5 0.19542,11.6097 0.60357,24.48354 0.90701,28.60854 0.30344,4.125 0.7432,11.775 0.97725,17 0.41775,9.32633 1.19357,13.70697 3.4207,19.3151 1.62211,4.08464 1.37163,10.08505 -0.59295,14.20485 -1.37466,2.88268 -1.47167,3.92114 -0.49364,5.28392 2.23883,3.11956 2.52815,4.44828 1.37182,6.29988 -0.84567,1.35414 -0.88675,5.20706 -0.15583,14.61753 0.5459,7.0283 1.20288,13.70228 1.45998,14.83107 0.2571,1.12879 1.38252,15.30379 2.50094,31.5 1.11841,16.19621 2.25329,30.79765 2.52195,32.44765 0.26865,1.65 2.04135,12.91487 3.93933,25.03306 1.89798,12.11818 3.92686,23.28497 4.50861,24.8151 0.58175,1.53012 1.05773,4.73164 1.05773,7.1145 l 0,4.33245 -13.71128,0.73437 c -13.26825,0.71064 -28.9494,0.143 -30.18539,-1.09267 -0.33182,-0.33175 -0.66758,-9.67824 -0.74611,-20.76999 -0.0785,-11.09175 -0.64516,-25.34182 -1.25917,-31.66682 -1.29468,-13.33677 -7.45243,-48.29493 -10.30456,-58.5 -1.07601,-3.85 -2.09749,-8.8 -2.26995,-11 -0.17247,-2.2 -1.0706,-6.01987 -1.99584,-8.4886 -0.92524,-2.46872 -1.44685,-5.6656 -1.15914,-7.10416 0.28772,-1.43857 0.13807,-3.0187 -0.33255,-3.51141 -1.19184,-1.24779 -1.56455,-8.33804 -0.61206,-11.64359 0.43546,-1.51127 0.44666,-3.53627 0.0249,-4.5 -0.42178,-0.96373 -0.87814,-7.37724 -1.01414,-14.25224 -0.39558,-19.9973 -4.2127,-50.77301 -6.63458,-53.49164 -1.78986,-2.00919 -2.56639,1.94846 -3.30652,16.8521 -1.24112,24.99147 -1.2037,34.68193 0.1704,44.13954 3.21414,22.12199 4.59684,39.45528 4.78631,60 0.14447,15.66545 0.6536,24.01554 1.7682,29 0.86092,3.85 1.86893,13.3 2.24001,21 0.37109,7.7 1.28235,20.525 2.02502,28.5 0.74266,7.975 1.10251,16.65217 0.79966,19.28261 -0.95633,8.30618 -2.75244,8.9536 -36.99913,13.33674 -29.19605,3.73671 -32.50858,3.82475 -55.43275,1.47319 -19.87856,-2.03914 -21.38589,-2.06058 -40.41483,-0.57505 -21.87072,1.70739 -29.82255,1.18074 -40.07168,-2.65395 -7.72297,-2.88954 -11.00284,-6.26693 -11.90075,-12.2546 -0.81279,-5.4201 0.85361,-20.31498 3.62907,-32.4379 C 125.14192,322.57952 126,315.23105 126,310.83051 c 0,-9.52571 2.39296,-28.97363 5.03765,-40.94181 5.44723,-24.65063 8.40948,-61.21466 5.82495,-71.8993 -0.59868,-2.475 -1.20081,-9 -1.33806,-14.5 -0.13725,-5.5 -1.26898,-17.2 -2.51495,-26 -1.24598,-8.8 -2.54535,-19.11428 -2.8875,-22.92061 -0.34215,-3.80634 -1.11646,-7.08363 -1.7207,-7.28287 -0.60425,-0.19925 -2.11559,0.46122 -3.35855,1.46771 -2.21645,1.79477 -2.22898,1.9211 -0.65138,6.56782 0.8847,2.60581 1.61077,5.50962 1.61349,6.4529 0.006,2.11344 -2.5698,10.13143 -5.2687,16.39987 -1.37352,3.19013 -1.8506,5.92591 -1.49532,8.57474 0.29773,2.21976 -0.0943,5.57523 -0.9131,7.81517 -1.49102,4.07892 -2.11744,10.61783 -2.72311,28.42527 -0.19643,5.775 -0.82852,11.67653 -1.40466,13.11451 -1.29308,3.22738 -1.77235,13.57376 -0.77287,16.68445 0.48342,1.50455 0.17875,3.15351 -0.88168,4.77193 -1.11832,1.70677 -1.3316,2.98892 -0.68839,4.13827 0.61737,1.10319 0.4706,2.69914 -0.43481,4.72808 -0.75172,1.68452 -2.09426,10.03776 -2.98343,18.56276 -0.88915,8.525 -2.24681,21.35 -3.01701,28.5 -0.7702,7.15 -2.08131,20.425 -2.91357,29.5 -0.83226,9.075 -1.94233,19.875 -2.46683,24 -0.524501,4.125 -0.975911,9.75 -1.003131,12.5 -0.0916,9.25107 -1.43941,11.99606 -7.08227,14.42355 -4.64727,1.99921 -15.47725,3.47407 -18.956056,2.58151 z"
     style="fill:#ff2a2a" />
</svg>
