<?xml version="1.0" encoding="UTF-8" standalone="no"?>
<!-- Created with Inkscape (http://www.inkscape.org/) -->

<svg
   xmlns:dc="http://purl.org/dc/elements/1.1/"
   xmlns:cc="http://creativecommons.org/ns#"
   xmlns:rdf="http://www.w3.org/1999/02/22-rdf-syntax-ns#"
   xmlns:svg="http://www.w3.org/2000/svg"
   xmlns="http://www.w3.org/2000/svg"
   xmlns:sodipodi="http://sodipodi.sourceforge.net/DTD/sodipodi-0.dtd"
   xmlns:inkscape="http://www.inkscape.org/namespaces/inkscape"
   id="svg2999"
   version="1.1"
   inkscape:version="0.48.2 r9819"
   width="425"
   height="425"
   sodipodi:docname="vneckgirl.svg">
  <metadata
     id="metadata3005">
    <rdf:RDF>
      <cc:Work
         rdf:about="">
        <dc:format>image/svg+xml</dc:format>
        <dc:type
           rdf:resource="http://purl.org/dc/dcmitype/StillImage" />
        <dc:title></dc:title>
      </cc:Work>
    </rdf:RDF>
  </metadata>
  <defs
     id="defs3003" />
  <sodipodi:namedview
     pagecolor="#ffffff"
     bordercolor="#666666"
     borderopacity="1"
     objecttolerance="10"
     gridtolerance="10"
     guidetolerance="10"
     inkscape:pageopacity="0"
     inkscape:pageshadow="2"
     inkscape:window-width="1920"
     inkscape:window-height="1018"
     id="namedview3001"
     showgrid="false"
     inkscape:zoom="0.78530445"
     inkscape:cx="-122.51475"
     inkscape:cy="221.34856"
     inkscape:window-x="-8"
     inkscape:window-y="-8"
     inkscape:window-maximized="1"
     inkscape:current-layer="svg2999" />
  <path
     style="fill:#ffcc00"
     d="m 57.938844,381.1044 c -1.564962,-0.75681 -2.649876,-2.90069 -3.88765,-7.68232 -0.944298,-3.6479 -2.749446,-8.26429 -4.011439,-10.25863 -2.255251,-3.56401 -3.161846,-6.93305 -5.886178,-21.87392 -0.752157,-4.125 -4.052559,-21.45 -7.334229,-38.5 -10.71778,-55.68451 -13.631283,-74.56441 -12.222226,-79.20168 1.516052,-4.9894 3.012467,-12.2697 3.012467,-14.65612 0,-1.281 0.927918,-4.98705 2.062039,-8.23565 1.134121,-3.2486 5.657071,-19.63155 10.051,-36.40655 14.704628,-56.13886 17.5361,-65.368508 24.530047,-79.959726 7.841584,-16.359614 16.217343,-29.202224 21.57771,-33.085254 2.195466,-1.590387 7.586987,-4.278081 11.981159,-5.972653 4.394176,-1.694572 9.627186,-3.958838 11.628916,-5.031702 2.00173,-1.072863 4.35868,-1.950661 5.23765,-1.950661 0.87898,0 1.8631,-0.264952 2.18693,-0.588783 0.32383,-0.323831 5.71713,-2.307305 11.9851,-4.40772 14.16536,-4.746847 22.58484,-8.534618 30.71817,-13.819548 7.37868,-4.794571 12.95692,-5.982205 18.04128,-3.841073 1.925,0.810659 6.875,2.168107 11,3.016551 21.18808,4.358035 42.87556,2.766881 60.66868,-4.451102 2.74548,-1.113734 3.74717,-1.031754 7.5,0.613812 2.38223,1.044573 5.70778,2.917201 7.39012,4.161396 5.12636,3.791267 21.17794,10.879104 35.9412,15.870428 7.7,2.6033 15.66669,5.567177 17.70377,6.586393 2.03707,1.019215 6.31207,2.82088 9.5,4.0037 13.17296,4.887571 19.6832,12.532412 31.81182,37.355946 8.00259,16.378818 9.96596,22.685716 25.37137,81.499996 4.39393,16.775 8.91688,33.15795 10.051,36.40655 1.13412,3.2486 2.06204,6.95465 2.06204,8.23565 0,2.38642 1.49642,9.66672 3.01247,14.65612 1.40905,4.63727 -1.50445,23.51717 -12.22223,79.20168 -3.28167,17.05 -6.58207,34.375 -7.33423,38.5 -2.72433,14.94087 -3.63092,18.30991 -5.88618,21.87392 -1.26199,1.99434 -3.06617,6.60716 -4.00929,10.2507 -2.02932,7.83988 -3.545,8.88408 -12.85759,8.85802 -8.8013,-0.0246 -19.14199,-2.43519 -26.70295,-6.22479 -6.42305,-3.21928 -6.4987,-3.3052 -6.38977,-7.25785 0.20408,-7.40511 1.65593,-17.99019 2.63859,-19.23727 0.53621,-0.68049 0.68938,-1.9814 0.34037,-2.8909 -0.34901,-0.9095 -0.008,-2.61058 0.7588,-3.78017 0.76634,-1.16959 1.88657,-5.71869 2.48939,-10.1091 0.60282,-4.39041 2.69584,-17.88256 4.65117,-29.98256 1.95532,-12.1 3.81086,-26.275 4.12341,-31.5 0.31255,-5.225 1.06492,-11.075 1.67194,-13 0.60702,-1.925 1.15985,-7.89162 1.22851,-13.25915 0.10574,-8.26546 -0.1535,-10.01105 -1.69378,-11.40499 -1.19278,-1.07945 -1.81972,-3.05507 -1.8218,-5.74085 -0.003,-4.18252 -4.10831,-20.64704 -10.49547,-42.09501 -1.96547,-6.6 -3.95425,-13.35 -4.41952,-15 -0.46527,-1.65 -1.3685,-4.31802 -2.00717,-5.92894 -1.14069,-2.87711 -1.19328,-2.89481 -2.97197,-1 -0.9959,1.06092 -3.19659,5.97894 -4.89043,10.92894 -2.5747,7.52422 -3.19522,11.21367 -3.78421,22.5 -1.62829,31.20159 -0.58849,45.86881 6.90137,97.34876 3.66881,25.21681 6.67057,47.34867 6.67057,49.1819 0,2.49923 -0.68802,3.81848 -2.75,5.273 -11.16484,7.87566 -29.00848,12.46113 -59.75,15.3546 -18.22332,1.71522 -80.58855,1.73129 -97.5,0.0251 -25.51758,-2.57442 -43.3393,-6.64908 -54.19417,-12.39065 -10.03844,-5.30972 -9.65474,-2.37869 -4.84456,-37.00718 2.3138,-16.65705 5.53347,-39.02046 7.15482,-49.69645 1.62134,-10.676 2.97277,-23.726 3.00317,-29 0.29155,-50.58384 0.0336,-53.3746 -6.31094,-68.26756 -3.27381,-7.68489 -5.14722,-7.04893 -7.89016,2.67846 -0.46527,1.65 -2.45405,8.4 -4.419518,15 -6.38716,21.44797 -10.492228,37.91249 -10.495469,42.09501 -0.0021,2.68578 -0.629026,4.6614 -1.821804,5.74085 -1.540279,1.39394 -1.799522,3.13953 -1.693785,11.40499 0.06867,5.36753 0.621497,11.33415 1.228514,13.25915 0.607017,1.925 1.359391,7.775 1.671942,13 0.312552,5.225 2.168087,19.4 4.123412,31.5 1.955325,12.1 4.048352,25.59215 4.651171,29.98256 0.602819,4.39041 1.723044,8.93951 2.489391,10.1091 0.766346,1.16959 1.107803,2.87067 0.758795,3.78017 -0.349009,0.9095 -0.195843,2.21041 0.340369,2.8909 0.982662,1.24708 2.434512,11.83216 2.638592,19.23727 0.10893,3.95265 0.0333,4.03857 -6.389771,7.25785 -10.66326,5.3445 -29.54191,8.02092 -35.670745,5.05702 z"
     id="path3001"
     inkscape:connector-curvature="0" />
</svg>
