<?xml version="1.0" encoding="UTF-8" standalone="no"?>
<!-- Created with Inkscape (http://www.inkscape.org/) -->

<svg
   xmlns:dc="http://purl.org/dc/elements/1.1/"
   xmlns:cc="http://creativecommons.org/ns#"
   xmlns:rdf="http://www.w3.org/1999/02/22-rdf-syntax-ns#"
   xmlns:svg="http://www.w3.org/2000/svg"
   xmlns="http://www.w3.org/2000/svg"
   xmlns:sodipodi="http://sodipodi.sourceforge.net/DTD/sodipodi-0.dtd"
   xmlns:inkscape="http://www.inkscape.org/namespaces/inkscape"
   id="svg2999"
   version="1.1"
   inkscape:version="0.48.2 r9819"
   width="425"
   height="425"
   sodipodi:docname="lsmen.svg">
  <metadata
     id="metadata3005">
    <rdf:RDF>
      <cc:Work
         rdf:about="">
        <dc:format>image/svg+xml</dc:format>
        <dc:type
           rdf:resource="http://purl.org/dc/dcmitype/StillImage" />
        <dc:title></dc:title>
      </cc:Work>
    </rdf:RDF>
  </metadata>
  <defs
     id="defs3003" />
  <sodipodi:namedview
     pagecolor="#ffffff"
     bordercolor="#666666"
     borderopacity="1"
     objecttolerance="10"
     gridtolerance="10"
     guidetolerance="10"
     inkscape:pageopacity="0"
     inkscape:pageshadow="2"
     inkscape:window-width="1920"
     inkscape:window-height="1018"
     id="namedview3001"
     showgrid="false"
     inkscape:zoom="3.1412178"
     inkscape:cx="164.13452"
     inkscape:cy="320.16362"
     inkscape:window-x="-8"
     inkscape:window-y="-8"
     inkscape:window-maximized="1"
     inkscape:current-layer="svg2999" />
  <path
     style="fill:#aa4400"
     d="m 119.53831,424.50285 c -9.35,-0.4868 -20.9375,-0.6849 -25.75,-0.4404 l -8.75,0.4446 0,-6.5292 c 0,-4.284 1.20477,-11.0699 3.50347,-19.7335 1.96933,-7.4222 3.45853,-15.361 3.40083,-18.1296 -0.30415,-14.594 1.01189,-35.15811 2.46746,-38.55593 5.74587,-13.41303 6.50107,-158.94205 1.06101,-204.45916 -2.10167,-17.58473 -5.37383,-26.36398 -8.77436,-23.54178 -0.79308,0.6582 -5.42816,1.69851 -10.30019,2.31182 -16.023995,2.01714 -13.84153,3.32716 -21.125235,-12.68035 -3.50363,-7.70001 -9.30323,-21.37443 -12.888,-30.3876 -5.20652,-13.09077 -6.2489,-16.57851 -5.18137,-17.33658 2.66419,-1.89188 43.558665,-21.67523 52.163285,-25.23482 4.8548,-2.00835 12.5048,-4.95226 17,-6.54202 4.4952,-1.58977 15.5462,-6.30124 24.55777,-10.46996 24.54279,-11.3533897 27.29182,-11.8621397 41.32457,-7.6477697 18.25129,5.4812797 23.68194,6.4739597 35.29075,6.4508497 11.43347,-0.0228 15.1747,-0.93936 37.87719,-9.2798897 4.75365,-1.74642001 6.45492,-1.95779001 8.89923,-1.10571 1.66211,0.57942 4.8777,1.05349 7.14574,1.05349 6.25817,0 50.32848,11.9946997 62.07784,16.8958497 14.6172,6.09744 32.24728,12.20233 42,14.54363 17.00547,4.08244 19.51787,4.78041 19.99682,5.55537 0.76625,1.23982 -8.22335,44.1663 -12.10774,57.81606 -0.65862,2.314376 -17.40471,9.37035 -23.57991,9.93541 -7.02321,0.64265 -9.67139,3.12578 -12.62857,11.84145 -3.9588,11.6677 -4.44832,17.92308 -3.8145,48.74386 0.64426,31.32866 1.54086,45.53041 4.01958,63.66838 0.86437,6.325 2.0511,17.575 2.63717,25 1.12786,14.28882 3.13237,27.64425 5.61691,37.42357 2.66684,10.49686 4.31803,26.66879 4.44925,43.57643 0.20819,26.82413 1.39094,42.5036 4.1488,55 1.39589,6.325 2.80791,14.3257 3.13782,17.7794 0.56361,5.9 0.46053,6.3324 -1.70575,7.156 -4.3996,1.6727 -36.47234,3.0759 -94.16988,4.12 -31.9,0.5773 -69.475,1.6936 -83.5,2.4807 -27.8921,1.5653 -33.26932,1.5908 -58.49999,0.2774 z"
     id="path3041"
     inkscape:connector-curvature="0" />
</svg>
