<?xml version="1.0" encoding="UTF-8" standalone="no"?>
<!-- Created with Inkscape (http://www.inkscape.org/) -->

<svg
   xmlns:dc="http://purl.org/dc/elements/1.1/"
   xmlns:cc="http://creativecommons.org/ns#"
   xmlns:rdf="http://www.w3.org/1999/02/22-rdf-syntax-ns#"
   xmlns:svg="http://www.w3.org/2000/svg"
   xmlns="http://www.w3.org/2000/svg"
   xmlns:sodipodi="http://sodipodi.sourceforge.net/DTD/sodipodi-0.dtd"
   xmlns:inkscape="http://www.inkscape.org/namespaces/inkscape"
   width="425"
   height="425"
   id="svg2"
   version="1.1"
   inkscape:version="0.47 r22583"
   sodipodi:docname="gil.svg">
  <defs
     id="defs4">
    <inkscape:perspective
       sodipodi:type="inkscape:persp3d"
       inkscape:vp_x="0 : 526.18109 : 1"
       inkscape:vp_y="0 : 1000 : 0"
       inkscape:vp_z="744.09448 : 526.18109 : 1"
       inkscape:persp3d-origin="372.04724 : 350.78739 : 1"
       id="perspective10" />
    <inkscape:perspective
       id="perspective2884"
       inkscape:persp3d-origin="0.5 : 0.33333333 : 1"
       inkscape:vp_z="1 : 0.5 : 1"
       inkscape:vp_y="0 : 1000 : 0"
       inkscape:vp_x="0 : 0.5 : 1"
       sodipodi:type="inkscape:persp3d" />
    <inkscape:perspective
       id="perspective2900"
       inkscape:persp3d-origin="0.5 : 0.33333333 : 1"
       inkscape:vp_z="1 : 0.5 : 1"
       inkscape:vp_y="0 : 1000 : 0"
       inkscape:vp_x="0 : 0.5 : 1"
       sodipodi:type="inkscape:persp3d" />
  </defs>
  <sodipodi:namedview
     id="base"
     pagecolor="#ffffff"
     bordercolor="#666666"
     borderopacity="1.0"
     inkscape:pageopacity="0.0"
     inkscape:pageshadow="2"
     inkscape:zoom="1.4"
     inkscape:cx="104.82817"
     inkscape:cy="97.24402"
     inkscape:document-units="px"
     inkscape:current-layer="layer1"
     showgrid="false"
     inkscape:window-width="1366"
     inkscape:window-height="696"
     inkscape:window-x="-3"
     inkscape:window-y="0"
     inkscape:window-maximized="1" />
  <metadata
     id="metadata7">
    <rdf:RDF>
      <cc:Work
         rdf:about="">
        <dc:format>image/svg+xml</dc:format>
        <dc:type
           rdf:resource="http://purl.org/dc/dcmitype/StillImage" />
        <dc:title />
      </cc:Work>
    </rdf:RDF>
  </metadata>
  <g
     inkscape:label="Layer 1"
     inkscape:groupmode="layer"
     id="layer1"
     transform="translate(0,-627.36218)">
    <path
       style="fill:#008f00;fill-opacity:1"
       d="m 193.24202,1038.8839 c -31.74093,-3.774 -52.51716,-10.7012 -72.5,-24.173 l -5.5,-3.7079 0.31431,-7.4814 c 0.17287,-4.11474 1.40708,-14.68136 2.7427,-23.48136 4.22019,-27.80568 4.63132,-34.32524 3.43684,-54.5 -0.60242,-10.175 -1.52249,-20.93755 -2.04458,-23.91678 -0.5221,-2.97923 -0.94927,-9.99168 -0.94927,-15.58322 0,-5.59154 -0.42477,-12.60399 -0.94393,-15.58322 -0.51916,-2.97923 -1.44722,-13.74178 -2.06234,-23.91678 -1.4306,-23.66387 -3.81487,-49.58994 -5.31893,-57.83696 l -1.1748,-6.44165 -3.2583,7.88931 c -1.79207,4.33911 -4.11533,8.99635 -5.16279,10.34941 l -1.90449,2.46012 -5.33721,-1.68627 c -2.935465,-0.92744 -10.28721,-4.67603 -16.33721,-8.3302 -6.05,-3.65418 -16.036706,-9.24797 -22.192681,-12.43067 -6.155974,-3.18269 -12.960429,-7.20732 -15.12101,-8.94361 L 36,768.41283 l 5.217675,-8.6863 c 4.855718,-8.08371 13.917082,-24.72453 26.51097,-48.68629 11.668758,-22.20156 18.486794,-33.0498 22.659949,-36.05445 8.602996,-6.19412 18.300886,-8.88591 41.353426,-11.47825 9.625,-1.08236 19.60955,-2.64279 22.1879,-3.46762 2.57834,-0.82482 5.51159,-1.49968 6.51833,-1.49968 1.00674,0 4.07218,-1.86536 6.8121,-4.14525 10.94021,-9.10335 22.5176,-12.21318 45.48167,-12.21693 22.98182,-0.004 39.37858,3.85112 49.1143,11.54677 8.01301,6.33391 14.72257,8.75521 32.8857,11.86754 17.48886,2.99678 32.36843,7.31206 39.29893,11.39721 10.45336,6.16169 17.56914,16.57338 26.0054,38.05066 17.5131,44.5854 19.57023,49.34035 25.45717,58.84272 2.18712,3.53034 2.25163,3.98529 0.79347,5.59654 -0.87295,0.9646 -3.49243,2.31203 -5.82108,2.99429 -6.28499,1.84143 -15.81624,6.15979 -19.29269,8.74102 -1.68234,1.24913 -7.52996,4.38914 -12.99471,6.97782 -8.45613,4.00571 -11.0537,4.76865 -17.4412,5.12271 -6.64755,0.36848 -7.90394,0.14431 -10.99351,-1.96144 -2.4971,-1.70194 -3.65424,-3.36286 -4.07253,-5.84556 -0.32136,-1.90745 -1.48567,-5.20284 -2.58735,-7.32309 l -2.00306,-3.85498 -1.12804,10.85498 c -1.23597,11.89368 0.0268,71.05744 1.69371,79.35499 0.49721,2.475 1.40799,7.425 2.02395,11 0.61596,3.575 2.26934,9.875 3.67417,14 2.33302,6.85041 2.45292,7.97753 1.38438,13.01339 -1.09015,5.13768 -0.96432,6.12575 1.84662,14.5 1.65906,4.94263 3.68678,12.6385 4.50603,17.10192 0.8768,4.77701 2.91486,10.94739 4.95444,15 4.38818,8.71923 7.6959,19.3757 7.6959,24.79386 0,4.81076 -1.28482,6.25722 -14.34456,16.14909 -4.31451,3.268 -11.14704,8.4682 -15.18341,11.5561 -18.02221,13.7874 -46.17434,23.6591 -76.61466,26.8654 -8.81909,0.9289 -31.77379,1.1467 -38.35737,0.3639 z"
       id="path2890" />
  </g>
</svg>
