<?xml version="1.0" encoding="UTF-8" standalone="no"?>
<!-- Created with Inkscape (http://www.inkscape.org/) -->

<svg
   xmlns:dc="http://purl.org/dc/elements/1.1/"
   xmlns:cc="http://creativecommons.org/ns#"
   xmlns:rdf="http://www.w3.org/1999/02/22-rdf-syntax-ns#"
   xmlns:svg="http://www.w3.org/2000/svg"
   xmlns="http://www.w3.org/2000/svg"
   xmlns:sodipodi="http://sodipodi.sourceforge.net/DTD/sodipodi-0.dtd"
   xmlns:inkscape="http://www.inkscape.org/namespaces/inkscape"
   width="425"
   height="425"
   id="svg3789"
   version="1.1"
   inkscape:version="0.48.2 r9819"
   sodipodi:docname="test.svg">
  <defs
     id="defs3791" />
  <sodipodi:namedview
     id="base"
     pagecolor="#ffffff"
     bordercolor="#666666"
     borderopacity="1.0"
     inkscape:pageopacity="0.0"
     inkscape:pageshadow="2"
     inkscape:zoom="0.98994949"
     inkscape:cx="158.89735"
     inkscape:cy="267.61451"
     inkscape:document-units="px"
     inkscape:current-layer="layer1"
     showgrid="false"
     inkscape:window-width="1920"
     inkscape:window-height="1018"
     inkscape:window-x="-8"
     inkscape:window-y="-8"
     inkscape:window-maximized="1" />
  <metadata
     id="metadata3794">
    <rdf:RDF>
      <cc:Work
         rdf:about="">
        <dc:format>image/svg+xml</dc:format>
        <dc:type
           rdf:resource="http://purl.org/dc/dcmitype/StillImage" />
        <dc:title></dc:title>
      </cc:Work>
    </rdf:RDF>
  </metadata>
  <g
     inkscape:label="Laag 1"
     inkscape:groupmode="layer"
     id="layer1"
     transform="translate(0,-627.36217)">
    <path
       style="fill:#aa0000"
       d="m 188.20791,1038.6858 c -13.2218,-1.5177 -24.62215,-3.9342 -35.26076,-7.4742 -16.4295,-5.4668 -38.83522,-17.5615 -39.56678,-21.3583 -0.55025,-2.8558 1.10568,-19.79173 3.12306,-31.94116 3.90278,-23.50392 4.40971,-32.1061 3.13093,-53.12934 -0.65481,-10.76515 -1.60735,-21.45976 -2.11675,-23.76581 -0.5094,-2.30605 -0.92619,-8.5827 -0.92619,-13.9481 0,-5.36541 -0.4519,-13.37864 -1.00422,-17.80718 -0.55232,-4.42855 -1.70827,-18.8519 -2.56878,-32.0519 -1.51326,-23.21291 -3.87657,-47.1502 -5.01052,-50.75 -0.93203,-2.95879 -1.80836,-2.00715 -4.74428,5.15203 -1.55529,3.79254 -3.837205,7.8438 -5.070915,9.00281 -2.11968,1.99134 -2.50281,2.02914 -6.96257,0.68694 -2.59571,-0.78119 -10.6638,-4.98431 -17.92909,-9.34026 -7.26529,-4.35595 -17.20742,-9.90702 -22.09361,-12.33572 -4.88619,-2.42869 -10.69579,-6.01601 -12.91023,-7.97181 l -4.02625,-3.55602 4.49642,-7.44398 c 4.59161,-7.60157 14.60133,-25.9899 25.82623,-47.44399 9.62498,-18.39617 16.86214,-30.39749 21.10886,-35.00464 7.59605,-8.24074 20.021295,-12.18606 46.978935,-14.91694 8.02449,-0.8129 16.57449,-2.16905 19,-3.01366 2.42551,-0.84461 5.24826,-1.5422 6.27278,-1.55021 1.02452,-0.008 4.62452,-2.0981 8,-4.64465 11.90258,-8.97963 21.86959,-11.62718 44.13724,-11.72423 22.62051,-0.0986 39.08877,3.70787 48.94718,11.31358 8.52528,6.5772 15.28154,9.04985 32.9399,12.05528 27.55292,4.68949 40.24502,9.67382 49.46935,19.42718 6.16086,6.5142 10.73469,15.58737 20.44563,40.55829 10.80948,27.7957 13.22938,33.46502 18.2434,42.7405 2.45,4.53227 4.45454,8.90822 4.45454,9.72432 0,1.79218 -3.29494,3.53844 -12.19044,6.46072 -3.67975,1.20883 -9.44082,3.97553 -12.80238,6.14822 -17.56838,11.35499 -32.89697,15.62019 -41.0272,11.41589 -3.31097,-1.71217 -4.43046,-3.47877 -5.37988,-8.48965 -0.66279,-3.49812 -3.16742,-7.76601 -4.04343,-6.89001 -0.25519,0.2552 -0.9421,4.49735 -1.52646,9.427 -0.73014,6.1594 -0.76996,19.12895 -0.12733,41.46301 0.81672,28.38435 1.25434,34.08294 3.45575,45 1.38634,6.875 3.44972,15.16356 4.58528,18.41903 1.81612,5.20647 1.92767,6.59087 0.92662,11.5 -1.06049,5.20064 -0.92581,6.21128 1.97641,14.83024 1.71294,5.0871 3.59752,12.2871 4.18795,16 0.61968,3.89688 2.90839,10.76682 5.4139,16.25073 5.2616,11.51629 7.55121,18.96857 7.55121,24.57791 0,3.53424 -0.5363,4.67573 -3.32096,7.0685 -7.48002,6.42734 -31.0776,24.10498 -36.829,27.58958 -12.31118,7.4592 -33.50706,14.4916 -54.85004,18.1985 -11.24296,1.9527 -41.13745,2.8324 -52.38351,1.5415 z"
       id="path3937"
       inkscape:connector-curvature="0" />
  </g>
</svg>
