<?xml version="1.0" encoding="UTF-8" standalone="no"?>
<!-- Created with Inkscape (http://www.inkscape.org/) -->

<svg
   xmlns:dc="http://purl.org/dc/elements/1.1/"
   xmlns:cc="http://creativecommons.org/ns#"
   xmlns:rdf="http://www.w3.org/1999/02/22-rdf-syntax-ns#"
   xmlns:svg="http://www.w3.org/2000/svg"
   xmlns="http://www.w3.org/2000/svg"
   xmlns:sodipodi="http://sodipodi.sourceforge.net/DTD/sodipodi-0.dtd"
   xmlns:inkscape="http://www.inkscape.org/namespaces/inkscape"
   width="425"
   height="425"
   id="svg2"
   version="1.1"
   inkscape:version="0.48.2 r9819"
   sodipodi:docname="girly.svg">
  <defs
     id="defs4" />
  <sodipodi:namedview
     id="base"
     pagecolor="#ffffff"
     bordercolor="#666666"
     borderopacity="1.0"
     inkscape:pageopacity="0.0"
     inkscape:pageshadow="2"
     inkscape:zoom="0.7"
     inkscape:cx="19.966603"
     inkscape:cy="392.87332"
     inkscape:document-units="px"
     inkscape:current-layer="layer1"
     showgrid="false"
     inkscape:window-width="1920"
     inkscape:window-height="1018"
     inkscape:window-x="-8"
     inkscape:window-y="-8"
     inkscape:window-maximized="1" />
  <metadata
     id="metadata7">
    <rdf:RDF>
      <cc:Work
         rdf:about="">
        <dc:format>image/svg+xml</dc:format>
        <dc:type
           rdf:resource="http://purl.org/dc/dcmitype/StillImage" />
      </cc:Work>
    </rdf:RDF>
  </metadata>
  <g
     inkscape:label="Laag 1"
     inkscape:groupmode="layer"
     id="layer1"
     transform="translate(0,-627.36218)">
    <path
       style="fill:#ff2a2a"
       d="m 92.386743,1050.5055 c -2.623935,-1.1916 -5.064223,-2.6411 -5.422868,-3.2215 -0.919236,-1.4874 -0.963803,-12.1171 -0.130708,-31.1736 0.575875,-13.1731 0.355141,-17.62235 -1.12732,-22.7218 -2.558003,-8.79925 -2.36386,-10.67397 1.867326,-18.03084 3.556893,-6.18447 3.72077,-7.02729 3.952059,-20.32517 0.144788,-8.32448 1.869164,-25.43291 4.311385,-42.77559 9.151163,-64.98383 10.415023,-83.63917 8.835533,-130.41676 -0.56009,-16.58756 -0.66781,-17.18775 -3.46828,-19.32274 -6.391151,-4.87241 -24.601463,-14.05048 -40.174363,-20.24803 -9.553264,-3.8019 -16.474375,-7.19684 -16.474375,-8.08102 0,-0.83858 1.805962,-3.77617 4.01324,-6.528 6.067772,-7.56464 8.399955,-12.47354 14.679651,-30.89852 3.164294,-9.28418 6.996014,-18.51015 8.51494,-20.50218 1.518937,-1.992 5.512996,-5.24007 8.8757,-7.21792 3.362692,-1.97784 7.459482,-4.67801 9.103971,-6.00036 1.672629,-1.34498 11.687896,-4.88385 22.731646,-8.03216 19.30215,-5.5026 36.97368,-12.09452 47.98014,-17.89778 6.34528,-3.34561 6.64695,-3.40862 6.64695,-1.38838 0,2.44322 7.09529,8.59387 12.84142,11.13175 10.12097,4.47009 20.63417,5.85966 44.17192,5.83837 25.89922,-0.0234 35.74932,-1.59531 43.31699,-6.91245 l 4.95235,-3.47962 4.30292,2.19519 c 2.3666,1.20737 6.62795,2.82126 9.46967,3.58646 2.84172,0.7652 8.04125,2.84195 11.55447,4.61502 3.51324,1.77305 13.76912,5.5763 22.79087,8.45165 25.85169,8.23927 33.86854,15.25919 39.76603,34.82088 1.93299,6.41162 4.23825,13.47838 5.12283,15.70387 0.88455,2.22547 2.4278,7.42791 3.42945,11.56096 1.18734,4.8993 3.60648,10.12994 6.95096,15.02925 2.82139,4.13305 5.91639,9.42163 6.87777,11.75241 l 1.74797,4.23777 -4.23209,3.71585 c -2.32766,2.0437 -8.63621,5.74088 -14.01898,8.21598 -5.38277,2.47509 -14.19916,7.16532 -19.59199,10.42275 -15.26863,9.22268 -25.43048,12.3223 -28.92878,8.82397 -0.76304,-0.76301 -1.38732,-3.10411 -1.38732,-5.20242 0,-2.54921 -0.55221,-3.81512 -1.66419,-3.81512 -2.22962,0 -7.06136,16.03834 -10.62275,35.26094 -1.53148,8.26609 -4.04536,20.75193 -5.58644,27.74633 -4.11301,18.66753 -5.42414,36.68011 -3.33785,45.85616 0.91589,4.02835 1.85315,14.40022 2.08281,23.04857 0.37619,14.1664 0.71449,16.31022 3.41446,21.63837 2.15258,4.24793 2.99689,7.71811 2.99689,12.31757 0,7.03193 8.13393,45.3648 10.80061,50.90016 0.91899,1.90757 2.0091,5.87935 2.42252,8.82613 0.73183,5.2167 0.62312,5.468 -4.12361,9.531 -5.20716,4.4571 -16.45592,9.2438 -32.99128,14.0386 -17.29691,5.0157 -77.33227,16.4657 -96.92033,18.4842 -10.17365,1.0486 -32.64201,3.4258 -49.92973,5.2827 -17.28771,1.8571 -32.37476,3.365 -33.526803,3.351 -1.152034,-0.013 -4.241458,-1.0003 -6.865394,-2.1919 z"
       id="path3018"
       inkscape:connector-curvature="0" />
  </g>
</svg>
