<?xml version="1.0" encoding="UTF-8" standalone="no"?>
<!-- Created with Inkscape (http://www.inkscape.org/) -->

<svg
   xmlns:dc="http://purl.org/dc/elements/1.1/"
   xmlns:cc="http://creativecommons.org/ns#"
   xmlns:rdf="http://www.w3.org/1999/02/22-rdf-syntax-ns#"
   xmlns:svg="http://www.w3.org/2000/svg"
   xmlns="http://www.w3.org/2000/svg"
   xmlns:sodipodi="http://sodipodi.sourceforge.net/DTD/sodipodi-0.dtd"
   xmlns:inkscape="http://www.inkscape.org/namespaces/inkscape"
   width="425"
   height="425"
   id="svg2"
   version="1.1"
   inkscape:version="0.48.2 r9819"
   sodipodi:docname="tee.svg">
  <defs
     id="defs4" />
  <sodipodi:namedview
     id="base"
     pagecolor="#ffffff"
     bordercolor="#666666"
     borderopacity="1.0"
     inkscape:pageopacity="0.0"
     inkscape:pageshadow="2"
     inkscape:zoom="0.49497475"
     inkscape:cx="763.04681"
     inkscape:cy="708.9031"
     inkscape:document-units="px"
     inkscape:current-layer="layer1"
     showgrid="false"
     inkscape:window-width="1920"
     inkscape:window-height="1018"
     inkscape:window-x="-8"
     inkscape:window-y="-8"
     inkscape:window-maximized="1" />
  <metadata
     id="metadata7">
    <rdf:RDF>
      <cc:Work
         rdf:about="">
        <dc:format>image/svg+xml</dc:format>
        <dc:type
           rdf:resource="http://purl.org/dc/dcmitype/StillImage" />
        <dc:title></dc:title>
      </cc:Work>
    </rdf:RDF>
  </metadata>
  <g
     inkscape:label="Laag 1"
     inkscape:groupmode="layer"
     id="layer1"
     transform="translate(0,-627.36218)">
    <path
       style="fill:#c83737"
       d="m 295.64647,1039.0528 c -5.88141,-0.8534 -19.03925,-1.0593 -60.8282,-0.9518 -51.89526,0.1334 -138.031565,-1.0649 -153.363214,-2.1336 -4.186885,-0.2918 -8.045876,-0.798 -8.575549,-1.1248 -1.165562,-0.7191 -0.116525,-13.8463 2.332198,-29.184 2.088771,-13.08315 4.282487,-31.93399 5.598386,-48.10763 0.370555,-4.55446 1.179289,-10.44074 1.797193,-13.08064 1.14395,-4.88741 1.152888,-9.02465 0.207761,-96.14735 -0.141161,-13.01271 -0.674471,-29.65934 -1.185123,-36.99249 -0.510653,-7.33315 -0.720366,-14.27882 -0.46604,-15.43484 0.407561,-1.85251 -0.26759,-2.75404 -5.691643,-7.60004 -3.384743,-3.024 -8.342637,-7.19499 -11.01755,-9.26885 l -4.863475,-3.77065 -2.533198,1.30776 c -2.489325,1.28512 -6.88335,2.60127 -16.08112,4.8168 -5.040035,1.21404 -5.350337,1.11501 -8.940181,-2.85318 -4.16475,-4.60369 -18.168057,-36.75143 -26.451792,-60.72603 -4.95466223,-14.33967 -5.77156655,-12.35557 7.378314,-17.92046 6.229446,-2.63623 12.748223,-5.21997 14.486168,-5.74165 1.737946,-0.52167 8.237151,-3.39506 14.442669,-6.3853 6.205528,-2.99024 14.771607,-6.64915 19.035734,-8.1309 8.08777,-2.81044 19.378361,-8.16817 25.857176,-12.27001 2.082178,-1.31826 6.64697,-3.27669 10.143967,-4.35207 7.852889,-2.41489 58.981799,-14.96945 65.967899,-16.19822 2.8057,-0.4935 6.10442,-1.41514 7.33047,-2.04809 1.22606,-0.63295 2.64477,-0.89441 3.15271,-0.58102 1.02822,0.63441 27.60341,1.51393 41.68882,1.37972 4.9966,-0.0476 11.63475,-0.6439 14.75146,-1.32509 5.55373,-1.21384 5.77425,-1.20065 11.05967,0.66141 2.96612,1.04497 6.39392,1.90744 7.61732,1.91659 1.22341,0.009 3.00085,0.44503 3.94988,0.96864 0.94903,0.52361 3.68071,1.18899 6.07039,1.47865 2.38968,0.28966 6.8333,1.2461 9.8747,2.12541 3.04142,0.87933 7.48504,1.82951 9.87472,2.11152 2.38968,0.28202 6.83329,1.02128 9.8747,1.64281 3.04141,0.62154 10.907,1.85563 17.47908,2.74244 15.02008,2.02672 29.44023,6.70793 46.90402,15.22643 13.50408,6.58704 29.14113,13.76581 41.86876,19.22144 13.90488,5.96026 22.90932,10.43593 22.90932,11.3871 0,0.49723 -1.64333,5.20188 -3.65187,10.45479 -2.00853,5.25291 -6.24159,16.82604 -9.4068,25.71806 -17.21105,48.351 -15.89973,45.37831 -19.6654,44.58041 -6.29823,-1.33452 -10.94739,-2.05188 -18.21347,-2.81029 -5.80534,-0.60594 -8.72885,-1.31729 -11.08914,-2.69817 -2.80381,-1.64039 -11.34678,-4.37137 -13.67438,-4.37137 -0.45111,0 -1.06317,0.79851 -1.36011,1.77446 -0.29695,0.97596 -1.31054,2.83914 -2.25243,4.14042 -3.23874,4.47453 -3.63373,6.42536 -3.64043,17.97888 -0.004,6.16063 -0.36261,14.30413 -0.79788,18.09666 -1.24236,10.82465 -1.70933,113.95995 -0.71508,157.93228 0.87217,38.57326 0.37254,62.66606 -1.33183,64.22236 -1.35545,1.2376 -27.90688,1.4772 -35.85758,0.3235 z M 214.15035,678.8697 c 0.15367,-0.809 -0.24801,-2.58346 -0.89261,-3.94325 -2.8379,-5.98654 -3.59383,-10.56238 -2.00667,-12.14688 1.02044,-1.01872 0.4282,-1.35117 -3.55176,-1.99376 -2.88404,-0.46565 -3.28702,0.6644 -2.11066,5.91878 0.51373,2.29472 1.11449,5.94668 1.335,8.11547 0.22051,2.16878 0.78002,4.40499 1.24337,4.96933 1.26388,1.53939 5.64412,0.86611 5.98333,-0.91969 z"
       id="path3018"
       inkscape:connector-curvature="0" />
  </g>
</svg>
