<?xml version="1.0" encoding="utf-8"?>
<!-- Generator: Adobe Illustrator 14.0.0, SVG Export Plug-In . SVG Version: 6.00 Build 43363)  -->
<!DOCTYPE svg PUBLIC "-//W3C//DTD SVG 1.1//EN" "http://www.w3.org/Graphics/SVG/1.1/DTD/svg11.dtd">
<svg version="1.1"
	 id="svg2" xmlns:cc="http://creativecommons.org/ns#" xmlns:inkscape="http://www.inkscape.org/namespaces/inkscape" xmlns:rdf="http://www.w3.org/1999/02/22-rdf-syntax-ns#" xmlns:sodipodi="http://sodipodi.sourceforge.net/DTD/sodipodi-0.dtd" sodipodi:docname="New document 1" xmlns:dc="http://purl.org/dc/elements/1.1/" inkscape:version="0.47 r22583" xmlns:svg="http://www.w3.org/2000/svg"
	 xmlns="http://www.w3.org/2000/svg" xmlns:xlink="http://www.w3.org/1999/xlink" x="0px" y="0px" width="425px" height="425px"
	 viewBox="0 0 425 425" enable-background="new 0 0 425 425" xml:space="preserve">
<g>
	<path fill-rule="evenodd" clip-rule="evenodd" fill="#FFFFFF" d="M90.34,373.846c3.195-18.706,8.337-35.652,15.6-52.561
		c5.077-11.818,9.941-23.677,12.72-38.399c0.833-4.414,2.448-10.876,1.92-14.881c-0.251-1.909-1.829-2.857-1.92-4.8
		c-0.123-2.628,2.001-3.909,1.92-6.479c-0.083-2.625-2.74-2.542-2.88-5.28c-0.122-2.383,1.979-3.254,1.92-5.76
		c-0.046-1.975-2.889-3.676-3.36-6c-0.397-1.962,0.383-3.471,0.24-5.76c-0.271-4.334-1.565-9.176-2.4-13.681
		c-2.068-11.156-4.621-22.213-8.88-31.44c-0.831-1.801-2.018-3.513-2.64-5.28c-0.53-1.507-0.388-2.838-0.96-4.08
		c-0.842-1.828-3.303-4.113-4.8-4.32c-2.346-0.324-3.997,1.712-5.76,0.24c-5.736,2.377-9.886,4.366-14.16,8.64
		c-1.25,1.25-2.538,3.26-3.84,3.6c-2.096,0.547-6.247-1.225-8.64-2.16c-8.374-3.274-14.734-8.191-20.64-13.2
		c-5.504-4.667-11.968-10.554-16.08-17.76c-1.268-2.222-3.057-5.964-2.88-8.16c0.091-1.131,2.046-3.825,3.36-6
		c3.529-5.839,7.425-12.213,10.32-17.76c8.452-16.195,14.533-34.013,23.52-50.88c6.661-12.501,12.204-22.227,26.64-26.4
		c4.128-1.193,8.655-1.359,12.96-2.64c1.475-0.439,2.583-1.667,4.32-2.16c1.423-0.404,3.136-0.269,4.56-0.72
		c2.12-0.671,3.36-2.751,4.8-3.12c1.158-0.297,3.381,0.508,4.56,0.24c1.599-0.364,2.669-2.018,4.32-2.4
		c1.208-0.279,2.545,0.208,3.84,0c3.954-0.637,8.261-3.127,12-4.8c1.797-0.804,3.839-1.682,5.76-2.64
		c1.911-0.954,3.807-2.5,5.52-2.88c0.799-0.177,1.949,0.152,2.88,0c2.543-0.416,4.68-2.385,6.24-2.4
		c1.477-0.013,3.73,1.695,5.52,2.4c13.206,5.206,29.11,7.2,45.84,7.2c20.882,0,38.974-3.233,53.041-10.32
		c7.165,2.269,13.449,5.52,20.399,8.64c3.659,1.643,7.609,3.741,11.76,4.56c1.298,0.256,2.768-0.066,4.08,0.24
		c1.545,0.36,2.514,1.969,4.32,2.4c1.268,0.303,3.083-0.532,4.56-0.24c1.673,0.331,3.187,2.58,4.801,3.12
		c1.304,0.437,2.885,0.352,4.319,0.72c1.819,0.467,3.069,1.951,4.561,2.4c2.207,0.666,4.742,0.506,6.96,0.96
		c6.086,1.245,12.345,2.946,16.8,6.24c10.965,8.109,18.167,25.963,24,39.12c4.95,11.166,9.395,22.033,14.64,32.64
		c1.71,3.457,4.107,6.283,6,9.6c1.202,2.105,2.205,4.83,3.84,7.68c1.286,2.24,4.117,5.455,4.32,7.2
		c0.493,4.238-4.853,11.523-7.439,14.64c-6.735,8.115-14.748,14.945-24.24,20.64c-1.982,1.189-4.453,2.635-7.44,3.84
		c-2.527,1.02-6.666,2.562-8.88,2.16c-2.752-0.5-5.788-5.439-8.16-7.2c-3.468-2.576-6.396-3.084-10.08-5.04
		c-1.142-0.183-1.251,0.54-2.399,0.48c-1.107-0.058-1.856-0.846-3.12-0.72c-0.989,0.098-3.653,1.863-4.561,3.6
		c-0.66,1.266-0.588,3.316-1.199,5.04c-0.611,1.721-2.023,3.377-2.88,5.28c-4.015,8.915-6.639,19.985-8.641,31.44
		c-0.801,4.585-2.16,9.406-2.399,13.44c-0.143,2.396,0.459,4.4,0.239,6c-0.314,2.295-2.421,4.869-2.399,6.72
		c0.02,1.76,1.484,3.521,1.439,4.8c-0.09,2.57-2.609,2.621-2.88,4.8c-0.33,2.662,2.162,4.465,2.16,6.72
		c-0.002,2.253-1.61,3.188-1.92,5.04c-0.762,4.565,0.53,11.051,1.2,15.841c4.141,29.616,18.807,48.068,25.2,76.08
		c0.477,2.091,0.962,4.511,1.439,6.96c0.459,2.355,1.396,5.769,1.2,7.199c-0.41,2.996-6.544,7.24-9.84,9.36
		c-18.762,12.064-50.649,14.705-78.24,16.08c-33.141,1.65-70.336,1.605-102.72-3.12C121.949,393.243,101.124,388.923,90.34,373.846z
		"/>
</g>
</svg>
