<?xml version="1.0" encoding="UTF-8" standalone="no"?>
<!-- Created with Inkscape (http://www.inkscape.org/) -->

<svg
   xmlns:dc="http://purl.org/dc/elements/1.1/"
   xmlns:cc="http://creativecommons.org/ns#"
   xmlns:rdf="http://www.w3.org/1999/02/22-rdf-syntax-ns#"
   xmlns:svg="http://www.w3.org/2000/svg"
   xmlns="http://www.w3.org/2000/svg"
   xmlns:sodipodi="http://sodipodi.sourceforge.net/DTD/sodipodi-0.dtd"
   xmlns:inkscape="http://www.inkscape.org/namespaces/inkscape"
   id="svg3035"
   version="1.1"
   inkscape:version="0.48.2 r9819"
   width="425"
   height="425"
   sodipodi:docname="Bel_1001_red_front.png">
  <metadata
     id="metadata3041">
    <rdf:RDF>
      <cc:Work
         rdf:about="">
        <dc:format>image/svg+xml</dc:format>
        <dc:type
           rdf:resource="http://purl.org/dc/dcmitype/StillImage" />
        <dc:title></dc:title>
      </cc:Work>
    </rdf:RDF>
  </metadata>
  <defs
     id="defs3039" />
  <sodipodi:namedview
     pagecolor="#ffffff"
     bordercolor="#666666"
     borderopacity="1"
     objecttolerance="10"
     gridtolerance="10"
     guidetolerance="10"
     inkscape:pageopacity="0"
     inkscape:pageshadow="2"
     inkscape:window-width="1700"
     inkscape:window-height="995"
     id="namedview3037"
     showgrid="false"
     showguides="true"
     inkscape:guide-bbox="true"
     inkscape:zoom="0.55529412"
     inkscape:cx="-310.64619"
     inkscape:cy="212.5"
     inkscape:window-x="0"
     inkscape:window-y="0"
     inkscape:window-maximized="0"
     inkscape:current-layer="svg3035">
    <sodipodi:guide
       orientation="0,1"
       position="430.40254,403.38983"
       id="guide3047" />
    <sodipodi:guide
       orientation="0,1"
       position="394.38559,25.211864"
       id="guide3049" />
  </sodipodi:namedview>
  <path
     style="fill:#ff5555"
     d="m 181,400.42026 c -2.475,-0.20245 -10.575,-0.86607 -18,-1.4747 -35.001,-2.86908 -59.39632,-10.00056 -68.435355,-20.00569 -3.586882,-3.97025 -3.700437,-4.31883 -3.023839,-9.28251 1.277271,-9.37035 7.434765,-29.94831 13.063494,-43.65736 8.65742,-21.0856 12.3544,-32.56253 14.46444,-44.90344 1.57034,-9.18439 1.72447,-12.02642 0.79209,-14.60488 -0.8209,-2.27017 -0.85849,-4.05965 -0.1292,-6.15169 0.78063,-2.2393 0.67867,-3.61786 -0.42308,-5.72063 -1.12782,-2.15252 -1.21125,-3.45972 -0.37407,-5.86126 0.85064,-2.44014 0.76042,-3.57479 -0.42849,-5.38931 -0.8283,-1.26413 -1.50599,-3.59437 -1.50599,-5.1783 0,-1.58393 -1.50509,-10.48726 -3.34465,-19.78518 -3.4231,-17.30187 -10.10374,-36.8537 -13.884239,-40.6342 -3.907773,-3.90777 -13.746102,-1.06621 -22.262097,6.42987 -4.040697,3.55676 -4.955432,3.93785 -8.055942,3.35619 C 61.058107,185.98227 43.17582,173.808 34.480924,163.74813 30.091538,158.66967 25.022461,150.15434 25.009384,147.83728 25.004184,146.92279 26.4625,143.88807 28.25,141.09345 37.293828,126.95414 42.162078,117.27423 52.003869,93.86184 57.415572,80.98807 66.441324,63.9419 70.758807,58.44098 76.485103,51.14509 82.475603,47.46044 91.885899,45.4461 100.63558,43.57316 112.05664,40.074991 113.45,38.841204 113.9725,38.378542 115.45735,38 116.74966,38 c 1.29231,0 3.56481,-0.611519 5.05,-1.358931 1.48519,-0.747411 4.38892,-1.619295 6.45274,-1.937519 2.06382,-0.318223 7.91382,-2.540735 13,-4.938915 5.08618,-2.398181 11.81054,-4.967277 14.94302,-5.709104 5.26834,-1.247634 6.05898,-1.192379 10.54359,0.736846 10.69806,4.602184 24.31402,6.605196 45.26099,6.658242 21.76749,0.05512 31.34096,-1.350847 45.2489,-6.645302 l 7.7489,-2.949839 5.2511,1.992363 c 2.8881,1.0958 8.69937,3.598817 12.91391,5.562261 4.21455,1.963443 10.14504,4.216434 13.17888,5.006647 3.03383,0.790213 6.41848,1.919713 7.52144,2.510001 1.10296,0.590287 3.1235,1.07325 4.49009,1.07325 1.36659,0 3.75867,0.625059 5.31574,1.389021 4.28305,2.101436 9.09975,3.611592 16.83104,5.276949 19.81122,4.26744 25.4955,10.89124 42.94035,50.03768 12.09004,27.1302 14.83257,32.51011 24.22682,47.52491 1.28305,2.05071 2.33283,4.55218 2.33283,5.55883 0,2.69934 -6.50136,13.0708 -11.31102,18.04419 -9.88672,10.22328 -25.20054,20.29849 -33.01772,21.72289 -3.47111,0.63249 -4.17165,0.36526 -7.5,-2.86096 -7.56447,-7.33235 -18.95535,-10.86354 -22.39831,-6.94351 -2.042,2.32495 -8.07235,16.28239 -10.18355,23.57014 -6.89445,23.79925 -11.44011,69.73488 -8.51395,86.03669 1.83281,10.21068 5.83729,22.57546 11.906,36.76263 C 327.28067,343.52099 334,365.76182 334,373.83048 c 0,2.50558 -7.53436,9.39492 -13.65979,12.49038 -11.28265,5.70164 -31.87344,10.2681 -57.34021,12.71647 -11.19887,1.07666 -73.00175,2.11896 -82,1.38293 z"
     id="path3045"
     inkscape:connector-curvature="0" />
</svg>
