<?xml version="1.0" encoding="UTF-8" standalone="no"?>
<!-- Created with Inkscape (http://www.inkscape.org/) -->

<svg
   xmlns:dc="http://purl.org/dc/elements/1.1/"
   xmlns:cc="http://creativecommons.org/ns#"
   xmlns:rdf="http://www.w3.org/1999/02/22-rdf-syntax-ns#"
   xmlns:svg="http://www.w3.org/2000/svg"
   xmlns="http://www.w3.org/2000/svg"
   xmlns:sodipodi="http://sodipodi.sourceforge.net/DTD/sodipodi-0.dtd"
   xmlns:inkscape="http://www.inkscape.org/namespaces/inkscape"
   id="svg2999"
   version="1.1"
   inkscape:version="0.48.2 r9819"
   width="425"
   height="425"
   sodipodi:docname="lslongsleevegirly.svg">
  <metadata
     id="metadata3005">
    <rdf:RDF>
      <cc:Work
         rdf:about="">
        <dc:format>image/svg+xml</dc:format>
        <dc:type
           rdf:resource="http://purl.org/dc/dcmitype/StillImage" />
        <dc:title></dc:title>
      </cc:Work>
    </rdf:RDF>
  </metadata>
  <defs
     id="defs3003" />
  <sodipodi:namedview
     pagecolor="#ffffff"
     bordercolor="#666666"
     borderopacity="1"
     objecttolerance="10"
     gridtolerance="10"
     guidetolerance="10"
     inkscape:pageopacity="0"
     inkscape:pageshadow="2"
     inkscape:window-width="1920"
     inkscape:window-height="1018"
     id="namedview3001"
     showgrid="false"
     inkscape:zoom="1.1105882"
     inkscape:cx="-58.049384"
     inkscape:cy="157.45032"
     inkscape:window-x="-8"
     inkscape:window-y="-8"
     inkscape:window-maximized="1"
     inkscape:current-layer="svg2999"
     showguides="true"
     inkscape:guide-bbox="true" />
  <path
     inkscape:connector-curvature="0"
     id="path3033"
     d="m 233.45478,425.21889 c -0.20771,-0.20771 -14.99664,-0.87285 -32.8643,-1.4781 -36.8823,-1.24935 -57.70573,-2.57147 -64.94158,-4.12328 -7.49542,-1.60748 -11.09748,-4.51378 -14.76893,-11.91625 -4.68734,-9.45073 -5.537,-16.71759 -3.79655,-32.47063 5.00047,-45.25991 6.00828,-57.96177 7.61937,-96.02937 1.00776,-23.81159 0.72603,-63.65812 -0.54087,-76.5 -0.24417,-2.475 -1.16802,-12.6 -2.05299,-22.5 -1.8426,-20.6127 -4.88274,-40.04516 -6.586,-42.09746 -1.9843,-2.39093 -4.33327,-1.57517 -8.91911,3.09746 -6.95926,7.09097 -11.81219,6.16829 -26.5,-5.03841 -8.13256,-6.20508 -32.83917,-28.08613 -33.341033,-29.52799 -0.187568,-0.53889 1.927005,-5.5819 4.69905,-11.206696 2.772046,-5.62479 7.313596,-16.0769 10.092334,-23.2269 7.030932,-18.09136 9.539724,-22.74934 15.007457,-27.86377 6.224772,-5.82254 9.15531,-7.22648 30.445812,-14.58574 16.51239,-5.70767 44.06591,-17.60004 47.59639,-20.54308 4.44471,-3.7051499 5.69785,-3.7157699 12.74199,-0.10804 11.97701,6.13413 16.79779,7.10266 35.258,7.08357 12.86409,-0.0133 17.93233,-0.4179 23,-1.83612 6.59857,-1.84665 20.17549,-8.2160799 25.32915,-11.8828299 3.30572,-2.35197 4.34257,-1.99006 12.17085,4.24823 11.41912,9.0997899 23.72786,13.6955499 45.61169,17.0301899 21.10113,3.21538 24.91338,4.40983 32.61032,10.21744 6.3989,4.82819 10.28582,10.54434 14.36797,21.1297 1.71679,4.45177 4.24818,10.34781 5.62531,13.10229 2.16516,4.33066 13.08491,22.60652 16.58538,27.75816 0.80939,1.19117 0.87141,2.216466 0.19422,3.210776 -1.50167,2.20489 -39.08504,26.39583 -46.30497,29.80468 -5.62077,2.65383 -6.95852,2.90591 -12.24622,2.30768 -5.4115,-0.61224 -6.1496,-0.45815 -8.3512,1.74346 -2.79824,2.79823 -2.99131,4.16907 -4.60319,32.6834 -0.71822,12.70532 -2.20525,25.94623 -4.26762,38 -2.91375,17.02974 -3.16489,20.28815 -3.16005,41 l 0.005,22.5 5.17464,26 c 9.65706,48.522 12.28857,65.32378 14.31197,91.37982 1.33409,17.17956 0.86326,24.44821 -1.77263,27.36541 -5.1749,5.72721 -20.04113,9.98645 -42.35365,12.13452 -13.27173,1.2777 -40.19074,2.0234 -41.07626,1.13788 z"
     style="fill:#ff6600" />
</svg>
