<?xml version="1.0" encoding="UTF-8" standalone="no"?>
<!-- Created with Inkscape (http://www.inkscape.org/) -->

<svg
   xmlns:dc="http://purl.org/dc/elements/1.1/"
   xmlns:cc="http://creativecommons.org/ns#"
   xmlns:rdf="http://www.w3.org/1999/02/22-rdf-syntax-ns#"
   xmlns:svg="http://www.w3.org/2000/svg"
   xmlns="http://www.w3.org/2000/svg"
   xmlns:sodipodi="http://sodipodi.sourceforge.net/DTD/sodipodi-0.dtd"
   xmlns:inkscape="http://www.inkscape.org/namespaces/inkscape"
   id="svg2999"
   version="1.1"
   inkscape:version="0.48.2 r9819"
   width="425"
   height="425"
   sodipodi:docname="vneckmen.svg">
  <metadata
     id="metadata3005">
    <rdf:RDF>
      <cc:Work
         rdf:about="">
        <dc:format>image/svg+xml</dc:format>
        <dc:type
           rdf:resource="http://purl.org/dc/dcmitype/StillImage" />
        <dc:title></dc:title>
      </cc:Work>
    </rdf:RDF>
  </metadata>
  <defs
     id="defs3003" />
  <sodipodi:namedview
     pagecolor="#ffffff"
     bordercolor="#666666"
     borderopacity="1"
     objecttolerance="10"
     gridtolerance="10"
     guidetolerance="10"
     inkscape:pageopacity="0"
     inkscape:pageshadow="2"
     inkscape:window-width="1920"
     inkscape:window-height="1018"
     id="namedview3001"
     showgrid="false"
     inkscape:zoom="0.78530445"
     inkscape:cx="247.40548"
     inkscape:cy="221.34856"
     inkscape:window-x="-8"
     inkscape:window-y="-8"
     inkscape:window-maximized="1"
     inkscape:current-layer="svg2999" />
  <path
     style="fill:#ff6600"
     d="m 184.15639,380.37024 c -1.925,-0.17921 -9.8,-0.81437 -17.5,-1.41148 -35.20669,-2.73013 -60.44548,-9.8881 -70.572406,-20.01503 -4.938559,-4.93855 -4.967481,-6.36582 -0.485018,-23.9346 3.444535,-13.50067 6.674424,-22.74487 14.497494,-41.49299 8.18762,-19.62175 13.27885,-42.48713 10.9155,-49.02286 -0.95112,-2.63028 -0.95689,-3.95934 -0.0261,-6.00226 0.98793,-2.16827 0.90085,-3.1228 -0.50148,-5.49675 -1.39525,-2.36197 -1.4867,-3.33444 -0.51425,-5.46872 0.97948,-2.14972 0.86335,-3.233 -0.67561,-6.30265 -1.0221,-2.03872 -2.11276,-6.85676 -2.42367,-10.70676 -1.18858,-14.71793 -5.63893,-32.00331 -12.22684,-47.48958 -3.37501,-7.9337 -4.762288,-9.09063 -9.98764,-8.32924 -6.103179,0.88929 -9.952178,2.77266 -14.801444,7.24256 -5.57162,5.13574 -8.814387,5.27104 -17.804053,0.74282 -13.209468,-6.65379 -29.277058,-21.61735 -34.353318,-31.99285 l -2.7263,-5.57235 3.75973,-6.30068 c 2.06784,-3.46537 4.76165,-7.90624 5.98623,-9.86858 3.58439,-5.74383 7.8318,-14.5245 15.98926,-33.054517 C 61.673445,50.981804 67.701869,39.859231 74.023146,32.873994 80.210365,26.036896 84.488305,23.7961 96.65639,21.018647 c 10.73837,-2.45111 18.28342,-4.843048 19.01606,-6.028487 0.33109,-0.535709 1.90424,-0.974017 3.4959,-0.974017 1.59167,0 3.92761,-0.398414 5.19099,-0.885364 1.26338,-0.48695 4.99705,-1.659661 8.29705,-2.606023 3.3,-0.946363 9.95919,-3.548292 14.7982,-5.782065 l 8.7982,-4.0614061 5.44325,1.715834 c 11.75543,3.7055731 20.05963,4.7296211 43.00614,5.3033831 30.40167,0.760174 48.32552,-0.802085 65.5831,-5.7162821 4.59302,-1.307887 4.71704,-1.278373 16,3.8077121 11.07277,4.99133 16.7028,6.861901 23.87111,7.93114 1.925,0.287136 4.175,1.08116 5,1.764497 1.51567,1.255413 2.88352,1.671475 19.97284,6.075221 19.83807,5.112071 24.63121,11.11803 44.11879,55.282219 9.42639,21.362761 13.60712,29.490011 21.55673,41.905751 1.8434,2.87903 3.35164,5.74104 3.35164,6.36002 0,2.93268 -6.73771,13.2074 -12.6621,19.30917 -11.86377,12.21898 -26.79744,21.59372 -34.40081,21.5954 -2.68175,5.9e-4 -4.28929,-0.76321 -6.5,-3.08842 -6.53973,-6.87845 -17.4196,-10.47737 -21.3624,-7.06641 -1.80344,1.56017 -4.78642,8.03555 -9.12481,19.80786 -3.35518,9.10437 -8.57494,37.72237 -9.36554,51.34776 -0.14361,2.475 -0.4196,4.95 -0.61331,5.5 -0.4276,1.21409 -0.92155,11.79798 -0.93341,20 -0.005,3.3 0.91776,10.95 2.05007,17 1.96318,10.48948 3.41814,14.67879 15.42137,44.40325 5.08376,12.58928 10.49094,32.15862 10.49094,37.96816 0,2.91724 -0.71242,4.41094 -3.25,6.81411 -12.36675,11.71169 -34.1055,17.39605 -79.68179,20.8356 -17.00606,1.28341 -59.76894,1.79178 -70.06821,0.83298 z"
     id="path4102"
     inkscape:connector-curvature="0" />
</svg>
