<?xml version="1.0" encoding="UTF-8" standalone="no"?>
<!-- Created with Inkscape (http://www.inkscape.org/) -->

<svg
   xmlns:dc="http://purl.org/dc/elements/1.1/"
   xmlns:cc="http://creativecommons.org/ns#"
   xmlns:rdf="http://www.w3.org/1999/02/22-rdf-syntax-ns#"
   xmlns:svg="http://www.w3.org/2000/svg"
   xmlns="http://www.w3.org/2000/svg"
   xmlns:sodipodi="http://sodipodi.sourceforge.net/DTD/sodipodi-0.dtd"
   xmlns:inkscape="http://www.inkscape.org/namespaces/inkscape"
   id="svg2999"
   version="1.1"
   inkscape:version="0.48.2 r9819"
   width="425"
   height="425"
   sodipodi:docname="hooded.svg">
  <metadata
     id="metadata3005">
    <rdf:RDF>
      <cc:Work
         rdf:about="">
        <dc:format>image/svg+xml</dc:format>
        <dc:type
           rdf:resource="http://purl.org/dc/dcmitype/StillImage" />
        <dc:title></dc:title>
      </cc:Work>
    </rdf:RDF>
  </metadata>
  <defs
     id="defs3003" />
  <sodipodi:namedview
     pagecolor="#ffffff"
     bordercolor="#666666"
     borderopacity="1"
     objecttolerance="10"
     gridtolerance="10"
     guidetolerance="10"
     inkscape:pageopacity="0"
     inkscape:pageshadow="2"
     inkscape:window-width="1920"
     inkscape:window-height="1018"
     id="namedview3001"
     showgrid="false"
     inkscape:zoom="0.78530445"
     inkscape:cx="247.40548"
     inkscape:cy="221.34856"
     inkscape:window-x="-8"
     inkscape:window-y="-8"
     inkscape:window-maximized="1"
     inkscape:current-layer="svg2999" />
  <path
     style="fill:#008000"
     d="m 174.50955,383.47652 c -27.82212,-1.58318 -52.70495,-5.56459 -67.10546,-10.73729 -7.802784,-2.80278 -17.521105,-8.76502 -17.521105,-10.74928 0,-2.3217 10.987465,-79.72357 13.204595,-93.02059 2.7749,-16.64217 3.6618,-42.96336 2.34184,-69.5 -0.60767,-12.2164 -1.20072,-15.9643 -3.7657,-23.79779 -3.436374,-10.49471 -6.405819,-15.5649 -9.368323,-15.99598 -2.32473,-0.33827 -7.066368,6.28813 -10.622218,14.84444 l -2.15638,5.18884 -7.06691,-0.47312 c -9.08833,-0.60846 -25.87211,-6.22586 -38.79753,-12.98525 -10.11647,-5.29044 -17.76937,-10.97605 -17.76937,-13.20149 0,-2.51479 25.33271,-60.529475 34.53095,-79.079654 9.92233,-20.010455 17.28243,-31.024592 23.46679,-35.117202 2.04824,-1.355466 7.49917,-3.98529 12.11317,-5.844054 4.613997,-1.858764 11.764087,-4.795003 15.889091,-6.524974 4.125,-1.729972 13.35,-4.649785 20.5,-6.488474 15.39044,-3.957793 18.74052,-5.299192 24.81542,-9.936267 2.51691,-1.9211989 6.36598,-4.4061699 8.5535,-5.5221579 3.68165,-1.878238 4.24389,-1.917682 7.56359,-0.530622 7.9763,3.332711 17.23993,4.583554 38.06749,5.140154 24.68993,0.659819 41.73862,-0.646509 53.62042,-4.108578 l 8.37958,-2.441605 6.48982,3.549788 c 3.56939,1.952384 7.72488,4.5890259 9.2344,5.8592049 3.65549,3.075891 11.79588,6.031972 23.5909,8.566741 5.32668,1.144713 11.03488,2.644281 12.68488,3.332373 9.51994,3.970057 14.81448,6.128054 21.68383,8.838097 20.19364,7.966629 27.53275,19.428397 57.45369,89.72758 4.09662,9.625 8.55407,20.03127 9.90544,23.12505 1.35137,3.09377 2.45704,6.268 2.45704,7.05383 0,7.4774 -41.95621,26.82112 -58.17458,26.82112 l -4.95085,0 -3.01646,-6.65265 c -3.1984,-7.05393 -7.64649,-13.34727 -9.4338,-13.34732 -2.41298,-7e-5 -5.53365,5.07995 -8.91924,14.51927 -3.26191,9.09452 -3.63037,11.22375 -4.14981,23.9807 -0.31353,7.7 -0.53786,18.275 -0.49851,23.5 0.0394,5.225 0.0873,14.4153 0.10663,20.42289 0.0193,6.00759 0.69677,14.78259 1.50549,19.5 0.80872,4.71741 3.05778,20.05211 4.99791,34.07711 1.94012,14.025 4.92249,34.93501 6.62748,46.46669 l 3.09999,20.96669 -2.84712,2.37912 c -9.52684,7.96083 -30.62445,13.54278 -63.32515,16.75439 -17.74271,1.74255 -73.08509,2.596 -93.39542,1.44027 z"
     id="path4067"
     inkscape:connector-curvature="0" />
</svg>
