<?xml version="1.0" encoding="UTF-8" standalone="no"?>
<!-- Created with Inkscape (http://www.inkscape.org/) -->

<svg
   xmlns:dc="http://purl.org/dc/elements/1.1/"
   xmlns:cc="http://creativecommons.org/ns#"
   xmlns:rdf="http://www.w3.org/1999/02/22-rdf-syntax-ns#"
   xmlns:svg="http://www.w3.org/2000/svg"
   xmlns="http://www.w3.org/2000/svg"
   xmlns:sodipodi="http://sodipodi.sourceforge.net/DTD/sodipodi-0.dtd"
   xmlns:inkscape="http://www.inkscape.org/namespaces/inkscape"
   id="svg2999"
   version="1.1"
   inkscape:version="0.48.2 r9819"
   width="425"
   height="425"
   sodipodi:docname="fit-t-new.svg">
  <metadata
     id="metadata3005">
    <rdf:RDF>
      <cc:Work
         rdf:about="">
        <dc:format>image/svg+xml</dc:format>
        <dc:type
           rdf:resource="http://purl.org/dc/dcmitype/StillImage" />
        <dc:title></dc:title>
      </cc:Work>
    </rdf:RDF>
  </metadata>
  <defs
     id="defs3003" />
  <sodipodi:namedview
     pagecolor="#ffffff"
     bordercolor="#666666"
     borderopacity="1"
     objecttolerance="10"
     gridtolerance="10"
     guidetolerance="10"
     inkscape:pageopacity="0"
     inkscape:pageshadow="2"
     inkscape:window-width="1920"
     inkscape:window-height="1018"
     id="namedview3001"
     showgrid="false"
     inkscape:zoom="8.8847056"
     inkscape:cx="365.61098"
     inkscape:cy="283.75966"
     inkscape:window-x="-8"
     inkscape:window-y="-8"
     inkscape:window-maximized="1"
     inkscape:current-layer="svg2999"
     showguides="true"
     inkscape:guide-bbox="true" />
  <path
     inkscape:connector-curvature="0"
     id="path3162"
     d="m 137.41942,424.22022 c -17.67939,-0.45088 -19.15864,-0.63343 -20.96102,-2.58666 -1.93696,-2.09907 -1.93773,-2.14039 -0.65509,-35.32096 2.4074,-62.27707 1.21647,-187.88467 -1.9764,-208.45155 -1.95275,-12.57858 -7.73811,-20.7645 -14.67523,-20.7645 -3.705319,0 -24.790583,7.02454 -34.754114,11.5783 l -7.764434,3.5487 -2.630031,-2.0295 c -1.446524,-1.11621 -6.7496,-3.96835 -11.784628,-6.33807 -5.035029,-2.36973 -11.888527,-6.30812 -15.229996,-8.75199 -7.64904,-5.59434 -24.3015938,-23.24922 -24.3015938,-25.76433 0,-1.07114 3.9016301,-5.87187 9.0377538,-11.1204 8.975615,-9.17207 49.340937,-52.018645 62.509457,-66.351907 3.781757,-4.116258 8.676119,-8.357527 10.876348,-9.425042 2.200229,-1.067516 4.68525,-2.612574 5.522261,-3.433462 0.837021,-0.820887 8.625772,-3.075116 17.308337,-5.009396 25.78632,-5.744613 29.84868,-7.121124 46.63081,-15.80063 8.73922,-4.519818 16.61985,-8.618596 17.5125,-9.108396 0.89265,-0.489799 2.20812,-0.890546 2.92326,-0.890546 0.71513,0 1.82792,-0.6890149 2.47284,-1.5311459 2.44037,-3.1865579 9.02273,-5.2939259 19.2276,-6.1557946 11.31292,-0.6462276 24.11332,0.5855461 33.63581,0.5854759 2.09105,0.00608 6.928,0.9120326 10.74879,2.0131134 3.82076,1.1010807 7.95409,2.012693 9.18515,2.0258051 2.36848,0.025231 24.87638,10.5844831 31.70994,14.8762641 2.22122,1.395025 6.84787,3.599587 10.28144,4.899029 3.43359,1.299441 8.34589,3.281077 10.91626,4.403634 5.43941,2.37557 19.33094,5.858151 26.41277,6.621636 5.88309,0.63425 17.41876,6.836174 25.4666,13.691604 3.07732,2.621368 9.6377,10.413928 15.00661,17.825177 12.25742,16.920107 27.07618,32.868391 38.07963,40.982111 4.78164,3.52589 10.17467,8.36903 11.98449,10.76254 2.02154,2.67349 3.85357,3.35743 4.62524,3.79681 0.6481,0.36902 1.91343,1.29272 0.39997,2.30639 -0.51407,0.3443 -0.93468,2.11538 -0.93468,1.59715 0,-0.51824 -3.54861,2.98736 -7.88581,7.79022 -4.3372,4.80285 -10.75142,11.12211 -14.25382,14.04277 -10.86362,9.05919 -36.20218,27.60135 -37.72366,27.60529 -1.82451,0.005 -7.96142,-6.85809 -8.78174,-9.82046 -0.79907,-2.88568 -13.50919,-15.74974 -17.68082,-17.89499 -4.20004,-2.15985 -7.62848,-2.06071 -12.55654,0.36311 -6.15609,3.0278 -7.69429,7.76901 -8.67944,26.75286 -1.29586,24.97104 -2.72862,91.88276 -2.72934,127.4641 -7e-4,33.43356 0.22648,37.36046 4.77728,82.5803 1.08055,10.73711 1.69506,21.07922 1.36558,22.98248 -0.71857,4.15088 -4.82393,8.20134 -9.69108,9.56145 -7.42227,2.07412 -27.61565,3.13759 -59.70399,3.14422 -35.80007,0.007 -80.92182,1.5641 -86.29673,2.97724 -54.07732,-1.22827 41.11528,-0.95085 -26.96654,-0.22805 z M 0.9651064,129.74818 c 0,-1.39275 0.2121532,-1.96249 0.4714418,-1.26613 0.2592885,0.69637 0.2592885,1.83589 0,2.53225 -0.2592886,0.69638 -0.4714418,0.12662 -0.4714418,-1.26612 z"
     style="fill:#fe7700"
     sodipodi:nodetypes="cssssscsssssssssssssccssssssssssssssscsssssssssccssss" />
</svg>
