<?xml version="1.0" encoding="UTF-8" standalone="no"?>
<!-- Created with Inkscape (http://www.inkscape.org/) -->

<svg
   xmlns:dc="http://purl.org/dc/elements/1.1/"
   xmlns:cc="http://creativecommons.org/ns#"
   xmlns:rdf="http://www.w3.org/1999/02/22-rdf-syntax-ns#"
   xmlns:svg="http://www.w3.org/2000/svg"
   xmlns="http://www.w3.org/2000/svg"
   xmlns:sodipodi="http://sodipodi.sourceforge.net/DTD/sodipodi-0.dtd"
   xmlns:inkscape="http://www.inkscape.org/namespaces/inkscape"
   id="svg2999"
   version="1.1"
   inkscape:version="0.48.2 r9819"
   width="425"
   height="425"
   sodipodi:docname="fit-t-new.svg">
  <metadata
     id="metadata3005">
    <rdf:RDF>
      <cc:Work
         rdf:about="">
        <dc:format>image/svg+xml</dc:format>
        <dc:type
           rdf:resource="http://purl.org/dc/dcmitype/StillImage" />
        <dc:title></dc:title>
      </cc:Work>
    </rdf:RDF>
  </metadata>
  <defs
     id="defs3003" />
  <sodipodi:namedview
     pagecolor="#ffffff"
     bordercolor="#666666"
     borderopacity="1"
     objecttolerance="10"
     gridtolerance="10"
     guidetolerance="10"
     inkscape:pageopacity="0"
     inkscape:pageshadow="2"
     inkscape:window-width="1920"
     inkscape:window-height="1018"
     id="namedview3001"
     showgrid="false"
     inkscape:zoom="1.1105882"
     inkscape:cx="-68.924125"
     inkscape:cy="233.88551"
     inkscape:window-x="-8"
     inkscape:window-y="-8"
     inkscape:window-maximized="1"
     inkscape:current-layer="svg2999"
     showguides="true"
     inkscape:guide-bbox="true" />
  <path
     inkscape:connector-curvature="0"
     id="path3162"
     d="m 136.26347,422.62046 c -17.52962,-0.44705 -18.99634,-0.62805 -20.78345,-2.56469 -1.92056,-2.08125 -1.92132,-2.12222 -0.64955,-35.02101 2.38701,-61.74821 1.20617,-186.28914 -1.95965,-206.68136 -1.93621,-12.47176 -7.67256,-20.58817 -14.550913,-20.58817 -3.67393,0 -24.580573,6.96489 -34.4597,11.47998 l -7.698659,3.51856 -2.607751,-2.01226 c -1.43427,-1.10673 -6.692421,-3.93465 -11.684796,-6.28425 -4.992375,-2.3496 -11.787815,-6.25455 -15.100977,-8.67767 -7.584242,-5.54683 -24.0957266,-23.05178 -24.0957266,-25.54553 0,-1.06205 3.868578,-5.82201 8.9611916,-11.02597 8.89958,-9.09418 48.922953,-51.576894 61.979917,-65.788436 3.749721,-4.081302 8.602621,-8.286554 10.784211,-9.345004 2.18159,-1.05845 4.64556,-2.590387 5.47548,-3.404304 0.82993,-0.813916 8.5527,-3.049002 17.161713,-4.966856 25.56787,-5.695829 29.59582,-7.060651 46.23578,-15.666449 8.66519,-4.481436 16.47906,-8.545406 17.36415,-9.031047 0.88509,-0.48564 2.18941,-0.882983 2.89849,-0.882983 0.70908,0 1.81244,-0.6831641 2.4519,-1.5181437 2.41969,-3.1594973 8.94629,-5.2489693 19.06471,-6.1035189 11.21709,-0.6407398 23.90905,0.5805736 33.35087,0.580504 2.07334,0.00603 6.86931,0.9042875 10.65773,1.9960178 3.7884,1.0917302 7.88671,1.995601 9.10734,2.0086017 2.34842,0.025017 24.66565,10.4945991 31.44132,14.7499331 2.2024,1.383179 6.78986,3.569019 10.19434,4.857426 3.4045,1.288406 8.27519,3.253214 10.82378,4.366238 5.39334,2.355396 19.16719,5.808403 26.18902,6.565404 5.83325,0.628864 17.2712,6.778121 25.25087,13.575334 3.05125,2.599107 9.55605,10.325492 14.87948,17.673804 12.15358,16.776419 26.84681,32.589269 37.75704,40.634089 4.74114,3.49595 10.08848,8.29796 11.88297,10.67114 2.00441,2.65079 3.77308,4.10264 4.58606,3.76457 1.5354,-0.63849 1.89722,3.17889 0.39658,4.18395 -0.50972,0.34138 -0.92676,0.20027 -0.92676,-0.31356 0,-0.51384 -3.51855,2.96199 -7.81901,7.72406 -4.30046,4.76207 -10.66034,11.02766 -14.13307,13.92352 -10.77159,8.98226 -35.8955,27.36696 -37.40409,27.37086 -1.80905,0.005 -7.89398,-6.79985 -8.70735,-9.73706 -0.7923,-2.86117 -13.39475,-15.61599 -17.53104,-17.74302 -4.16446,-2.14151 -7.56385,-2.04321 -12.45017,0.36002 -6.10394,3.00209 -7.6291,7.70304 -8.60591,26.52567 -1.28488,24.75899 -2.7055,91.10249 -2.70622,126.38167 -6.9e-4,33.14963 0.22456,37.04319 4.73681,81.87902 1.0714,10.64592 1.6807,20.90021 1.35401,22.78731 -0.71248,4.11563 -4.78306,8.13169 -9.60898,9.48025 -7.35939,2.05651 -27.38171,3.11094 -59.19822,3.11752 -35.49679,0.007 -80.2363,1.55082 -85.56568,2.95195 -53.61921,-1.21783 40.76698,-0.94277 -26.73809,-0.22611 z M 0.9651064,130.64911 c 0,-1.38092 0.210356,-1.94583 0.467448,-1.25538 0.257092,0.69046 0.257092,1.8203 0,2.51075 -0.257092,0.69046 -0.467448,0.12554 -0.467448,-1.25537 z"
     style="fill:#fe7700"
     sodipodi:nodetypes="cssssscsssssssssssssccssssssssssssssscsssssssssccssss" />
</svg>
