<?xml version="1.0" encoding="UTF-8" standalone="no"?>
<!-- Created with Inkscape (http://www.inkscape.org/) -->

<svg
   xmlns:dc="http://purl.org/dc/elements/1.1/"
   xmlns:cc="http://creativecommons.org/ns#"
   xmlns:rdf="http://www.w3.org/1999/02/22-rdf-syntax-ns#"
   xmlns:svg="http://www.w3.org/2000/svg"
   xmlns="http://www.w3.org/2000/svg"
   xmlns:sodipodi="http://sodipodi.sourceforge.net/DTD/sodipodi-0.dtd"
   xmlns:inkscape="http://www.inkscape.org/namespaces/inkscape"
   id="svg2999"
   version="1.1"
   inkscape:version="0.48.2 r9819"
   width="425"
   height="425"
   sodipodi:docname="han5500.svg">
  <metadata
     id="metadata3005">
    <rdf:RDF>
      <cc:Work
         rdf:about="">
        <dc:format>image/svg+xml</dc:format>
        <dc:type
           rdf:resource="http://purl.org/dc/dcmitype/StillImage" />
        <dc:title></dc:title>
      </cc:Work>
    </rdf:RDF>
  </metadata>
  <defs
     id="defs3003" />
  <sodipodi:namedview
     pagecolor="#ffffff"
     bordercolor="#666666"
     borderopacity="1"
     objecttolerance="10"
     gridtolerance="10"
     guidetolerance="10"
     inkscape:pageopacity="0"
     inkscape:pageshadow="2"
     inkscape:window-width="1920"
     inkscape:window-height="1018"
     id="namedview3001"
     showgrid="false"
     inkscape:zoom="1.1105882"
     inkscape:cx="259.05342"
     inkscape:cy="171.2464"
     inkscape:window-x="-8"
     inkscape:window-y="-8"
     inkscape:window-maximized="1"
     inkscape:current-layer="svg2999"
     showguides="true"
     inkscape:guide-bbox="true" />
  <path
     inkscape:connector-curvature="0"
     id="path3174"
     d="m 132.09281,423.19495 c -21.14765,-0.55446 -22.81351,-0.7328 -24.24283,-2.59537 -0.84413,-1.1 -1.82139,-3.05073 -2.17169,-4.33496 -0.35029,-1.28422 -0.042,-16.35922 0.68521,-33.5 2.44514,-57.63731 1.90035,-156.88855 -1.07149,-195.20831 -1.46137,-18.84327 -5.27155,-26.45673 -13.240381,-26.45673 -4.01613,0 -28.20683,7.47758 -37.62521,11.63031 -6.49708,2.86469 -8.50936,2.94466 -11.97634,0.47595 -1.46273,-1.04156 -7.20223,-3.89299 -12.75445,-6.33651 -12.72452,-5.60005 -23.0558897,-12.72021 -33.2088897,-22.88685 -8.5834603,-8.59499 -9.9268003,-11.51228 -8.1818703,-17.76831 1.2945,-4.64108 3.0445003,-6.73433 10.9959803,-13.15271 3.575,-2.88572 15.2855097,-14.070167 26.0233497,-24.854327 32.21757,-32.35654 47.62086,-47.10756 49.19059,-47.10756 0.81729,0 3.39288,-1.38134 5.72352,-3.06965 2.85348,-2.06705 6.2229,-3.38939 10.31604,-4.04857 10.610671,-1.7088 37.033661,-7.70776 42.858741,-9.73047 3.08674,-1.07184 10.96174,-4.6713 17.5,-7.9988 6.53827,-3.32751 14.36276,-7.0086301 17.38776,-8.1802801 3.025,-1.17165 6.175,-2.69559 7,-3.38655 3.00148,-2.51381 7.81184,-3.43684 23.79979,-4.56679999 17.67488,-1.24918001 36.3665,-0.31569 51.93242,2.59359999 7.80844,1.4594 23.96917,8.1462701 41.76779,17.2823701 3.3,1.6939 6.54967,3.08552 7.22149,3.09249 0.67181,0.007 3.77117,1.14026 6.88746,2.51843 6.40966,2.83465 22.9523,7.00054 31.78494,8.0043 6.98691,0.79402 21.07757,7.62623 29.92878,14.51173 3.25277,2.53038 10.19277,10.1191 15.95566,17.44713 13.07398,16.624731 29.11309,32.85008 38.97129,39.423827 10.68503,7.1251 14.56324,10.73091 16.90904,15.72139 1.79203,3.81239 1.86671,4.67369 0.6879,7.93365 -1.94421,5.37661 -19.16906,21.45729 -33.35302,31.13753 -6.59645,4.50192 -15.96554,10.91442 -20.8202,14.25 -4.85466,3.33557 -9.82157,6.06468 -11.03759,6.06468 -2.36941,0 -11.63575,-8.63598 -11.63575,-10.84421 0,-1.88085 -9.60438,-11.70527 -14.82117,-15.16073 -7.12558,-4.71979 -15.23912,-3.51768 -18.08806,2.67994 -0.71423,1.55375 -1.69381,8.9 -2.17685,16.325 -1.32392,20.3506 -2.98307,87.97935 -3.14024,128 -0.1448,36.87073 -0.19279,36.12463 5.35588,83.2569 1.14974,9.76629 1.79803,19.31554 1.44065,21.22056 -0.81315,4.33445 -4.70528,9.04064 -9.49966,11.48655 -6.38331,3.25652 -21.56212,4.07987 -93.07055,5.0485 -38.225,0.51778 -70.85,1.1072 -72.5,1.30982 -1.65,0.20262 -13.21862,0.10049 -25.70804,-0.22696 z"
     style="fill:#ff6600" />
</svg>
