<?xml version="1.0" encoding="UTF-8" standalone="no"?>
<!-- Created with Inkscape (http://www.inkscape.org/) -->

<svg
   xmlns:dc="http://purl.org/dc/elements/1.1/"
   xmlns:cc="http://creativecommons.org/ns#"
   xmlns:rdf="http://www.w3.org/1999/02/22-rdf-syntax-ns#"
   xmlns:svg="http://www.w3.org/2000/svg"
   xmlns="http://www.w3.org/2000/svg"
   xmlns:sodipodi="http://sodipodi.sourceforge.net/DTD/sodipodi-0.dtd"
   xmlns:inkscape="http://www.inkscape.org/namespaces/inkscape"
   width="210mm"
   height="297mm"
   id="svg3044"
   version="1.1"
   inkscape:version="0.48.0 r9654">
  <defs
     id="defs3046" />
  <sodipodi:namedview
     id="base"
     pagecolor="#ffffff"
     bordercolor="#666666"
     borderopacity="1.0"
     inkscape:pageopacity="0.0"
     inkscape:pageshadow="2"
     inkscape:zoom="0.7"
     inkscape:cx="375.33539"
     inkscape:cy="709.50747"
     inkscape:document-units="px"
     inkscape:current-layer="layer1"
     showgrid="false"
     inkscape:window-width="1600"
     inkscape:window-height="850"
     inkscape:window-x="-8"
     inkscape:window-y="-8"
     inkscape:window-maximized="1" />
  <metadata
     id="metadata3049">
    <rdf:RDF>
      <cc:Work
         rdf:about="">
        <dc:format>image/svg+xml</dc:format>
        <dc:type
           rdf:resource="http://purl.org/dc/dcmitype/StillImage" />
        <dc:title></dc:title>
      </cc:Work>
    </rdf:RDF>
  </metadata>
  <g
     inkscape:label="Laag 1"
     inkscape:groupmode="layer"
     id="layer1">
    <path
       style="fill:#ffff00"
       d="m 298.5,591.06417 c -36.52482,-3.12138 -44.66541,-4.21472 -59.33663,-7.96935 -8.93491,-2.28661 -18.86402,-6.65829 -22.94192,-10.10108 l -2.77855,-2.34581 6.9936,-49 c 3.84647,-26.95 7.40992,-51.18406 7.91877,-53.85346 0.52765,-2.76806 0.57197,-7.70155 0.10313,-11.48194 -0.59019,-4.75895 -0.4205,-8.35987 0.60163,-12.76721 1.1444,-4.93458 1.20559,-7.68434 0.3119,-14.01807 -0.61147,-4.33363 -1.21003,-13.05432 -1.33014,-19.37932 -0.20019,-10.54297 -0.52035,-12.28553 -3.84707,-20.93922 -4.26023,-11.08196 -6.41757,-13.81466 -9.57289,-12.12598 -1.167,0.62456 -2.12183,1.74659 -2.12183,2.49339 0,0.74681 -0.62611,1.59809 -1.39136,1.89175 -0.76525,0.29365 -2.67775,3.75539 -4.25,7.69276 L 204,396.31948 l -6.5,-0.63396 c -8.22786,-0.80248 -24.82905,-6.28282 -36.55993,-12.06906 -9.50395,-4.68782 -19.8717,-12.58832 -18.48862,-14.08883 0.44598,-0.48383 5.87144,-12.8047 12.05659,-27.3797 23.97185,-56.48854 35.65878,-77.12488 46.99196,-82.97666 1.925,-0.99396 7.20417,-3.23533 11.73149,-4.98082 4.52733,-1.74549 8.49138,-3.59412 8.80902,-4.10807 0.31764,-0.51395 1.27046,-0.93445 2.11738,-0.93445 0.84692,0 2.95786,-0.63488 4.69098,-1.41084 1.73312,-0.77597 7.65113,-2.86806 13.15113,-4.6491 13.26635,-4.29599 24.55422,-9.28185 32.5,-14.35528 9.97655,-6.3701 12.55773,-6.86007 20.65518,-3.92085 20.37768,7.3967 56.93478,6.67337 73.37679,-1.45185 3.22864,-1.59552 3.87729,-1.61516 7.55309,-0.22875 2.21162,0.83417 6.62936,3.25785 9.8172,5.38595 7.16873,4.78562 16.95076,9.0613 36.77332,16.07347 20.06577,7.0982 33.65678,12.75617 38.77043,16.14022 9.88974,6.54472 21.5593,27.74863 43.9823,79.91703 l 12.89459,30 -3.66145,3.34042 c -8.125,7.41261 -30.77131,17.61855 -45.84846,20.66237 -11.46229,2.31405 -12.05495,2.11744 -14.92247,-4.95031 -1.32716,-3.27114 -3.30796,-6.90014 -4.40177,-8.06445 -1.09381,-1.16431 -1.98875,-2.60228 -1.98875,-3.19549 0,-1.70015 -3.10567,-2.44973 -4.69268,-1.13263 -2.16733,1.79873 -4.13981,6.06808 -7.47801,16.18584 -2.53967,7.69751 -2.94738,10.26818 -2.56207,16.15425 0.25203,3.85 -0.19834,11.65775 -1.00082,17.35055 -1.30073,9.22743 -1.29063,11.02104 0.0931,16.52956 1.20929,4.81421 1.34352,7.6519 0.60774,12.84745 -0.5194,3.66764 -0.72754,7.25434 -0.46252,7.97044 0.26501,0.7161 3.85762,24.90039 7.98357,53.74286 l 7.50173,52.44087 -2.224,2.36734 c -3.11233,3.31292 -12.81828,7.74048 -22.26601,10.15707 -15.46674,3.95617 -22.66386,4.88225 -62.76889,8.07677 -14.63109,1.16542 -47.73214,1.12967 -61.73111,-0.0667 z"
       id="path3065"
       inkscape:connector-curvature="0" />
  </g>
</svg>
