<?xml version="1.0" encoding="UTF-8" standalone="no"?>
<!-- Created with Inkscape (http://www.inkscape.org/) -->

<svg
   xmlns:dc="http://purl.org/dc/elements/1.1/"
   xmlns:cc="http://creativecommons.org/ns#"
   xmlns:rdf="http://www.w3.org/1999/02/22-rdf-syntax-ns#"
   xmlns:svg="http://www.w3.org/2000/svg"
   xmlns="http://www.w3.org/2000/svg"
   xmlns:sodipodi="http://sodipodi.sourceforge.net/DTD/sodipodi-0.dtd"
   xmlns:inkscape="http://www.inkscape.org/namespaces/inkscape"
   id="svg2985"
   version="1.1"
   inkscape:version="0.48.0 r9654"
   width="450"
   height="450"
   sodipodi:docname="Nieuw document 2">
  <metadata
     id="metadata2991">
    <rdf:RDF>
      <cc:Work
         rdf:about="">
        <dc:format>image/svg+xml</dc:format>
        <dc:type
           rdf:resource="http://purl.org/dc/dcmitype/StillImage" />
        <dc:title></dc:title>
      </cc:Work>
    </rdf:RDF>
  </metadata>
  <defs
     id="defs2989" />
  <sodipodi:namedview
     pagecolor="#ffffff"
     bordercolor="#666666"
     borderopacity="1"
     objecttolerance="10"
     gridtolerance="10"
     guidetolerance="10"
     inkscape:pageopacity="0"
     inkscape:pageshadow="2"
     inkscape:window-width="1600"
     inkscape:window-height="850"
     id="namedview2987"
     showgrid="false"
     inkscape:zoom="0.68470588"
     inkscape:cx="212.5"
     inkscape:cy="212.5"
     inkscape:window-x="0"
     inkscape:window-y="0"
     inkscape:window-maximized="1"
     inkscape:current-layer="svg2985" />
  <path
     style="fill:#000000"
     d=""
     id="path3044"
     inkscape:connector-curvature="0" />
  <path
     style="fill:#000000"
     d=""
     id="path3042"
     inkscape:connector-curvature="0" />
  <path
     style="fill:#000000"
     d=""
     id="path3040"
     inkscape:connector-curvature="0" />
  <path
     style="fill:#000000"
     d=""
     id="path3038"
     inkscape:connector-curvature="0" />
  <path
     style="fill:#ff6600"
     d="m 180.59302,438.64411 c -43.29717,-2.8664 -73.12764,-10.66688 -85.933744,-22.47113 l -5.23275,-4.82339 0.766083,-6.13157 c 1.254017,-10.03676 8.051697,-33.1848 14.188211,-48.31491 10.13433,-24.98706 14.51903,-38.55094 16.81428,-52.01433 1.70981,-10.02938 1.94693,-13.71047 0.99745,-15.4846 -0.73569,-1.37465 -0.94587,-4.32614 -0.51342,-7.2099 0.44753,-2.98437 0.22158,-5.83654 -0.58123,-7.33661 -0.91719,-1.71378 -0.97996,-3.4107 -0.20804,-5.62499 0.81336,-2.33322 0.68671,-3.97778 -0.47942,-6.2255 -0.87163,-1.68006 -1.58477,-4.30904 -1.58477,-5.8422 0,-3.42108 -4.98928,-29.84713 -7.37643,-39.06981 -2.3256,-8.98487 -9.23315,-25.20897 -12.073184,-28.35683 -1.43097,-1.58608 -3.56574,-2.52276 -5.733859,-2.51588 -4.760145,0.0152 -14.075921,4.55292 -19.609001,9.55173 -4.148311,3.74775 -5.034074,4.08869 -8.827608,3.39785 -9.257913,-1.68593 -27.547667,-14.02815 -37.975604,-25.62652 -5.719222,-6.36116 -11.697021,-16.02182 -11.713718,-18.93044 -0.0058,-1.00967 1.533161,-4.29457 3.419906,-7.29978 8.87083,-14.12942 13.283203,-22.48594 20.378089,-38.59376 25.850876,-58.690296 31.044264,-65.298512 55.131395,-70.150759 4.81236,-0.96943 9.613374,-2.191535 10.668904,-2.715791 3.1288,-1.553985 9.50169,-3.662723 13.71111,-4.536897 2.16186,-0.448954 4.94139,-1.339834 6.17673,-1.97973 1.23535,-0.639897 4.14244,-1.454859 6.4602,-1.811025 2.31775,-0.356165 8.88755,-2.851148 14.59955,-5.544407 5.712,-2.69326 13.25723,-5.576901 16.76717,-6.408093 5.93175,-1.404698 6.80758,-1.338415 12.42136,0.940051 15.68692,6.366854 50.03163,9.723236 71.04034,6.94251 12.35642,-1.635504 25.25802,-4.830441 32.57368,-8.066511 6.3622,-2.814302 6.03016,-2.88936 25.88851,5.851997 6.82958,3.006287 14.15744,5.797714 16.28412,6.203172 2.12667,0.405457 5.23135,1.423074 6.89928,2.261368 1.66793,0.838296 4.28016,1.524174 5.80496,1.524174 1.5248,0 4.20309,0.701968 5.95174,1.55993 4.81005,2.360002 10.21941,4.055972 18.90198,5.926241 21.98386,4.735434 29.29112,13.15934 47.74601,55.042164 8.90911,20.218966 16.4435,35.695676 21.49838,44.160716 1.29094,2.16186 3.83902,6.42646 5.66238,9.47688 4.2072,7.03848 3.68045,10.51818 -2.93193,19.36844 -11.52244,15.42211 -31.31027,30.073 -43.7758,32.41154 -3.82674,0.7179 -4.62395,0.41225 -8.35346,-3.20284 -8.50143,-8.24056 -21.25575,-12.18912 -25.188,-7.79785 -1.89239,2.11329 -8.4215,17.50423 -11.31485,26.67226 -3.47215,11.00206 -8.61396,41.18993 -8.99038,52.78301 -0.10029,3.08837 -0.51757,6.12783 -0.92731,6.75434 -0.40974,0.62652 -0.60411,9.47048 -0.43194,19.65325 0.34807,20.5845 2.3747,30.30181 10.30029,49.38785 13.40703,32.28621 17.23621,43.68209 19.709,58.65541 1.27001,7.69029 1.26877,7.69731 -1.98883,11.16901 -13.00706,13.86197 -41.13067,21.26679 -93.10306,24.51364 -20.73748,1.29554 -65.46414,1.23229 -85.91277,-0.12148 z"
     id="path3061"
     inkscape:connector-curvature="0" />
</svg>
