<?xml version="1.0" encoding="UTF-8" standalone="no"?>
<!-- Created with Inkscape (http://www.inkscape.org/) -->

<svg
   xmlns:dc="http://purl.org/dc/elements/1.1/"
   xmlns:cc="http://creativecommons.org/ns#"
   xmlns:rdf="http://www.w3.org/1999/02/22-rdf-syntax-ns#"
   xmlns:svg="http://www.w3.org/2000/svg"
   xmlns="http://www.w3.org/2000/svg"
   xmlns:sodipodi="http://sodipodi.sourceforge.net/DTD/sodipodi-0.dtd"
   xmlns:inkscape="http://www.inkscape.org/namespaces/inkscape"
   width="425"
   height="425"
   id="svg3577"
   version="1.1"
   inkscape:version="0.48.2 r9819"
   sodipodi:docname="hoodie.svg" viewBox="0 0 425 425">
  <defs
     id="defs3579" />
  <sodipodi:namedview
     id="base"
     pagecolor="#ffffff"
     bordercolor="#666666"
     borderopacity="1.0"
     inkscape:pageopacity="0.0"
     inkscape:pageshadow="2"
     inkscape:zoom="0.7"
     inkscape:cx="180.15435"
     inkscape:cy="308.87776"
     inkscape:document-units="px"
     inkscape:current-layer="layer1"
     showgrid="false"
     inkscape:window-width="1920"
     inkscape:window-height="1018"
     inkscape:window-x="-8"
     inkscape:window-y="-8"
     inkscape:window-maximized="1" />
  <metadata
     id="metadata3582">
    <rdf:RDF>
      <cc:Work
         rdf:about="">
        <dc:format>image/svg+xml</dc:format>
        <dc:type
           rdf:resource="http://purl.org/dc/dcmitype/StillImage" />
        <dc:title></dc:title>
      </cc:Work>
    </rdf:RDF>
  </metadata>
  <g
     inkscape:label="Laag 1"
     inkscape:groupmode="layer"
     id="layer1"
     transform="translate(0,-627.36218)">
    <path
       style="fill:#ff2a2a"
       d="m 73.176742,1052.6636 c -0.374516,-0.5716 -0.762173,-2.7552 -1.113524,-6.2722 -0.70119,-7.019 -1.339159,-9.6874 -2.868555,-11.9984 -0.682861,-1.0317 -1.491065,-2.6679 -1.796012,-3.6361 -0.836621,-2.6558 -4.56795,-29.6234 -4.725951,-34.15613 -0.07601,-2.18061 -0.395444,-7.15541 -0.709848,-11.05512 -0.314404,-3.89968 -0.74096,-13.79891 -0.947904,-21.99828 -0.206943,-8.19936 -0.579458,-16.62598 -0.827811,-18.72582 -0.261152,-2.20807 -0.447231,-8.11076 -0.441307,-13.99892 0.0091,-8.98791 0.103536,-10.64976 0.80631,-14.18072 0.437837,-2.19984 0.962158,-5.30868 1.165159,-6.90857 0.727755,-5.73553 2.151622,-21.17755 2.374304,-25.74962 0.328937,-6.75372 2.354628,-18.15967 4.596759,-25.88275 1.290659,-4.4457 6.857903,-21.71561 7.853419,-24.36176 2.001751,-5.32076 8.084627,-17.68477 11.468312,-23.31039 1.937635,-3.22147 3.835001,-6.57575 4.216368,-7.45397 0.948756,-2.18484 4.926402,-7.68086 6.74328,-9.31741 0.819486,-0.73815 2.827649,-2.86684 4.462579,-4.73042 1.85453,-2.11389 4.24788,-4.31399 6.36314,-5.84935 1.8648,-1.35354 6.55887,-4.79438 10.43124,-7.64631 3.87237,-2.85191 9.46697,-6.80801 12.43244,-8.79131 2.96547,-1.98331 6.77687,-4.66284 8.46979,-5.95454 3.99374,-3.04722 6.3125,-4.21306 8.37943,-4.21306 1.90755,0 2.89683,-0.9667 3.4905,-3.41084 0.74168,-3.05347 2.6211,-6.13824 5.23245,-8.58823 1.38552,-1.2999 3.58072,-3.36073 4.87824,-4.57961 l 2.3591,-2.21617 -0.77964,-2.30864 c -0.4288,-1.26975 -0.77964,-3.1201 -0.77964,-4.1119 0,-1.14674 -0.31786,-2.47792 -0.87307,-3.65638 -0.98852,-2.09821 -1.02493,-2.31452 -3.52547,-20.94256 -2.32273,-17.30341 -2.42624,-19.13011 -1.45447,-25.66572 0.87286,-5.87036 3.04199,-14.93006 4.04571,-16.8975 0.37476,-0.73461 0.87599,-2.10845 1.11382,-3.05297 0.23784,-0.94454 1.03313,-2.48005 1.7673,-3.41225 0.73418,-0.9322 1.79343,-2.54064 2.35388,-3.5743 1.20718,-2.22644 4.4158,-6.24708 7.725,-9.67998 2.49896,-2.59237 3.73291,-3.33236 10.30019,-6.17693 6.94311,-3.00735 9.59494,-3.96141 13.4535,-4.84026 5.82272,-1.32623 7.6565,-1.20529 14.43548,0.952 3.15964,1.00549 6.73904,2.2926 7.95424,2.86023 1.53203,0.71563 3.09278,1.10955 5.09051,1.28483 6.88769,0.60427 9.5319,1.228 13.20538,3.11494 4.12778,2.12029 7.32379,4.5961 9.06245,7.02031 1.66261,2.31818 7.85725,20.03366 8.79815,25.16105 1.61886,8.82189 2.23235,15.63687 2.11116,23.45216 -0.1149,7.41055 -0.13028,7.53953 -1.06639,8.94121 -1.29832,1.94403 -2.30838,7.04531 -2.03668,10.28615 0.11331,1.35154 0.55637,3.42797 0.98456,4.61428 2.0803,5.76336 2.96142,11.14515 2.35801,14.40258 -0.23943,1.29255 -0.19591,1.36384 1.29737,2.12565 1.35559,0.69157 12.56211,11.57909 14.0155,13.61654 0.28139,0.39446 0.51322,1.21259 0.51517,1.81804 0.007,1.90046 1.60868,4.81997 2.97267,5.41556 0.6629,0.28948 2.72027,1.18411 4.57192,1.9881 2.10548,0.91418 5.17021,2.74254 8.18119,4.88072 2.64799,1.88041 8.57788,5.966 13.17752,9.0791 12.41357,8.40162 12.68068,8.62061 18.75372,15.3749 9.12421,10.14773 16.1213,17.67733 18.58046,19.99451 4.58861,4.32368 8.68884,11.84061 13.68755,25.09337 7.45671,19.76942 9.0618,27.62242 9.88347,48.3555 0.69367,17.50309 1.56244,26.99624 3.0713,33.56061 1.92751,8.3857 2.96105,18.89722 3.4751,35.34316 0.20316,6.4995 0.71104,17.62591 1.12863,24.72536 0.88794,15.096 0.89864,17.66018 0.12466,29.90243 -0.35599,5.6308 -0.48734,10.7526 -0.33941,13.2351 0.20639,3.4637 0.13274,4.4452 -0.50916,6.785 -0.52428,1.911 -0.86584,4.8 -1.13329,9.5857 -0.21056,3.7676 -0.47397,8.0311 -0.58537,9.4744 l -0.20254,2.6241 -2.96988,-0.062 c -1.63342,-0.035 -5.75147,0.076 -9.15121,0.2429 -6.69565,0.3301 -5.76414,0.4558 -14.30084,-1.9294 -2.06592,-0.5771 -3.92524,-1.2184 -4.13183,-1.425 -0.2101,-0.2101 -0.50607,-3.4741 -0.6716,-7.4065 -0.16278,-3.8671 -0.4893,-7.6813 -0.72558,-8.476 -0.23628,-0.7948 -1.13656,-2.2314 -2.00062,-3.1924 -1.56642,-1.7423 -2.47747,-3.8511 -2.86611,-6.6345 -0.1117,-0.7999 -0.45395,-5.7905 -0.76056,-11.09 -0.81166,-14.02959 -1.1562,-17.53845 -2.16004,-21.99835 -1.46122,-6.49191 -2.01689,-11.93935 -2.01689,-19.77227 0,-8.71127 0.90945,-34.1119 1.4953,-41.76329 0.50914,-6.64933 0.27988,-11.18996 -0.70547,-13.97293 -1.03306,-2.91766 -1.90902,-7.48141 -1.99176,-10.37699 -0.0693,-2.42419 -0.0323,-2.53186 1.83824,-5.34454 1.04992,-1.57879 1.90895,-3.05646 1.90895,-3.28372 0,-0.22726 -0.32725,-1.34428 -0.72722,-2.48227 -0.40687,-1.15761 -0.72721,-3.00115 -0.72721,-4.18497 0,-1.9632 -0.1041,-2.22754 -1.44212,-3.66245 -1.81675,-1.94829 -2.18561,-3.29462 -2.20735,-8.05691 -0.0243,-5.31862 -0.60305,-7.60594 -2.1537,-8.51157 -1.10806,-0.64714 -1.24046,-0.6559 -1.64069,-0.10855 -0.23946,0.32747 -1.14355,3.83266 -2.00911,7.78933 l -1.57372,7.19393 0.69552,21.8165 c 0.38666,12.1278 0.64847,27.22602 0.58956,33.99737 -0.26344,30.27978 -0.85098,57.56612 -1.43276,66.54038 -0.63821,9.8446 -0.79254,24.4829 -0.30281,28.725 0.22456,1.9452 0.14528,2.6856 -0.44803,4.1841 -0.39646,1.0013 -1.49192,4.5192 -2.43436,7.8175 -0.94243,3.2984 -1.75464,6.0412 -1.80492,6.0953 -0.0503,0.054 -2.20158,-0.2635 -4.78067,-0.7057 -4.43311,-0.7601 -5.80141,-0.8062 -25.0513,-0.8446 -18.22316,-0.036 -21.14505,-0.1237 -27.81603,-0.8334 -20.0138,-2.1287 -42.36631,-2.5304 -64.90409,-1.1664 -18.41519,1.1146 -25.83424,1.275 -33.18642,0.7173 -7.20729,-0.5466 -13.14793,-0.2384 -22.44565,1.1646 -5.23673,0.7902 -11.94087,1.0618 -13.75018,0.5571 -1.43247,-0.3997 -2.01877,-2.0432 -2.46652,-6.9144 -0.20584,-2.2395 -0.67765,-6.3625 -1.04845,-9.1623 -0.5553,-4.193 -0.64108,-6.5974 -0.48646,-13.6354 0.15563,-7.0837 0.028,-10.5965 -0.74626,-20.54387 -1.86338,-23.93916 -1.99887,-27.85009 -2.11616,-61.08619 l -0.11163,-31.63392 0.85547,-5.60265 c 0.96471,-6.31807 2.02513,-10.78032 3.63706,-15.30483 2.05217,-5.76019 3.26653,-16.20628 2.13582,-18.37265 -0.61262,-1.17372 -2.06866,-2.63128 -3.59407,-3.59778 -0.94311,-0.59755 -0.99591,-0.58489 -2.28644,0.54821 -0.72658,0.63794 -1.7529,1.91467 -2.28069,2.83717 -0.52779,0.9225 -1.80499,2.57919 -2.83823,3.68154 -1.03322,1.10234 -2.09044,2.65678 -2.34937,3.45428 -0.25893,0.79751 -1.11331,2.15338 -1.89861,3.01306 -1.75835,1.92489 -3.56022,5.63821 -3.56429,7.34535 -0.006,2.39374 -0.75326,5.89815 -1.62526,7.61897 -1.913572,3.77625 -2.663641,7.65498 -3.322124,17.17923 -0.6208,8.97921 -0.620767,8.98183 0.149111,11.63546 1.977662,6.81662 2.194958,12.86626 0.702648,19.56201 -0.512571,2.29983 -1.37393,6.61125 -1.914132,9.58094 -1.099057,6.04194 -1.003239,7.58467 0.697498,11.23003 0.867367,1.85911 2.042246,7.94112 2.042246,10.57209 0,0.71424 0.64766,3.80775 1.439243,6.87447 2.36861,9.17634 2.46663,10.13372 2.15126,21.01065 -0.15367,5.29953 -0.4325,10.45363 -0.61963,11.45363 -0.18714,0.9999 -0.36125,4.5996 -0.38691,7.9994 -0.0786,10.4095 -0.42211,12.357 -2.683689,15.2146 -0.60831,0.7686 -1.489223,2.4533 -1.95758,3.7435 -0.758742,2.0904 -0.851559,2.9753 -0.851559,8.1191 l 0,5.7729 -1.181728,0.3667 c -1.684401,0.5226 -3.945633,0.7502 -11.233234,1.1308 -4.312402,0.2252 -6.859817,0.5207 -7.77108,0.9014 -1.824663,0.7623 -2.241595,0.718 -2.915438,-0.3104 z M 165.77987,829.87794 c 0.69264,-1.29951 1.92324,-2.84977 2.95852,-3.72698 1.15607,-0.97955 2.14172,-2.27211 2.83388,-3.71625 0.7736,-1.61406 1.67764,-2.73504 3.33504,-4.13529 2.95332,-2.49513 5.29746,-5.74648 7.73074,-10.72261 2.4966,-5.10565 7.03247,-12.6589 9.84491,-16.39402 4.94514,-6.56749 7.43221,-10.35228 8.961,-13.63672 1.5934,-3.42322 1.61835,-3.53675 1.85316,-8.43264 l 0.238,-4.9627 -1.60923,-1.31865 c -2.15691,-1.76742 -3.69512,-1.69247 -4.72457,0.2302 -0.65717,1.22734 -0.66973,1.46372 -0.18357,3.45427 0.87641,3.58845 0.69243,5.00658 -1.18679,9.14838 -1.08988,2.40206 -2.30765,4.4174 -3.40553,5.63593 -0.93994,1.04324 -2.85859,3.61485 -4.26366,5.71469 -1.40507,2.09983 -3.25071,4.7287 -4.10143,5.84191 -2.54661,3.33239 -5.93718,9.21823 -7.37146,12.79648 -0.74072,1.84794 -2.04967,4.29087 -2.90877,5.42872 -0.89168,1.181 -1.77466,2.87498 -2.05754,3.94733 -0.55207,2.09278 -2.07124,4.50494 -3.37536,5.35943 -0.49039,0.32132 -1.85485,2.55364 -3.19254,5.22314 -2.72541,5.43885 -2.92081,6.49042 -1.20602,6.49042 0.41848,0 1.06213,-0.78206 1.83122,-2.22504 z m 72.05465,-11.3795 c 0.11981,-1.28296 0.0642,-2.86826 -0.12351,-3.52285 -0.26885,-0.93742 -0.2147,-1.33013 0.25496,-1.84909 0.51782,-0.57219 0.56674,-1.343 0.37175,-5.85745 -0.26228,-6.07296 -1.53693,-13.17078 -3.37249,-18.77954 -0.68369,-2.08909 -1.24307,-4.14726 -1.24307,-4.57369 0,-0.42644 -1.05069,-4.11676 -2.33488,-8.20072 -2.29331,-7.29322 -2.89577,-10.20286 -2.92351,-14.1194 -0.008,-1.13756 -0.18895,-2.02648 -0.42896,-2.10789 -0.22828,-0.0774 -1.40095,0.67971 -2.60595,1.68253 -2.18528,1.8186 -2.19158,1.82951 -2.45014,4.24397 -0.19315,1.80358 -0.10652,2.94212 0.33982,4.4661 0.32949,1.12496 1.48728,5.23606 2.57287,9.13576 1.0856,3.8997 2.31076,8.05936 2.72259,9.24371 0.97117,2.79295 2.75705,11.6703 3.45276,17.16324 0.61096,4.82382 1.02551,6.53328 1.99874,8.24212 0.36534,0.64149 0.77048,2.31171 0.90032,3.71161 0.24068,2.59509 0.74951,3.45427 2.04574,3.45427 0.47892,0 0.65057,-0.48652 0.82296,-2.33268 z M 215.01008,767.3807 c 0.0203,-4.55665 0.90421,-16.08176 1.28941,-16.81195 0.1832,-0.34725 0.33308,-1.42319 0.33308,-2.39097 0,-2.07844 -0.97502,-3.25587 -2.94763,-3.55952 -1.78136,-0.2742 -7.23166,0.42477 -7.80827,1.00137 -0.35791,0.35792 -0.55789,2.37314 -0.74065,7.46356 l -0.25035,6.97324 3.54268,5.31769 3.54268,5.31768 1.51265,-0.11021 1.51265,-0.11022 0.0137,-3.09067 z"
       id="path3616"
       inkscape:connector-curvature="0" />
  </g>
</svg>
