<?xml version="1.0" encoding="UTF-8" standalone="no"?>
<!-- Created with Inkscape (http://www.inkscape.org/) -->

<svg
   xmlns:dc="http://purl.org/dc/elements/1.1/"
   xmlns:cc="http://creativecommons.org/ns#"
   xmlns:rdf="http://www.w3.org/1999/02/22-rdf-syntax-ns#"
   xmlns:svg="http://www.w3.org/2000/svg"
   xmlns="http://www.w3.org/2000/svg"
   xmlns:sodipodi="http://sodipodi.sourceforge.net/DTD/sodipodi-0.dtd"
   xmlns:inkscape="http://www.inkscape.org/namespaces/inkscape"
   id="svg3113"
   version="1.1"
   inkscape:version="0.48.0 r9654"
   width="450"
   height="450"
   sodipodi:docname="Lem_1265_lime_front.png">
  <metadata
     id="metadata3119">
    <rdf:RDF>
      <cc:Work
         rdf:about="">
        <dc:format>image/svg+xml</dc:format>
        <dc:type
           rdf:resource="http://purl.org/dc/dcmitype/StillImage" />
        <dc:title></dc:title>
      </cc:Work>
    </rdf:RDF>
  </metadata>
  <defs
     id="defs3117" />
  <sodipodi:namedview
     pagecolor="#ffffff"
     bordercolor="#666666"
     borderopacity="1"
     objecttolerance="10"
     gridtolerance="10"
     guidetolerance="10"
     inkscape:pageopacity="0"
     inkscape:pageshadow="2"
     inkscape:window-width="1600"
     inkscape:window-height="850"
     id="namedview3115"
     showgrid="false"
     inkscape:zoom="0.68470588"
     inkscape:cx="212.5"
     inkscape:cy="212.5"
     inkscape:window-x="-8"
     inkscape:window-y="-8"
     inkscape:window-maximized="1"
     inkscape:current-layer="svg3113" />
  <path
     style="fill:#000080"
     d="m 70.723363,413.52404 c -3.01036,-0.72408 -3.35444,-1.30056 -5.57979,-9.34839 -1.13128,-4.0912 -2.87605,-8.33854 -3.87726,-9.43854 -1.00121,-1.1 -2.02849,-3.575 -2.28284,-5.5 -0.25435,-1.925 -0.9738,-5.525 -1.59877,-8 -0.62497,-2.475 -4.30916,-21.375 -8.18708,-42 -3.87792,-20.625 -7.93355,-42.06531 -9.01251,-47.64513 -1.07896,-5.57982 -1.99729,-11.87982 -2.04074,-14 -0.0435,-2.12018 -0.63623,-7.00487 -1.31729,-10.85487 -0.68175,-3.85393 -0.90306,-8.34832 -0.4924,-10 0.41024,-1.65 1.22802,-4.85221 1.81729,-7.11602 0.58927,-2.26381 1.07139,-5.23086 1.07139,-6.59345 0,-1.36259 0.92363,-5.13538 2.05251,-8.38398 1.12888,-3.2486 5.88227,-20.53155 10.56311,-38.40655 14.95848,-57.12292 17.70952,-65.93436 25.45172,-81.52044 7.82022,-15.743127 15.48222,-26.656485 21.43266,-30.527587 5.402847,-3.514857 22.164337,-10.363829 40.269817,-16.454795 11.90268,-4.004247 23.01505,-8.979043 32.23018,-14.428845 9.02377,-5.33663 10.72223,-5.55899 20.02186,-2.621239 20.47102,6.46679 53.55473,5.511549 68.01025,-1.963692 2.84569,-1.47156 3.51316,-1.482387 6.93682,-0.112512 2.08349,0.833646 6.55629,3.30485 9.93956,5.491563 7.02397,4.539813 15.67655,8.28952 35.02482,15.178466 19.43563,6.920047 32.99628,12.667994 36.88606,15.634874 5.44621,4.154026 12.6469,14.83363 20.10889,29.824207 7.75296,15.57512 10.50423,24.38552 25.45039,81.5 4.67765,17.875 9.2417,34.525 10.14231,37 0.9006,2.475 2.045,6.975 2.5431,10 0.49811,3.025 1.41039,7.75 2.0273,10.5 1.34303,5.9868 1.33967,6.75627 -0.0741,17 -2.31793,16.79451 -17.47305,99.78567 -20.17855,110.5 -0.62497,2.475 -1.34441,6.075 -1.59876,8 -0.25435,1.925 -1.28163,4.4 -2.28284,5.5 -1.00122,1.1 -2.74598,5.34734 -3.87726,9.43854 -1.13128,4.09119 -2.45999,7.84165 -2.95268,8.33434 -3.14099,3.14099 -23.81862,1.06405 -34.30582,-3.44582 -7.40325,-3.18366 -8.32357,-4.70092 -6.96243,-11.47853 0.62762,-3.12515 1.14113,-7.38048 1.14113,-9.45629 0,-2.07582 0.40247,-4.02294 0.89437,-4.32696 0.4919,-0.30401 1.13735,-2.24306 1.43434,-4.30901 0.29699,-2.06595 1.03646,-6.00627 1.64327,-8.75627 2.37449,-10.76103 9.16633,-56.56219 9.95543,-67.13501 0.45849,-6.14312 1.21605,-11.77584 1.68346,-12.51715 0.67766,-1.07478 1.31351,-8.21147 1.45651,-16.34784 0.0665,-3.78287 -0.90408,-7.78104 -2.06269,-8.4971 -0.7995,-0.49412 -1.6858,-3.69105 -2.12774,-7.67489 -0.70357,-6.34231 -11.90986,-48.5072 -13.86963,-52.18602 -0.48109,-0.9031 -1.46705,-3.83602 -2.19101,-6.51762 -2.45697,-9.10067 -5.23565,-7.38338 -10.43497,6.44905 -3.19883,8.51028 -3.59505,10.69023 -4.0762,22.42658 -1.44626,35.27773 -0.53799,48.24786 6.99781,99.92882 3.68338,25.26085 6.69705,46.97053 6.69705,48.24373 0,2.91698 -6.06447,7.45958 -13.84512,10.37069 -14.97871,5.60426 -35.17727,8.45298 -71.53943,10.08964 -27.59104,1.24187 -65.86894,0.0598 -86.61546,-2.67481 -22.67408,-2.98868 -41.23754,-8.82422 -46.75559,-14.69791 l -2.21359,-2.35626 5.92269,-41.95195 c 3.25748,-23.07357 6.57944,-46.00195 7.38213,-50.95195 0.85401,-5.26648 1.24022,-11.98748 0.93099,-16.20159 -0.29964,-4.08348 -0.0232,-9.20801 0.63842,-11.83561 0.89247,-3.54432 0.88739,-6.55389 -0.0216,-12.79841 -0.65367,-4.49041 -1.09541,-12.07745 -0.98166,-16.86007 0.18302,-7.69477 -0.20518,-9.88145 -3.37259,-18.99734 -5.22457,-15.03646 -8.7991,-17.6145 -11.34549,-8.18261 -0.72396,2.6816 -1.70992,5.61452 -2.19101,6.51762 -1.95977,3.67882 -13.166047,45.84371 -13.869617,52.18602 -0.44194,3.98384 -1.32824,7.18077 -2.12775,7.67489 -1.15861,0.71606 -2.12917,4.71423 -2.06269,8.4971 0.13916,7.91734 0.76625,15.25263 1.38813,16.23718 0.42979,0.68045 1.20313,6.41088 1.71853,12.73429 0.89892,11.02889 7.695047,56.63365 9.988747,67.02853 0.6068,2.75 1.34627,6.69032 1.64326,8.75627 0.29699,2.06595 0.94245,4.005 1.43435,4.30901 0.49184,0.30402 0.8943,2.25114 0.8943,4.32696 0,2.07581 0.51351,6.33114 1.14113,9.45629 1.0003,4.98088 0.9298,5.91561 -0.5713,7.57431 -5.05417,5.5848 -28.347907,10.70252 -38.069827,8.36409 z"
     id="path3125"
     inkscape:connector-curvature="0" />
</svg>
