<?xml version="1.0" encoding="UTF-8" standalone="no"?>
<!-- Created with Inkscape (http://www.inkscape.org/) -->

<svg
   xmlns:dc="http://purl.org/dc/elements/1.1/"
   xmlns:cc="http://creativecommons.org/ns#"
   xmlns:rdf="http://www.w3.org/1999/02/22-rdf-syntax-ns#"
   xmlns:svg="http://www.w3.org/2000/svg"
   xmlns="http://www.w3.org/2000/svg"
   xmlns:sodipodi="http://sodipodi.sourceforge.net/DTD/sodipodi-0.dtd"
   xmlns:inkscape="http://www.inkscape.org/namespaces/inkscape"
   id="svg3113"
   version="1.1"
   inkscape:version="0.48.0 r9654"
   width="450"
   height="450"
   sodipodi:docname="Lem_1265_lime_front.png">
  <metadata
     id="metadata3119">
    <rdf:RDF>
      <cc:Work
         rdf:about="">
        <dc:format>image/svg+xml</dc:format>
        <dc:type
           rdf:resource="http://purl.org/dc/dcmitype/StillImage" />
        <dc:title></dc:title>
      </cc:Work>
    </rdf:RDF>
  </metadata>
  <defs
     id="defs3117" />
  <sodipodi:namedview
     pagecolor="#ffffff"
     bordercolor="#666666"
     borderopacity="1"
     objecttolerance="10"
     gridtolerance="10"
     guidetolerance="10"
     inkscape:pageopacity="0"
     inkscape:pageshadow="2"
     inkscape:window-width="1600"
     inkscape:window-height="850"
     id="namedview3115"
     showgrid="false"
     inkscape:zoom="0.68470588"
     inkscape:cx="212.5"
     inkscape:cy="212.5"
     inkscape:window-x="-8"
     inkscape:window-y="-8"
     inkscape:window-maximized="1"
     inkscape:current-layer="svg3113" />
  <path
     style="fill:#008000"
     d="m 70.599449,408.45333 c -4.648352,-0.89793 -5.095657,-1.55011 -7.075205,-10.31582 -0.85326,-3.77835 -2.455714,-8.0194 -3.56101,-9.42456 -1.105295,-1.40515 -2.009628,-3.69209 -2.009628,-5.08208 0,-1.38998 -0.642435,-4.8168 -1.427633,-7.61514 -0.785198,-2.79834 -2.143311,-10.71289 -3.018029,-17.58789 -3.34201,-26.26711 -10.614011,-79.73983 -11.559543,-85 -1.48381,-8.25472 -1.594356,-28.79952 -0.182945,-34 0.671716,-2.475 1.597997,-6.75 2.058403,-9.5 0.460406,-2.75 1.766144,-7.28579 2.901641,-10.07953 1.135496,-2.79375 7.52648,-23.94375 14.202185,-47 15.183034,-52.43849 17.698939,-60.00268 24.988063,-75.127742 12.823077,-26.608103 21.921872,-34.870372 44.537852,-40.44313 12.10853,-2.983638 32.43631,-9.960662 37.5,-12.870978 2.475,-1.422487 7.2735,-3.614883 10.66332,-4.871992 6.11392,-2.267333 6.47862,-2.282278 45.5,-1.86463 42.94674,0.459661 44.22024,0.615575 55.26354,6.765895 5.56522,3.09943 24.78012,9.661116 36.57315,12.489343 8.77616,2.104721 22.17615,8.048524 26.59832,11.798169 8.56635,7.263567 22.08139,32.561075 29.22558,54.704595 2.21809,6.875 9.20258,30.275 15.5211,52 6.31851,21.725 12.63843,42.875 14.04426,47 1.40583,4.125 3.06652,10.2 3.69043,13.5 0.6239,3.3 1.56726,7.18067 2.09634,8.6237 0.52909,1.44304 0.69087,4.14304 0.35952,6 -0.33135,1.85697 -0.99207,8.1013 -1.46827,13.8763 -0.89374,10.83865 -9.44587,75.1514 -13.16474,99 -1.15783,7.425 -2.42708,15.62343 -2.82055,18.21872 -0.39348,2.5953 -1.53197,5.62101 -2.52999,6.72381 -0.99802,1.1028 -2.63898,5.46535 -3.64659,9.69457 -1.0076,4.22922 -2.25929,8.11677 -2.78153,8.63901 -1.94557,1.94557 -10.49912,2.73351 -18.66214,1.71914 -16.11873,-2.00299 -25.12929,-6.20826 -24.75683,-11.55411 1.20396,-17.28041 2.25278,-24.65477 3.97394,-27.94114 0.57609,-1.1 1.33523,-5.919 1.68697,-10.70888 0.35173,-4.78988 2.21838,-20.17193 4.14811,-34.18232 2.83546,-20.5863 3.52286,-28.79588 3.58294,-42.79112 0.0807,-18.80446 -0.2233,-23.02956 -1.8002,-25.01794 -0.56693,-0.71486 -1.26846,-4.06295 -1.55897,-7.44021 -0.82609,-9.60377 -24.30833,-77.35953 -26.81063,-77.35953 -0.33496,0 -1.53187,3.2625 -2.65978,7.25 -1.12793,3.9875 -3.1891,10.4 -4.5804,14.25 -2.34964,6.50195 -2.53818,8.35185 -2.64992,26 -0.13982,22.08102 -0.13971,23.0238 0.003,27 0.0592,1.65 0.12766,4.35 0.15222,6 0.2266,15.23403 4.06919,34.48388 11.91411,59.68498 6.79016,21.81285 11.07799,37.90201 12.94909,48.58872 l 1.27352,7.27369 -2.91439,3.11073 c -8.93213,9.53388 -26.4375,15.23871 -57.91439,18.87372 -14.91665,1.72261 -72.92915,2.37747 -91.88011,1.03718 -39.96985,-2.82685 -66.03972,-10.49471 -72.65614,-21.37016 -1.55842,-2.56157 -1.58142,-3.45958 -0.26899,-10.5 2.1062,-11.29849 5.81937,-25.5739 10.39948,-39.98112 12.68144,-39.8908 14.12774,-48.99072 14.17978,-89.21774 l 0.0395,-30.5 -2.77589,-7 c -1.52674,-3.85 -3.56098,-9.90457 -4.52053,-13.45459 -1.59185,-5.88879 -4.01723,-9.34351 -4.01723,-5.72196 0,0.81956 -1.35721,4.51511 -3.01605,8.21233 -6.93379,15.45411 -22.983944,65.01702 -22.983944,70.97446 0,2.24937 -0.444873,4.53463 -0.988607,5.07837 -1.319452,1.31945 -2.949743,21.13956 -2.008712,24.42074 0.408306,1.42368 0.531343,4.81649 0.273415,7.53958 -0.268484,2.83453 1.053995,16.06585 3.093578,30.95107 1.9594,14.3 4.07589,30.95 4.70333,37 0.62743,6.05 1.4036,11.43355 1.72482,11.96343 0.90528,1.49338 2.29812,9.42189 2.79046,15.8842 0.24503,3.2162 0.85231,7.65818 1.34952,9.87106 0.81248,3.61609 0.64974,4.25906 -1.60748,6.35097 -3.22811,2.99172 -12.79605,6.16096 -22.330324,7.39659 -8.47692,1.09861 -9.944305,1.10427 -15.354157,0.0592 z"
     id="path3142"
     inkscape:connector-curvature="0" />
</svg>
