<?xml version="1.0" encoding="UTF-8" standalone="no"?>
<!-- Created with Inkscape (http://www.inkscape.org/) -->

<svg
   xmlns:dc="http://purl.org/dc/elements/1.1/"
   xmlns:cc="http://creativecommons.org/ns#"
   xmlns:rdf="http://www.w3.org/1999/02/22-rdf-syntax-ns#"
   xmlns:svg="http://www.w3.org/2000/svg"
   xmlns="http://www.w3.org/2000/svg"
   xmlns:sodipodi="http://sodipodi.sourceforge.net/DTD/sodipodi-0.dtd"
   xmlns:inkscape="http://www.inkscape.org/namespaces/inkscape"
   width="425"
   height="425"
   id="svg2"
   version="1.1"
   inkscape:version="0.47 r22583"
   sodipodi:docname="New document 1">
  <defs
     id="defs4">
    <inkscape:perspective
       sodipodi:type="inkscape:persp3d"
       inkscape:vp_x="0 : 526.18109 : 1"
       inkscape:vp_y="0 : 1000 : 0"
       inkscape:vp_z="744.09448 : 526.18109 : 1"
       inkscape:persp3d-origin="372.04724 : 350.78739 : 1"
       id="perspective10" />
    <inkscape:perspective
       id="perspective2884"
       inkscape:persp3d-origin="0.5 : 0.33333333 : 1"
       inkscape:vp_z="1 : 0.5 : 1"
       inkscape:vp_y="0 : 1000 : 0"
       inkscape:vp_x="0 : 0.5 : 1"
       sodipodi:type="inkscape:persp3d" />
    <inkscape:perspective
       id="perspective2904"
       inkscape:persp3d-origin="0.5 : 0.33333333 : 1"
       inkscape:vp_z="1 : 0.5 : 1"
       inkscape:vp_y="0 : 1000 : 0"
       inkscape:vp_x="0 : 0.5 : 1"
       sodipodi:type="inkscape:persp3d" />
  </defs>
  <sodipodi:namedview
     id="base"
     pagecolor="#ffffff"
     bordercolor="#666666"
     borderopacity="1.0"
     inkscape:pageopacity="0.0"
     inkscape:pageshadow="2"
     inkscape:zoom="0.7"
     inkscape:cx="513.49562"
     inkscape:cy="212.69279"
     inkscape:document-units="px"
     inkscape:current-layer="layer1"
     showgrid="false"
     inkscape:window-width="1366"
     inkscape:window-height="696"
     inkscape:window-x="-3"
     inkscape:window-y="0"
     inkscape:window-maximized="1" />
  <metadata
     id="metadata7">
    <rdf:RDF>
      <cc:Work
         rdf:about="">
        <dc:format>image/svg+xml</dc:format>
        <dc:type
           rdf:resource="http://purl.org/dc/dcmitype/StillImage" />
        <dc:title></dc:title>
      </cc:Work>
    </rdf:RDF>
  </metadata>
  <g
     inkscape:label="Layer 1"
     inkscape:groupmode="layer"
     id="layer1"
     transform="translate(0,-627.36218)">
    <path
       style="fill:#00d200;fill-opacity:1"
       d="m 172.9454,1027.2281 c -17.88857,-1.224 -41.3074,-4.6942 -51.50006,-7.6312 -11.63447,-3.3525 -21.73823,-8.4058 -26.39654,-13.2021 l -3.89652,-4.0119 1.24965,-7.74662 c 1.85419,-11.4941 6.95832,-27.87371 14.29343,-45.86906 8.40779,-20.62698 11.27011,-29.84979 13.12127,-42.27867 1.17305,-7.87601 1.24923,-10.76642 0.34677,-13.15732 -0.88349,-2.34062 -0.87239,-3.81681 0.047,-6.2526 0.99348,-2.63201 0.94447,-3.47487 -0.28076,-4.82874 -1.74772,-1.93121 -1.8936,-4.34941 -0.42761,-7.08863 0.82584,-1.54309 0.592,-2.72637 -1.07029,-5.41602 -1.16985,-1.89285 -1.83118,-3.92019 -1.46963,-4.50519 1.00012,-1.61823 -4.22916,-28.23383 -7.65717,-38.97283 -1.66787,-5.225 -4.4561,-12.425 -6.19606,-16 l -3.16356,-6.5 -4.48073,-0.14666 c -5.50965,-0.18034 -11.37774,2.44958 -17.51027,7.84764 -4.1206,3.6271 -4.91599,3.94723 -8.28365,3.3341 -8.17387,-1.48817 -25.851497,-13.62312 -35.021475,-24.04075 -2.199302,-2.49853 -5.409705,-7.29962 -7.134237,-10.66908 -3.112103,-6.08057 -3.121063,-6.14197 -1.200211,-8.22577 1.064411,-1.15472 3.381863,-4.79948 5.149905,-8.09948 1.768031,-3.3 4.101744,-7.25033 5.186015,-8.77852 1.084281,-1.52819 7.045166,-14.16942 13.246412,-28.09162 20.044261,-45.00066 24.962241,-50.9497 45.486581,-55.02292 4.64108,-0.92106 8.91608,-2.05074 9.5,-2.51041 0.58392,-0.45966 2.70395,-1.13133 4.71119,-1.4926 2.00724,-0.36127 4.22385,-1.34888 4.9258,-2.19468 0.82623,-0.99554 2.1296,-1.32365 3.69614,-0.93048 1.33092,0.33404 3.05647,0.079 3.83456,-0.56675 0.7781,-0.64576 3.47099,-1.55825 5.98422,-2.02778 2.51323,-0.46952 8.92107,-2.81512 14.23966,-5.21244 5.31858,-2.39733 11.84542,-5.06202 14.50408,-5.92154 4.65602,-1.50525 5.02407,-1.47632 10.00001,0.78597 12.72879,5.7871 45.00521,9.07748 64.16613,6.54133 10.8363,-1.4343 22.59321,-4.32411 29.16783,-7.16937 5.63248,-2.43752 5.47554,-2.4733 23.14447,5.27623 6.22174,2.72884 12.97175,5.22506 15.00001,5.54715 2.02826,0.32209 4.69678,1.23874 5.93004,2.03698 1.23325,0.79824 2.96136,1.17542 3.84023,0.83816 0.87887,-0.33725 2.79484,0.0571 4.25772,0.87645 3.93282,2.20262 10.65388,4.40388 19.65979,6.43891 9.5337,2.15429 11.91786,3.09248 16.38449,6.4475 7.52483,5.65213 14.5814,17.79923 27.16108,46.75481 3.91289,9.00659 8.80533,19.52562 10.87207,23.37562 6.91483,12.88113 12.16058,21.92888 13.70075,23.63075 1.37763,1.52227 1.27475,2.21911 -1.05457,7.1429 -6.31833,13.35584 -30.15095,32.95912 -42.89254,35.28082 -3.45058,0.62875 -4.19134,0.35486 -7.5,-2.77309 -5.54365,-5.24086 -10.74433,-7.96129 -16.12009,-8.43227 -4.31597,-0.37813 -5.07681,-0.132 -6.94891,2.24799 -1.15626,1.46994 -2.10229,3.30276 -2.10229,4.07294 0,0.77018 -0.63599,2.39699 -1.41332,3.61514 -5.36207,8.40292 -13.30746,43.91582 -13.91947,62.21482 -0.092,2.75 -0.71389,5.95333 -1.38204,7.11852 -0.66815,1.16518 -0.94379,2.38954 -0.61253,2.7208 0.33125,0.33125 0.69521,7.02792 0.8088,14.88148 0.25632,17.72317 2.32213,26.17125 12.30754,50.33141 8.42884,20.39397 12.85702,33.98595 14.35606,44.06475 l 1.1157,7.50152 -2.88036,3.0702 c -9.84373,10.4923 -28.55485,16.4451 -64.11979,20.3991 -16.455,1.8294 -75.57312,2.6861 -94.76072,1.3731 z"
       id="path2894" />
  </g>
</svg>
