<?xml version="1.0" encoding="UTF-8" standalone="no"?>
<!-- Created with Inkscape (http://www.inkscape.org/) -->

<svg
   xmlns:dc="http://purl.org/dc/elements/1.1/"
   xmlns:cc="http://creativecommons.org/ns#"
   xmlns:rdf="http://www.w3.org/1999/02/22-rdf-syntax-ns#"
   xmlns:svg="http://www.w3.org/2000/svg"
   xmlns="http://www.w3.org/2000/svg"
   xmlns:sodipodi="http://sodipodi.sourceforge.net/DTD/sodipodi-0.dtd"
   xmlns:inkscape="http://www.inkscape.org/namespaces/inkscape"
   id="svg2999"
   version="1.1"
   inkscape:version="0.48.2 r9819"
   width="425"
   height="425"
   sodipodi:docname="hooded.svg">
  <metadata
     id="metadata3005">
    <rdf:RDF>
      <cc:Work
         rdf:about="">
        <dc:format>image/svg+xml</dc:format>
        <dc:type
           rdf:resource="http://purl.org/dc/dcmitype/StillImage" />
        <dc:title></dc:title>
      </cc:Work>
    </rdf:RDF>
  </metadata>
  <defs
     id="defs3003" />
  <sodipodi:namedview
     pagecolor="#ffffff"
     bordercolor="#666666"
     borderopacity="1"
     objecttolerance="10"
     gridtolerance="10"
     guidetolerance="10"
     inkscape:pageopacity="0"
     inkscape:pageshadow="2"
     inkscape:window-width="1920"
     inkscape:window-height="1018"
     id="namedview3001"
     showgrid="false"
     inkscape:zoom="2.2211764"
     inkscape:cx="206.78802"
     inkscape:cy="395.53482"
     inkscape:window-x="-8"
     inkscape:window-y="-8"
     inkscape:window-maximized="1"
     inkscape:current-layer="svg2999"
     showguides="true"
     inkscape:guide-bbox="true" />
  <path
     inkscape:connector-curvature="0"
     id="path3204"
     d="m 235.93315,420.65438 c -17.2095,-2.02693 -54.34648,-2.78279 -69.35231,-1.41154 -7.39965,0.67619 -18.09016,1.31206 -23.75667,1.41304 -13.23354,0.23581 -13.35131,0.12995 -14.46981,-13.00642 -0.91211,-10.71237 -1.88078,-14.81175 -4.40545,-18.64375 -2.42989,-3.68813 -4.77634,-21.6545 -4.82706,-36.96016 -0.0247,-7.45686 0.88463,-22.14461 2.02077,-32.63945 2.87522,-26.55943 3.36916,-35.78015 2.46908,-46.09171 -0.59384,-6.80296 -1.19661,-9.19355 -2.52801,-10.02589 -2.69194,-1.68288 -4.49984,0.92621 -5.8301,8.41379 -2.36902,13.33432 -6.11276,29.92179 -8.9533,39.66949 -1.60961,5.5236 -3.70521,14.33625 -4.65689,19.58367 -0.95167,5.24742 -3.248337,13.94606 -5.103695,19.33032 -1.855365,5.38425 -3.690523,11.93725 -4.078147,14.56221 -0.937578,6.34918 -2.066571,9.15609 -4.484948,11.15056 -1.74814,1.44172 -2.093423,3.37439 -2.663756,14.91 l -0.655269,13.25358 -5.566155,0.69163 c -4.775224,0.59335 -21.224351,-0.0188 -21.92982,-0.81607 -0.131964,-0.14913 0.122816,-6.14625 0.566163,-13.32693 0.688261,-11.14746 0.577392,-13.3095 -0.758535,-14.79157 -0.860539,-0.95468 -2.353314,-4.57012 -3.317269,-8.03432 -1.319205,-4.74086 -0.227263,-6.79074 -1.465459,-6.56862 -3.803606,-12.36375 0.08925,-30.69667 0.646344,-40.90585 0.37905,-6.62831 1.16572,-18.37852 1.74816,-26.11156 0.582441,-7.73303 1.52611,-20.3871 2.097048,-28.12014 1.732478,-23.46566 9.119835,-69.76921 16.583445,-103.94408 10.461488,-47.90184 17.770896,-71.958044 24.248546,-79.805131 9.662937,-11.705762 19.618677,-18.135061 34.915297,-22.547864 11.67253,-3.367317 13.08973,-4.086449 13.77681,-6.990778 0.34279,-1.449061 2.53367,-5.572217 4.8686,-9.162556 5.61644,-8.636178 13.32926,-24.524202 14.53895,-29.949525 1.81809,-8.1538038 5.33964,-10.3584135 17.81217,-11.1509977 28.59966,-3.25400942 54.10362,-0.8822294 72.203,0.090818 6.9426,0.3675965 13.98619,1.1885801 15.65241,1.8244066 4.39957,1.6788695 7.57061,5.0090696 7.59503,7.9762771 0.0118,1.422705 1.18201,5.750253 2.60064,9.616769 2.83054,7.714701 6.91329,20.562874 7.87396,24.778796 0.33642,1.476418 1.68568,3.962038 2.99837,5.523599 1.31269,1.561562 2.69736,3.82675 3.07707,5.033747 0.76358,2.42734 5.46447,4.400711 15.13678,6.354208 6.66931,1.346995 18.63034,7.146091 24.85985,12.052875 4.48112,3.52965 11.2173,12.780383 14.1262,19.399403 2.76476,6.291043 9.76614,38.411363 12.54825,57.567813 5.52523,38.04425 6.09893,44.9393 5.9202,71.15201 -0.13807,20.25104 0.26785,28.99225 2.09863,45.19308 1.72667,32.18796 6.86832,70.21751 4.37899,103.73706 -0.71702,-0.16231 -3.03889,1.38035 -5.15971,3.42813 l -3.85605,3.72325 -0.14191,12.91639 -0.14191,12.91641 -9.08849,1.19975 c -4.99867,0.65986 -10.94937,1.1938 -13.22376,1.18652 -6.44623,-0.0206 -7.39528,-1.77407 -8.16064,-15.0775 -0.52223,-9.07704 -1.11932,-12.23014 -2.9724,-15.69616 -2.35702,-4.40861 -7.78512,-28.50057 -11.51079,-51.08927 -1.09325,-6.62832 -2.88742,-16.79676 -3.98705,-22.59654 -1.53675,-8.10529 -7.10255,-50.1025 -7.10255,-53.59285 0,-0.35137 -1.07429,-0.63886 -2.38734,-0.63886 -2.07455,0 -2.47144,0.61044 -3.02949,4.65948 -1.01577,7.37018 -0.73972,46.67639 0.43631,62.12586 0.58865,7.73304 1.15063,26.71414 1.24885,42.18021 0.16056,25.28214 -0.009,28.57625 -1.6845,32.63945 -1.0247,2.48562 -2.43885,9.84661 -3.14255,16.35775 -0.70371,6.51114 -1.59324,12.1505 -1.97676,12.5319 -0.38351,0.38141 -4.64547,0.92921 -9.47102,1.21734 -16.7013,1.91684 -35.44757,1.26953 -53.20635,-0.6655 z"
     style="fill:#483905"
     sodipodi:nodetypes="cssssssssssssssscscsssccssssssssccsssssssssssccscccssssssssssscsscc" />
</svg>
