<?xml version="1.0" encoding="UTF-8" standalone="no"?>
<!-- Created with Inkscape (http://www.inkscape.org/) -->

<svg
   xmlns:dc="http://purl.org/dc/elements/1.1/"
   xmlns:cc="http://creativecommons.org/ns#"
   xmlns:rdf="http://www.w3.org/1999/02/22-rdf-syntax-ns#"
   xmlns:svg="http://www.w3.org/2000/svg"
   xmlns="http://www.w3.org/2000/svg"
   xmlns:sodipodi="http://sodipodi.sourceforge.net/DTD/sodipodi-0.dtd"
   xmlns:inkscape="http://www.inkscape.org/namespaces/inkscape"
   id="svg2999"
   version="1.1"
   inkscape:version="0.48.2 r9819"
   width="425"
   height="425"
   sodipodi:docname="hooded.svg">
  <metadata
     id="metadata3005">
    <rdf:RDF>
      <cc:Work
         rdf:about="">
        <dc:format>image/svg+xml</dc:format>
        <dc:type
           rdf:resource="http://purl.org/dc/dcmitype/StillImage" />
        <dc:title></dc:title>
      </cc:Work>
    </rdf:RDF>
  </metadata>
  <defs
     id="defs3003" />
  <sodipodi:namedview
     pagecolor="#ffffff"
     bordercolor="#666666"
     borderopacity="1"
     objecttolerance="10"
     gridtolerance="10"
     guidetolerance="10"
     inkscape:pageopacity="0"
     inkscape:pageshadow="2"
     inkscape:window-width="1920"
     inkscape:window-height="1018"
     id="namedview3001"
     showgrid="false"
     inkscape:zoom="0.78530445"
     inkscape:cx="247.40548"
     inkscape:cy="17.605921"
     inkscape:window-x="-8"
     inkscape:window-y="-8"
     inkscape:window-maximized="1"
     inkscape:current-layer="svg2999" />
  <path
     style="fill:#ffff00"
     d="m 49.771652,406.69314 c -2.905578,-1.17068 -3.588627,-2.61794 -7.812791,-16.55384 -3.536437,-11.66704 -3.734358,-12.02715 -10.39677,-18.91632 -8.298451,-8.58089 -9.387295,-10.5055 -8.529701,-15.07687 0.468559,-2.49764 0.216942,-4.0247 -0.862748,-5.23598 -1.506381,-1.68999 -4.023482,-13.6087 -9.864639,-46.71001 -3.1906089,-18.08089 -3.3010279,-23.5303 -0.848908,-41.89547 0.877685,-6.57343 0.906102,-10.88054 0.108862,-16.5 -1.119113,-7.88823 -0.592785,-12.30637 2.097204,-17.60453 0.83774,-1.65 2.315657,-5.475 3.28426,-8.5 2.610114,-8.15154 18.303579,-49.05094 29.545586,-77 5.420076,-13.475 11.644328,-29.53994 13.831669,-35.69986 9.255365,-26.06467 15.541147,-33.648812 36.132604,-43.595983 10.61417,-5.127417 15.84507,-7.108153 30.745,-11.641919 12.08571,-3.677452 13.26104,-4.918894 14.18335,-14.981156 0.4912,-5.358908 1.23304,-7.603897 3.49074,-10.5639 3.53166,-4.630249 11.20736,-8.298462 20.33759,-9.719334 8.24249,-1.282719 45.59981,-1.632734 77.01947,-0.721626 l 23.27615,0.674962 6.43771,3.169272 c 9.23362,4.545699 12.49185,10.193345 12.50441,21.674547 0.004,3.700538 0.517,5.557845 1.87418,6.78607 1.02773,0.930082 7.86839,3.501584 15.20147,5.714449 7.3861,2.228865 18.92981,6.742554 25.8814,10.119852 19.37353,9.412256 25.93659,17.379834 34.91473,42.386626 2.15198,5.9939 6.62838,17.423 9.94756,25.398 7.18683,17.26784 26.53961,67.0289 28.00182,72 1.84613,6.27634 6.96589,20.38712 9.22578,25.4275 2.03515,4.53916 2.15628,5.87898 1.53692,17 -0.41152,7.38937 -0.2443,14.78792 0.43109,19.0725 2.32258,14.7341 2.26857,19.48055 -0.39827,35 -5.58544,32.50401 -9.17528,49.36094 -10.92318,51.29235 -1.38227,1.52739 -1.53624,2.4764 -0.74109,4.5678 1.47047,3.86764 0.11481,6.41518 -8.12808,15.27412 -7.28428,7.82868 -7.33721,7.92607 -11.23759,20.67736 -3.40058,11.11732 -4.28669,13.00185 -6.70034,14.25 -3.96325,2.04947 -9.81224,1.77606 -22.22113,-1.03873 -13.59522,-3.08389 -21.3655,-6.50258 -22.18303,-9.75986 -0.32877,-1.30992 0.60252,-7.52998 2.06954,-13.82236 2.60701,-11.18209 2.63956,-11.7278 1.44041,-24.14352 -1.31699,-13.63578 -1.01175,-17.22543 2.05412,-24.15634 1.65377,-3.73862 2.13641,-8.31359 3.03749,-28.79285 1.55084,-35.24627 1.5958,-38.21662 0.5993,-39.58498 -0.49547,-0.68036 -0.60375,-2.42078 -0.24062,-3.8676 0.42351,-1.68742 0.14539,-3.21586 -0.77572,-4.26298 -1.47104,-1.67231 -12.76711,-22.54822 -15.96597,-29.50622 -0.97951,-2.13059 -2.04435,-3.61039 -2.3663,-3.28843 -0.32195,0.32195 -0.0634,4.09016 0.57456,8.3738 1.46943,9.86668 1.54979,12.82556 0.63249,23.28844 -0.5725,6.52994 -0.35926,10.1224 0.92002,15.5 1.32738,5.57976 1.52991,9.53614 0.99822,19.5 -0.64903,12.16295 -0.56514,12.91794 3.11113,28 2.69948,11.07472 3.77969,17.70478 3.78353,23.22248 0.005,7.11264 -0.33898,8.41564 -4.35518,16.5 -3.8882,7.82671 -4.40691,9.69827 -4.78854,17.27752 -0.34775,6.90642 -0.82893,8.94039 -2.56656,10.84899 -5.40933,5.94153 -21.33364,10.9698 -45.13858,14.25299 -18.90581,2.6075 -77.85854,3.78155 -100.87158,2.00888 -36.16892,-2.78605 -58.33401,-8.45577 -65.65534,-16.7943 -2.73688,-3.11714 -2.97308,-3.987 -2.97308,-10.94911 0,-6.88223 -0.38147,-8.33279 -4.23818,-16.11596 -5.974086,-12.0562 -6.165562,-17.68516 -1.296257,-38.10706 3.436167,-14.41128 3.644017,-16.21016 3.408127,-29.49585 -0.18653,-10.5056 0.21826,-16.51406 1.57212,-23.33559 1.49321,-7.52363 1.61792,-10.00282 0.68877,-13.69282 -1.43721,-5.70769 -1.36714,-12.05441 0.24147,-21.87017 0.69854,-4.2625 1.01219,-7.74262 0.69701,-7.7336 -0.31518,0.009 -3.49806,5.73166 -7.07306,12.71698 -3.575,6.98532 -7.897028,14.80087 -9.604508,17.36789 -2.31256,3.4767 -2.863586,5.09781 -2.160075,6.35491 0.672477,1.20165 0.458396,2.22467 -0.743454,3.5527 -1.023938,1.13144 -1.369667,2.37998 -0.878912,3.17404 0.444935,0.71992 0.908595,5.13578 1.030355,9.81301 0.12176,4.67724 0.652653,18.22806 1.179762,30.11293 0.845133,19.05543 1.223867,22.18684 3.205097,26.5 1.841196,4.00832 2.225785,6.51559 2.130752,13.89114 -0.06378,4.95 -0.536263,11.475 -1.049962,14.5 -0.793413,4.67214 -0.48771,7.51143 2.030987,18.86323 2.866416,12.91898 2.905062,13.43079 1.162472,15.39518 -2.747042,3.0967 -9.054936,5.53266 -21.393897,8.2618 -11.597536,2.56516 -17.827456,2.99008 -21.593245,1.47281 z"
     id="path3975"
     inkscape:connector-curvature="0" />
</svg>
