<?xml version="1.0" encoding="UTF-8" standalone="no"?>
<!-- Created with Inkscape (http://www.inkscape.org/) -->

<svg
   xmlns:dc="http://purl.org/dc/elements/1.1/"
   xmlns:cc="http://creativecommons.org/ns#"
   xmlns:rdf="http://www.w3.org/1999/02/22-rdf-syntax-ns#"
   xmlns:svg="http://www.w3.org/2000/svg"
   xmlns="http://www.w3.org/2000/svg"
   xmlns:sodipodi="http://sodipodi.sourceforge.net/DTD/sodipodi-0.dtd"
   xmlns:inkscape="http://www.inkscape.org/namespaces/inkscape"
   id="svg2999"
   version="1.1"
   inkscape:version="0.48.2 r9819"
   width="425"
   height="425"
   sodipodi:docname="hooded.svg">
  <metadata
     id="metadata3005">
    <rdf:RDF>
      <cc:Work
         rdf:about="">
        <dc:format>image/svg+xml</dc:format>
        <dc:type
           rdf:resource="http://purl.org/dc/dcmitype/StillImage" />
        <dc:title></dc:title>
      </cc:Work>
    </rdf:RDF>
  </metadata>
  <defs
     id="defs3003" />
  <sodipodi:namedview
     pagecolor="#ffffff"
     bordercolor="#666666"
     borderopacity="1"
     objecttolerance="10"
     gridtolerance="10"
     guidetolerance="10"
     inkscape:pageopacity="0"
     inkscape:pageshadow="2"
     inkscape:window-width="1920"
     inkscape:window-height="1018"
     id="namedview3001"
     showgrid="false"
     inkscape:zoom="1.5706089"
     inkscape:cx="209.75553"
     inkscape:cy="213.64213"
     inkscape:window-x="-8"
     inkscape:window-y="-8"
     inkscape:window-maximized="1"
     inkscape:current-layer="svg2999"
     showguides="true"
     inkscape:guide-bbox="true" />
  <path
     inkscape:connector-curvature="0"
     id="path3204"
     d="m 244.91764,422.64141 c 0.25305,-1.50707 -2.04939,-0.95936 -10.6612,-1.97926 -17.04195,-2.01827 -53.81735,-2.7709 -68.67707,-1.40551 -7.32761,0.6733 -17.91403,1.30645 -23.52536,1.407 -13.10469,0.23481 -13.22132,0.1294 -14.32893,-12.95085 -0.90322,-10.6666 -1.86246,-14.74847 -4.36256,-18.56409 -2.40623,-3.67238 -4.72982,-21.56199 -4.78005,-36.80225 -0.0245,-7.425 0.87602,-22.05 2.00109,-32.5 2.84723,-26.44596 3.33636,-35.62728 2.44504,-45.89479 -0.58805,-6.77389 -1.18496,-9.15427 -2.5034,-9.98305 -2.66573,-1.67569 -4.45602,0.92225 -5.77333,8.37784 -2.34595,13.27735 -6.05325,29.79395 -8.86613,39.5 -1.59394,5.5 -3.66913,14.275 -4.61154,19.5 -0.94241,5.225 -3.21671,13.88648 -5.054003,19.24773 -1.8373,5.36125 -3.65459,11.88625 -4.03844,14.5 -0.92845,6.32205 -2.04645,9.11697 -4.44128,11.10292 -1.73112,1.43556 -2.07304,3.35997 -2.63782,14.8463 l -0.64889,13.19695 -5.51196,0.68868 c -4.72873,0.59081 -21.0177,-0.0187 -21.7163,-0.81259 -0.13068,-0.14849 0.12162,-6.11999 0.56065,-13.26999 0.68156,-11.09983 0.57177,-13.25263 -0.75115,-14.72837 -0.85216,-0.9506 -2.3304,-4.5506 -3.28497,-8 -1.30636,-4.7206 -0.22505,-6.76172 -1.45119,-6.54055 -3.766573,-12.31093 0.08838,-30.56552 0.64005,-40.73108 0.37536,-6.6 1.15437,-18.3 1.73114,-26 0.57677,-7.7 1.51125,-20.3 2.07663,-28 1.71561,-23.36541 9.03104,-69.47113 16.42198,-103.49999 10.35963,-47.69718 17.59787,-71.650605 24.01245,-79.464165 9.568843,-11.65575 19.427653,-18.05758 34.575343,-22.45153 11.55888,-3.35293 12.96227,-4.06899 13.64266,-6.96091 0.33946,-1.44287 2.50901,-5.54841 4.82121,-9.12341 5.56175,-8.59928 13.19947,-24.419423 14.39739,-29.821567 1.80038,-8.1189671 5.28765,-10.3141577 17.63874,-11.1033557 7.84223,-0.501095 8.9622,-0.800194 8.70616,-2.325073 7.31292,1.229733 50.68039,-0.854615 50.58768,0 -0.26201,1.560421 1.0603,1.822095 12.20616,2.415503 6.875,0.366026 13.85,1.183502 15.5,1.816612 4.35674,1.6716966 7.4969,4.9876687 7.52109,7.9421987 0.0116,1.416627 1.17049,5.725686 2.57531,9.575682 2.80298,7.68174 6.84599,20.47502 7.7973,24.67293 0.33314,1.47011 1.66927,3.94511 2.96918,5.5 1.2999,1.55489 2.67109,3.8104 3.0471,5.01224 0.75616,2.41697 5.41128,4.38191 14.9894,6.32706 6.60439,1.34124 18.44895,7.11556 24.61781,12.00138 4.43749,3.51457 11.10808,12.72578 13.98866,19.31652 2.73784,6.264165 9.67105,38.247255 12.42608,57.321855 5.47143,37.88171 6.03954,44.7473 5.86256,70.84802 -0.13673,20.16452 0.26523,28.86838 2.07819,45 1.70986,32.05043 6.80145,69.9175 4.33635,103.29384 -0.71003,-0.16161 -3.0093,1.37446 -5.10947,3.41349 l -3.8185,3.70734 -0.14053,12.86121 -0.14053,12.86122 -9,1.19463 c -4.95,0.65704 -10.84276,1.1887 -13.09501,1.18145 -6.38347,-0.0205 -7.32327,-1.76649 -8.08119,-15.01309 -0.51713,-9.03825 -1.10842,-12.17788 -2.94345,-15.62909 -2.33407,-4.38978 -7.70932,-28.37881 -11.39872,-50.871 -1.0826,-6.6 -2.8593,-16.725 -3.94823,-22.5 -1.52178,-8.07066 -7.0334,-49.88844 -7.0334,-53.36387 0,-0.34987 -1.06383,-0.63613 -2.36408,-0.63613 -2.05436,0 -2.44738,0.60783 -3,4.63957 -1.00588,7.33869 -0.73252,46.47697 0.43206,61.86043 0.58292,7.7 1.13943,26.6 1.23669,42 0.159,25.17412 -0.009,28.45416 -1.6681,32.5 -1.01472,2.475 -2.4151,9.80454 -3.11195,16.28786 -0.69686,6.48332 -1.57773,12.09859 -1.95751,12.47836 -0.37978,0.37978 -4.60024,0.92524 -9.37881,1.21214 -7.56168,0.454 -8.0135,0.11186 -7.75776,1.63494 -4.29292,-1.84038 -34.14618,-2.23086 -34.26934,-0.31834 z"
     style="fill:#483905"
     sodipodi:nodetypes="csssssssssssssssscscsssccsssssssssccssssssssssssccscccssssssssssscssscc" />
</svg>
