<?xml version="1.0" encoding="UTF-8" standalone="no"?>
<!-- Created with Inkscape (http://www.inkscape.org/) -->

<svg
   xmlns:dc="http://purl.org/dc/elements/1.1/"
   xmlns:cc="http://creativecommons.org/ns#"
   xmlns:rdf="http://www.w3.org/1999/02/22-rdf-syntax-ns#"
   xmlns:svg="http://www.w3.org/2000/svg"
   xmlns="http://www.w3.org/2000/svg"
   xmlns:sodipodi="http://sodipodi.sourceforge.net/DTD/sodipodi-0.dtd"
   xmlns:inkscape="http://www.inkscape.org/namespaces/inkscape"
   id="svg2999"
   version="1.1"
   inkscape:version="0.48.2 r9819"
   width="425"
   height="425"
   sodipodi:docname="hooded.svg">
  <metadata
     id="metadata3005">
    <rdf:RDF>
      <cc:Work
         rdf:about="">
        <dc:format>image/svg+xml</dc:format>
        <dc:type
           rdf:resource="http://purl.org/dc/dcmitype/StillImage" />
        <dc:title></dc:title>
      </cc:Work>
    </rdf:RDF>
  </metadata>
  <defs
     id="defs3003" />
  <sodipodi:namedview
     pagecolor="#ffffff"
     bordercolor="#666666"
     borderopacity="1"
     objecttolerance="10"
     gridtolerance="10"
     guidetolerance="10"
     inkscape:pageopacity="0"
     inkscape:pageshadow="2"
     inkscape:window-width="1920"
     inkscape:window-height="1018"
     id="namedview3001"
     showgrid="false"
     inkscape:zoom="1.1105882"
     inkscape:cx="-3.1522715"
     inkscape:cy="170.77342"
     inkscape:window-x="-8"
     inkscape:window-y="-8"
     inkscape:window-maximized="1"
     inkscape:current-layer="svg2999" />
  <path
     style="fill:#008000"
     d="m 56.953428,398.9225 c -2.798884,-1.1277 -3.456851,-2.5218 -7.525901,-15.94598 -3.406575,-11.2386 -3.597228,-11.58549 -10.014992,-18.22168 -7.993727,-8.26581 -9.042587,-10.11974 -8.216485,-14.52325 0.451353,-2.40592 0.208976,-3.8769 -0.831066,-5.0437 -1.451067,-1.62793 -3.875738,-13.10898 -9.502403,-44.99479 -3.073447,-17.41695 -3.179812,-22.66626 -0.817736,-40.35703 0.845457,-6.33205 0.87283,-10.481 0.104864,-15.89412 -1.078017,-7.59857 -0.571017,-11.85447 2.020194,-16.95807 0.806978,-1.58942 2.230625,-5.27396 3.16366,-8.18788 2.514268,-7.8522 17.631457,-47.24976 28.46065,-74.1725 5.221048,-12.9802 11.21674,-28.45522 13.323761,-34.38894 8.915501,-25.107559 14.970465,-32.413205 34.805786,-41.99511 10.22441,-4.939133 15.26323,-6.847135 29.61602,-11.214419 11.64191,-3.542412 12.77408,-4.738268 13.66253,-14.431036 0.47316,-5.162126 1.18776,-7.324677 3.36256,-10.175986 3.40198,-4.460223 10.79582,-7.993737 19.59077,-9.362434 7.93983,-1.235617 43.92535,-1.572778 74.19127,-0.695126 l 22.42143,0.650176 6.20131,3.052894 c 8.89456,4.378777 12.03313,9.819038 12.04523,20.878641 0.004,3.564652 0.49802,5.353757 1.80536,6.536882 0.98999,0.895928 7.57947,3.373002 14.64327,5.504609 7.11488,2.147021 18.23469,6.494964 24.93102,9.748244 18.66211,9.066632 24.98417,16.741634 33.63263,40.830165 2.07296,5.7738 6.38498,16.78322 9.58228,24.46536 6.92293,16.63376 25.56505,64.56756 26.97358,69.35612 1.77833,6.04586 6.71009,19.63848 8.887,24.49378 1.96041,4.37248 2.0771,5.6631 1.48048,16.37574 -0.39642,7.11803 -0.23534,14.2449 0.41525,18.37214 2.2373,14.19306 2.18527,18.76521 -0.38363,33.71478 -5.38034,31.31045 -8.83836,47.54838 -10.52208,49.40885 -1.33151,1.47131 -1.47982,2.38548 -0.71387,4.40008 1.41647,3.72562 0.11059,6.1796 -7.82962,14.71324 -7.0168,7.5412 -7.06779,7.63501 -10.82493,19.91808 -3.27572,10.70908 -4.12929,12.52441 -6.4543,13.72672 -3.81773,1.97421 -9.45194,1.71084 -21.40515,-1.00059 -13.096,-2.97065 -20.58096,-6.2638 -21.36847,-9.40146 -0.31669,-1.26182 0.5804,-7.25348 1.99356,-13.3148 2.51127,-10.77147 2.54262,-11.29714 1.38751,-23.25696 -1.26863,-13.13506 -0.97459,-16.59289 1.9787,-23.2693 1.59303,-3.60132 2.05795,-8.00831 2.92595,-27.73555 1.49388,-33.95201 1.5372,-36.81328 0.57728,-38.13139 -0.47727,-0.65537 -0.58157,-2.33189 -0.23178,-3.72557 0.40797,-1.62546 0.14005,-3.09778 -0.74724,-4.10644 -1.41702,-1.61091 -12.29829,-21.72024 -15.37969,-28.42274 -0.94353,-2.05235 -1.96927,-3.47781 -2.2794,-3.16767 -0.31013,0.31013 -0.061,3.93996 0.55346,8.0663 1.41547,9.50438 1.49289,12.3546 0.60927,22.43328 -0.55148,6.29014 -0.34608,9.7507 0.88624,14.93082 1.27864,5.37486 1.47373,9.18596 0.96156,18.78394 -0.62519,11.71633 -0.54438,12.4436 2.99689,26.97182 2.60034,10.66806 3.64089,17.05466 3.64459,22.36974 0.005,6.85146 -0.32654,8.10662 -4.19526,15.89411 -3.74542,7.5393 -4.24507,9.34214 -4.6127,16.64307 -0.33497,6.65282 -0.79849,8.61209 -2.4723,10.45061 -5.21071,5.72335 -20.55026,10.56698 -43.48106,13.72961 -18.21159,2.51176 -74.99952,3.64269 -97.1675,1.93512 -34.84078,-2.68375 -56.19195,-8.14527 -63.24444,-16.1776 -2.63638,-3.00268 -2.8639,-3.8406 -2.8639,-10.54705 0,-6.62951 -0.36747,-8.02681 -4.08256,-15.52418 -5.754706,-11.61348 -5.939152,-17.03574 -1.24865,-36.70774 3.30998,-13.88208 3.51021,-15.6149 3.28298,-28.41273 -0.17969,-10.11984 0.21024,-15.90766 1.51438,-22.47869 1.43839,-7.24737 1.55852,-9.63552 0.66349,-13.19002 -1.38445,-5.49809 -1.31694,-11.61177 0.23259,-21.06707 0.6729,-4.10598 0.97503,-7.45832 0.67143,-7.44962 -0.30362,0.009 -3.36962,5.52118 -6.81334,12.25 -3.443722,6.72882 -7.607042,14.25737 -9.251822,16.73013 -2.22764,3.34902 -2.758432,4.91061 -2.080755,6.12155 0.647783,1.15753 0.441564,2.14297 -0.716154,3.42224 -0.986338,1.0899 -1.319371,2.29258 -0.846638,3.05748 0.428597,0.6935 0.875231,4.9472 0.992521,9.45267 0.117288,4.5055 0.628687,17.55872 1.13644,29.00717 0.814099,18.35569 1.178925,21.37212 3.087403,25.5269 1.773586,3.86114 2.144053,6.27633 2.05251,13.38104 -0.06144,4.76824 -0.516571,11.05364 -1.011408,13.96756 -0.764277,4.50058 -0.4698,7.23561 1.956409,18.17055 2.761154,12.4446 2.798384,12.93761 1.119784,14.82986 -2.646168,2.98298 -8.722432,5.3295 -20.608297,7.95842 -11.171666,2.47096 -17.17282,2.88028 -20.800325,1.41873 z"
     id="path3975"
     inkscape:connector-curvature="0" />
</svg>
