<?xml version="1.0" encoding="UTF-8" standalone="no"?>
<!-- Created with Inkscape (http://www.inkscape.org/) -->

<svg
   xmlns:dc="http://purl.org/dc/elements/1.1/"
   xmlns:cc="http://creativecommons.org/ns#"
   xmlns:rdf="http://www.w3.org/1999/02/22-rdf-syntax-ns#"
   xmlns:svg="http://www.w3.org/2000/svg"
   xmlns="http://www.w3.org/2000/svg"
   xmlns:sodipodi="http://sodipodi.sourceforge.net/DTD/sodipodi-0.dtd"
   xmlns:inkscape="http://www.inkscape.org/namespaces/inkscape"
   id="svg2999"
   version="1.1"
   inkscape:version="0.48.2 r9819"
   width="425"
   height="425"
   sodipodi:docname="hooded.svg">
  <metadata
     id="metadata3005">
    <rdf:RDF>
      <cc:Work
         rdf:about="">
        <dc:format>image/svg+xml</dc:format>
        <dc:type
           rdf:resource="http://purl.org/dc/dcmitype/StillImage" />
        <dc:title></dc:title>
      </cc:Work>
    </rdf:RDF>
  </metadata>
  <defs
     id="defs3003" />
  <sodipodi:namedview
     pagecolor="#ffffff"
     bordercolor="#666666"
     borderopacity="1"
     objecttolerance="10"
     gridtolerance="10"
     guidetolerance="10"
     inkscape:pageopacity="0"
     inkscape:pageshadow="2"
     inkscape:window-width="1920"
     inkscape:window-height="1018"
     id="namedview3001"
     showgrid="false"
     inkscape:zoom="1.1105882"
     inkscape:cx="-3.1522715"
     inkscape:cy="170.77342"
     inkscape:window-x="-8"
     inkscape:window-y="-8"
     inkscape:window-maximized="1"
     inkscape:current-layer="svg2999" />
  <path
     style="fill:#008000"
     d="m 53.985041,402.50755 c -2.852231,-1.14919 -3.522739,-2.56987 -7.669346,-16.24991 -3.471506,-11.45282 -3.665793,-11.80632 -10.205881,-18.569 -8.146089,-8.42335 -9.214941,-10.31262 -8.373093,-14.80006 0.459956,-2.45178 0.212959,-3.9508 -0.846907,-5.13984 -1.478724,-1.65896 -3.94961,-13.35884 -9.683521,-45.8524 -3.132028,-17.74892 -3.24042,-23.09828 -0.833322,-41.12625 0.861571,-6.45274 0.889466,-10.68077 0.106863,-16.19706 -1.098565,-7.7434 -0.581901,-12.08042 2.058699,-17.2813 0.822359,-1.61971 2.273141,-5.37448 3.22396,-8.34394 2.562191,-8.00187 17.967518,-48.15035 29.003118,-75.58625 5.320562,-13.2276 11.430534,-28.99758 13.577715,-35.0444 9.085433,-25.586116 15.255806,-33.03101 35.469196,-42.795548 10.419288,-5.033275 15.554148,-6.977644 30.180508,-11.428169 11.86381,-3.609932 13.01756,-4.828581 13.92294,-14.706096 0.48218,-5.260517 1.2104,-7.464287 3.42665,-10.369943 3.46682,-4.545236 11.00159,-8.1461 19.96418,-9.540884 8.09116,-1.259168 44.76258,-1.602756 75.60537,-0.708376 l 22.84879,0.662569 6.31951,3.111083 c 9.06409,4.462238 12.26249,10.006191 12.27482,21.276594 0.004,3.632595 0.50751,5.455801 1.83977,6.661476 1.00886,0.913005 7.72393,3.437293 14.92237,5.609529 7.25049,2.187943 18.58225,6.618759 25.40621,9.934048 19.01782,9.239444 25.46038,17.060734 34.27368,41.608397 2.11247,5.88385 6.50668,17.10311 9.76492,24.93168 7.05488,16.9508 26.05233,65.79823 27.4877,70.67806 1.81223,6.1611 6.83799,20.0128 9.05639,24.96064 1.99778,4.45582 2.11669,5.77104 1.5087,16.68787 -0.40397,7.2537 -0.23982,14.51641 0.42317,18.72232 2.27994,14.46358 2.22692,19.12288 -0.39095,34.35739 -5.48289,31.90723 -9.00682,48.45466 -10.72263,50.3506 -1.35689,1.49935 -1.50803,2.43094 -0.72748,4.48394 1.44347,3.79663 0.1127,6.29739 -7.97885,14.99368 -7.15054,7.68494 -7.2025,7.78054 -11.03126,20.29772 -3.33815,10.9132 -4.20799,12.76313 -6.57732,13.98836 -3.89049,2.01184 -9.63209,1.74345 -21.81314,-1.01966 -13.34561,-3.02727 -20.97323,-6.38319 -21.77575,-9.58066 -0.32273,-1.28587 0.59146,-7.39173 2.03155,-13.56858 2.55914,-10.97678 2.59109,-11.51247 1.41396,-23.70024 -1.29281,-13.38542 -0.99317,-16.90916 2.01641,-23.71282 1.6234,-3.66997 2.09718,-8.16095 2.98172,-28.2642 1.52236,-34.59914 1.5665,-37.51495 0.58829,-38.85818 -0.48637,-0.66787 -0.59266,-2.37634 -0.2362,-3.79659 0.41574,-1.65644 0.14272,-3.15682 -0.76148,-4.18471 -1.44403,-1.64161 -12.5327,-22.13423 -15.67283,-28.96448 -0.96152,-2.09147 -2.00681,-3.5441 -2.32285,-3.22805 -0.31604,0.31604 -0.0622,4.01506 0.56401,8.22005 1.44245,9.68553 1.52134,12.59008 0.62088,22.86086 -0.56199,6.41004 -0.35267,9.93655 0.90313,15.21541 1.30301,5.47731 1.50182,9.36105 0.97989,19.14197 -0.63711,11.93964 -0.55476,12.68077 3.05401,27.48591 2.64991,10.87139 3.71029,17.37972 3.71406,22.79611 0.005,6.98205 -0.33276,8.26113 -4.27522,16.19705 -3.81681,7.68301 -4.32599,9.52021 -4.70062,16.9603 -0.34136,6.77962 -0.81371,8.77624 -2.51943,10.6498 -5.31002,5.83244 -20.94195,10.76839 -44.30982,13.9913 -18.5587,2.55963 -76.42903,3.71212 -99.01954,1.972 -35.50485,-2.7349 -57.26298,-8.30052 -64.44989,-16.48595 -2.68663,-3.05991 -2.91849,-3.9138 -2.91849,-10.74808 0,-6.75587 -0.37447,-8.1798 -4.16037,-15.82007 -5.864395,-11.83484 -6.052356,-17.36045 -1.27245,-37.4074 3.37307,-14.14668 3.57711,-15.91253 3.34555,-28.95429 -0.18311,-10.31272 0.21425,-16.21086 1.54325,-22.90714 1.4658,-7.3855 1.58822,-9.81917 0.67613,-13.44142 -1.41083,-5.60289 -1.34204,-11.83309 0.23703,-21.46862 0.68572,-4.18424 0.99361,-7.60047 0.68422,-7.59161 -0.3094,0.009 -3.43384,5.62642 -6.943198,12.48349 -3.509362,6.85707 -7.752036,14.52912 -9.428166,17.04901 -2.2701,3.41286 -2.811009,5.00421 -2.120415,6.23823 0.66013,1.17959 0.44998,2.18382 -0.729804,3.48747 -1.005138,1.11067 -1.344519,2.33628 -0.862775,3.11576 0.436766,0.70671 0.891913,5.04149 1.011438,9.63284 0.119524,4.59137 0.64067,17.89339 1.158101,29.56005 0.829616,18.70556 1.201396,21.77948 3.14625,26.01345 1.807391,3.93473 2.184919,6.39596 2.091631,13.63609 -0.06261,4.85912 -0.526417,11.26432 -1.030685,14.23378 -0.778845,4.58636 -0.478755,7.37352 1.993698,18.51689 2.813787,12.68179 2.851724,13.1842 1.141128,15.11252 -2.696605,3.03984 -8.888684,5.43108 -21.001097,8.11011 -11.384601,2.51806 -17.500138,2.93518 -21.196785,1.44577 z"
     id="path3975"
     inkscape:connector-curvature="0" />
</svg>
