<?xml version="1.0" encoding="UTF-8" standalone="no"?>
<!-- Created with Inkscape (http://www.inkscape.org/) -->

<svg
   xmlns:dc="http://purl.org/dc/elements/1.1/"
   xmlns:cc="http://creativecommons.org/ns#"
   xmlns:rdf="http://www.w3.org/1999/02/22-rdf-syntax-ns#"
   xmlns:svg="http://www.w3.org/2000/svg"
   xmlns="http://www.w3.org/2000/svg"
   xmlns:sodipodi="http://sodipodi.sourceforge.net/DTD/sodipodi-0.dtd"
   xmlns:inkscape="http://www.inkscape.org/namespaces/inkscape"
   width="425"
   height="425"
   id="svg2"
   version="1.1"
   inkscape:version="0.47 r22583"
   sodipodi:docname="hoodie.svg">
  <defs
     id="defs4">
    <inkscape:perspective
       sodipodi:type="inkscape:persp3d"
       inkscape:vp_x="0 : 526.18109 : 1"
       inkscape:vp_y="0 : 1000 : 0"
       inkscape:vp_z="744.09448 : 526.18109 : 1"
       inkscape:persp3d-origin="372.04724 : 350.78739 : 1"
       id="perspective10" />
    <inkscape:perspective
       id="perspective3040"
       inkscape:persp3d-origin="0.5 : 0.33333333 : 1"
       inkscape:vp_z="1 : 0.5 : 1"
       inkscape:vp_y="0 : 1000 : 0"
       inkscape:vp_x="0 : 0.5 : 1"
       sodipodi:type="inkscape:persp3d" />
    <inkscape:perspective
       id="perspective3093"
       inkscape:persp3d-origin="0.5 : 0.33333333 : 1"
       inkscape:vp_z="1 : 0.5 : 1"
       inkscape:vp_y="0 : 1000 : 0"
       inkscape:vp_x="0 : 0.5 : 1"
       sodipodi:type="inkscape:persp3d" />
    <inkscape:perspective
       id="perspective3109"
       inkscape:persp3d-origin="0.5 : 0.33333333 : 1"
       inkscape:vp_z="1 : 0.5 : 1"
       inkscape:vp_y="0 : 1000 : 0"
       inkscape:vp_x="0 : 0.5 : 1"
       sodipodi:type="inkscape:persp3d" />
  </defs>
  <sodipodi:namedview
     id="base"
     pagecolor="#ffffff"
     bordercolor="#666666"
     borderopacity="1.0"
     inkscape:pageopacity="0.0"
     inkscape:pageshadow="2"
     inkscape:zoom="0.98994949"
     inkscape:cx="325.12411"
     inkscape:cy="214.35735"
     inkscape:document-units="px"
     inkscape:current-layer="layer1"
     showgrid="false"
     inkscape:window-width="1366"
     inkscape:window-height="696"
     inkscape:window-x="-3"
     inkscape:window-y="0"
     inkscape:window-maximized="1" />
  <metadata
     id="metadata7">
    <rdf:RDF>
      <cc:Work
         rdf:about="">
        <dc:format>image/svg+xml</dc:format>
        <dc:type
           rdf:resource="http://purl.org/dc/dcmitype/StillImage" />
        <dc:title />
      </cc:Work>
    </rdf:RDF>
  </metadata>
  <g
     inkscape:label="Layer 1"
     inkscape:groupmode="layer"
     id="layer1"
     transform="translate(0,-627.36218)">
    <path
       style="fill:#00807a;fill-opacity:1"
       d="m 48.402254,1035.104 c -0.90024,-0.6851 -3.34552,-6.8583 -5.43395,-13.7182 -3.64495,-11.9725 -4.04219,-12.733 -9.91031,-18.9724 -9.78553,-10.40467 -10.89202,-12.33947 -9.48873,-16.59147 1.06528,-3.22787 0.97579,-3.71597 -0.92544,-5.04767 -1.15762,-0.8108 -2.10477,-2.5524 -2.10477,-3.8701 0,-1.3177 -1.55638,-10.17966 -3.45862,-19.69326 -7.88742,-39.44696 -8.27224,-43.72514 -5.55867,-61.79745 0.6844,-4.55812 0.86678,-11.96372 0.46496,-18.87975 -0.62009,-10.67256 -0.50187,-11.79117 1.90239,-18 1.40996,-3.64114 6.24704,-16.52025 10.74907,-28.62025 4.50203,-12.1 13.3383,-34.825 19.63615,-50.5 6.29786,-15.675 13.40616,-34.01359 15.79622,-40.75243 6.05569,-17.07416 9.82762,-24.25891 16.63708,-31.69024 5.05199,-5.51335 7.6097,-7.27361 18.1072,-12.46163 11.661296,-5.7632 17.501516,-7.95845 34.980276,-13.14855 4.26584,-1.26669 8.36462,-3.01049 9.1084,-3.87511 2.00108,-2.32619 3.63554,-7.84292 3.63554,-12.27092 0,-2.14524 0.73609,-5.32388 1.63576,-7.06365 6.01759,-11.63673 22.07259,-14.05919 84.33459,-12.72484 41.32257,0.88559 42.66937,1.11956 49.24888,8.55551 4.25931,4.81374 5.60787,8.56986 5.72,15.93186 0.0503,3.3 0.422,6.49513 0.82608,7.1003 1.27933,1.91597 4.80478,3.32209 17.43551,6.95412 16.22106,4.66445 35.41001,14.01853 42.48609,20.71079 7.62395,7.21042 10.61377,12.49561 17.74472,31.36782 3.50529,9.27683 8.25444,21.34168 10.55366,26.81078 7.60211,18.08293 24.7819,62.81707 29.78745,77.56299 2.70841,7.97875 5.75378,16.07875 6.76749,18 1.58751,3.00874 1.86142,6.12823 1.97507,22.4932 0.0878,12.64577 0.55438,20.07627 1.39506,22.21819 2.10478,5.36262 0.88336,15.43764 -6.39888,52.78181 -1.93054,9.9 -3.51039,19.01551 -3.51077,20.25661 -3.9e-4,1.2411 -1.084,3.1985 -2.40801,4.3497 -2.26319,1.9678 -2.32413,2.2922 -1.01799,5.41827 1.35891,3.2523 1.2899,3.4574 -3.15239,9.3669 -2.49794,3.323 -6.2565,7.51927 -8.35236,9.32507 -3.41305,2.9408 -4.19676,4.5876 -7.51108,15.7827 -2.03524,6.8748 -4.41332,13.2873 -5.28464,14.25 -4.44114,4.9074 -39.42664,-1.7035 -45.08296,-8.5189 -0.91414,-1.1015 -0.51819,-4.4204 1.78397,-14.9532 2.55542,-11.69157 2.82782,-14.33797 1.99761,-19.40737 -1.70585,-10.41637 -1.19577,-22.29907 1.1749,-27.36978 1.83927,-3.93411 2.21789,-7.39233 3.01084,-27.5 0.49886,-12.65 1.26927,-24.58847 1.71202,-26.52993 0.47771,-2.09476 0.39144,-4.45674 -0.21218,-5.80951 -0.72252,-1.61924 -0.64914,-3.29739 0.25335,-5.79317 1.13001,-3.12498 1.06837,-3.66142 -0.55735,-4.85017 -1.74797,-1.27815 -1.75074,-1.42183 -0.0633,-3.28643 1.68939,-1.86676 1.68236,-2.00909 -0.16514,-3.34032 -2.06632,-1.48889 -12.42378,-20.40273 -18.14555,-33.13572 -1.91425,-4.25988 -3.60967,-7.35972 -3.76761,-6.88852 -0.15793,0.47119 0.62957,5.94776 1.75,12.17014 2.33408,12.96234 2.51812,18.13666 0.86497,24.31762 -0.97304,3.63809 -0.85635,5.97661 0.6868,13.76435 1.3943,7.03651 1.80048,13.00624 1.62489,23.88166 -0.22086,13.67927 -0.0282,15.34903 3.40332,29.5 4.85604,20.02531 4.65939,25.71561 -1.30464,37.75148 -3.99169,8.0556 -4.23818,9.0527 -4.23818,17.14447 l 0,8.5914 -4.10518,2.9738 c -8.43197,6.108 -26.37479,10.8379 -51.89482,13.6798 -21.84828,2.433 -82.10374,2.4472 -103.5925,0.024 -26.30089,-2.9654 -42.16733,-6.9829 -51.06666,-12.9304 l -4.84084,-3.235 -0.5,-9 c -0.45045,-8.10797 -0.92991,-9.85957 -4.83787,-17.67327 -6.228966,-12.45447 -6.395966,-16.36697 -1.529966,-35.84454 3.746896,-14.99802 3.859726,-15.9558 3.608506,-30.62985 -0.18678,-10.90991 0.17243,-17.00944 1.28398,-21.80236 1.18873,-5.1257 1.39258,-9.57204 0.88725,-19.3523 -0.50381,-9.75072 -0.27961,-14.68843 0.96601,-21.27556 0.89215,-4.71786 1.62209,-9.12479 1.62209,-9.79318 0,-0.66839 -3.8471,6.34168 -8.549106,15.57793 -4.70201,9.23625 -9.8458,18.41546 -11.43065,20.39824 -2.70569,3.38506 -2.77897,3.71091 -1.20089,5.33938 1.5773,1.62765 1.54297,1.8281 -0.5582,3.2595 -2.14229,1.45942 -2.16853,1.64426 -0.60847,4.28524 1.30649,2.21171 1.41588,3.37539 0.55064,5.85744 -0.63732,1.82821 -0.74819,4.25351 -0.27058,5.91885 0.44505,1.55181 1.139,13.1519 1.5421,25.778 0.67753,21.2217 0.91399,23.35551 3.12904,28.23617 2.7312,6.01797 3.13127,14.19587 1.29761,26.52454 -0.99876,6.7152 -0.85505,8.4806 1.58262,19.44107 1.47462,6.6304 2.53145,13.1125 2.34851,14.4049 -0.45002,3.179 -6.68214,6.155 -19.53768,9.3296 -11.04569,2.7277 -22.70893,3.283 -25.43174,1.2108 z"
       id="path3099" />
  </g>
</svg>
