<?xml version="1.0" encoding="UTF-8" standalone="no"?>
<!-- Created with Inkscape (http://www.inkscape.org/) -->

<svg
   xmlns:dc="http://purl.org/dc/elements/1.1/"
   xmlns:cc="http://creativecommons.org/ns#"
   xmlns:rdf="http://www.w3.org/1999/02/22-rdf-syntax-ns#"
   xmlns:svg="http://www.w3.org/2000/svg"
   xmlns="http://www.w3.org/2000/svg"
   version="1.1"
   width="425"
   height="425"
   id="svg2">
  <defs
     id="defs4" />
  <metadata
     id="metadata7">
    <rdf:RDF>
      <cc:Work
         rdf:about="">
        <dc:format>image/svg+xml</dc:format>
        <dc:type
           rdf:resource="http://purl.org/dc/dcmitype/StillImage" />
        <dc:title></dc:title>
      </cc:Work>
    </rdf:RDF>
  </metadata>
  <g
     transform="translate(0,-627.36218)"
     id="layer1">
    <path
       d="m 171.36048,1023.1586 c -19.89778,-1.5475 -35.30272,-3.7036 -46.81979,-6.553 -10.04426,-2.485 -24.3017,-9.08 -26.31252,-12.1713 -1.295818,-1.992 -0.724198,-7.29202 5.47078,-50.72446 3.80479,-26.675 7.30207,-50.80675 7.77174,-53.62612 0.46968,-2.81936 0.50896,-7.99436 0.0873,-11.5 -0.46722,-3.88436 -0.34919,-8.05638 0.30217,-10.68157 0.68616,-2.7654 0.78556,-7.77781 0.27764,-14 -0.43516,-5.33077 -0.7127,-13.84021 -0.61678,-18.90987 0.15295,-8.08286 -0.25528,-10.54488 -3.3162,-20 -3.96438,-12.24591 -5.72333,-15.28326 -8.84901,-15.28051 -2.384658,0.002 -7.386698,6.68444 -9.729658,12.99807 -2.22505,5.9959 -2.75888,6.30833 -9.67506,5.66249 -13.25295,-1.23758 -40.98337,-12.91623 -49.85351,-20.99578 l -4.57443,-4.16671 12.64028,-29.5 c 26.18057,-61.10041 35.4716,-76.90461 48.78643,-82.98654 9.85623,-4.50212 24.050808,-10.07429 35.712638,-14.01921 16.36561,-5.5361 28.17946,-10.6773 35.11382,-15.28097 3.0876,-2.04984 7.62369,-4.33185 10.08019,-5.07115 3.96417,-1.19304 4.98331,-1.14112 9.06397,0.46178 9.47095,3.72022 20.6005,5.3402 36.74202,5.34804 16.47752,0.008 26.64164,-1.59162 36.34819,-5.72046 5.8078,-2.47045 8.40751,-1.8359 18.63732,4.54902 9.0885,5.67258 18.09221,9.6031 36.01449,15.72195 8.525,2.91051 17.14803,6.11464 19.1623,7.12028 2.01426,1.00563 6.57847,2.92607 10.14268,4.26763 19.36307,7.28824 25.32802,16.88279 57.7956,92.96347 4.89468,11.46961 8.89942,21.46753 8.89942,22.2176 0,2.01039 -9.31397,8.6234 -18.84867,13.38277 -11.03747,5.50948 -27.58347,10.97463 -35.4503,11.70925 l -6.32924,0.59103 -2.67403,-6.16581 c -3.17349,-7.31744 -7.53474,-13.08861 -9.89106,-13.08865 -2.60683,-5e-5 -4.55127,3.55128 -8.32233,15.19988 -3.06261,9.46024 -3.44854,11.83533 -3.33105,20.5 0.0731,5.39005 -0.3129,13.17509 -0.85776,17.30009 -0.73433,5.55946 -0.65917,9.09961 0.29051,13.68233 0.88168,4.25462 1.01302,8.07929 0.42123,12.26604 -0.67465,4.77289 -0.34774,9.25832 1.51722,20.81767 1.30743,8.10368 4.21384,28.23396 6.4587,44.73396 2.24485,16.5 4.75412,34.23308 5.57614,39.40684 1.4909,9.38372 1.48897,9.41282 -0.78239,11.83192 -3.69785,3.9383 -15.86078,9.1586 -27.45871,11.7851 -29.22221,6.6177 -86.84558,9.2516 -129.62028,5.9249 z"
       id="path3787"
       style="fill:#ffff00" />
  </g>
</svg>
