<?xml version="1.0" encoding="UTF-8" standalone="no"?>
<!-- Created with Inkscape (http://www.inkscape.org/) -->

<svg
   xmlns:dc="http://purl.org/dc/elements/1.1/"
   xmlns:cc="http://creativecommons.org/ns#"
   xmlns:rdf="http://www.w3.org/1999/02/22-rdf-syntax-ns#"
   xmlns:svg="http://www.w3.org/2000/svg"
   xmlns="http://www.w3.org/2000/svg"
   xmlns:sodipodi="http://sodipodi.sourceforge.net/DTD/sodipodi-0.dtd"
   xmlns:inkscape="http://www.inkscape.org/namespaces/inkscape"
   id="svg2999"
   version="1.1"
   inkscape:version="0.48.2 r9819"
   width="425"
   height="425"
   sodipodi:docname="han5500.svg">
  <metadata
     id="metadata3005">
    <rdf:RDF>
      <cc:Work
         rdf:about="">
        <dc:format>image/svg+xml</dc:format>
        <dc:type
           rdf:resource="http://purl.org/dc/dcmitype/StillImage" />
        <dc:title></dc:title>
      </cc:Work>
    </rdf:RDF>
  </metadata>
  <defs
     id="defs3003" />
  <sodipodi:namedview
     pagecolor="#ffffff"
     bordercolor="#666666"
     borderopacity="1"
     objecttolerance="10"
     gridtolerance="10"
     guidetolerance="10"
     inkscape:pageopacity="0"
     inkscape:pageshadow="2"
     inkscape:window-width="1920"
     inkscape:window-height="1018"
     id="namedview3001"
     showgrid="false"
     inkscape:zoom="4.4423528"
     inkscape:cx="98.066949"
     inkscape:cy="293.65983"
     inkscape:window-x="-8"
     inkscape:window-y="-8"
     inkscape:window-maximized="1"
     inkscape:current-layer="svg2999"
     showguides="true"
     inkscape:guide-bbox="true" />
  <path
     inkscape:connector-curvature="0"
     id="path3125"
     d="m 132.56347,407.12676 c 1.10479,-0.29677 -8.8739,-1.77672 -22.17488,-3.28879 -13.300992,-1.51207 -26.746778,-3.32293 -29.879538,-4.02414 l -5.695932,-1.27491 0,-5.17129 c 0,-2.84421 0.910718,-10.11788 2.023823,-16.16372 1.364545,-7.41159 2.351735,-19.17319 3.030457,-36.10561 0.946342,-23.60852 1.721894,-34.86442 3.979812,-57.76033 0.517614,-5.24866 0.938589,-23.10413 0.935516,-39.67883 -0.003,-16.57471 0.424831,-36.69036 0.950902,-44.70147 1.519346,-23.13712 1.400169,-46.46164 -0.248919,-48.71729 -1.318938,-1.80407 -1.618938,-1.69321 -6.279441,2.32037 C 63.727766,165.88989 55.514602,171.38086 52.166398,170.6378 50.427611,170.25191 29.712643,146.28869 20.638095,134.16565 10.336238,120.40299 4.5083536,111.51823 4.5083536,109.57539 c 0,-2.15403 8.2643664,-9.939236 13.0565994,-12.299583 1.933382,-0.952263 6.078068,-2.219956 9.210417,-2.817088 4.979626,-0.949298 7.124846,-2.237946 17.074015,-10.256436 6.258359,-5.043892 18.610183,-16.479673 27.448497,-25.412835 8.838313,-8.933162 17.510055,-17.223275 19.270536,-18.42248 3.669668,-2.499697 22.440782,-9.415637 39.810742,-14.667688 6.53216,-1.975081 12.85959,-4.232968 14.06096,-5.017513 3.72115,-2.430082 20.53721,-8.565957 23.48896,-8.570708 1.53992,-0.002 5.96355,1.569202 9.83031,3.492611 8.49684,4.226499 21.02079,7.561701 28.39481,7.561701 5.23914,0 19.89782,-3.185789 23.47901,-5.102719 3.1231,-1.671714 10.79345,-8.7306891 10.16734,-9.3569115 -0.3345,-0.3345578 1.07567,-0.6082815 3.13372,-0.6082815 2.23886,0 3.49257,0.4034985 3.12118,1.0045274 -0.3414,0.5524901 0.2832,1.0045266 1.38799,1.0045266 1.10479,0 2.29203,0.458497 2.6383,1.018883 1.31018,2.120286 8.35955,4.860477 17.56732,6.828656 14.86625,3.177703 53.13525,14.751566 59.15137,17.889428 2.98014,1.554355 7.95169,5.483766 11.04789,8.731996 3.0962,3.24824 10.13995,9.34779 15.65275,13.55456 8.83892,6.744818 10.67859,7.730552 15.56749,8.341546 4.69656,0.586945 7.45933,1.959511 18.07113,8.977813 6.88987,4.556717 16.51499,10.270046 21.38922,12.696292 4.87433,2.426244 9.1118,5.061542 9.41662,5.856214 0.68698,1.7905 -4.44537,11.086209 -15.51977,28.109419 -4.67256,7.18237 -10.61703,17.57923 -13.21007,23.10414 -2.59304,5.52489 -5.421,10.62454 -6.28454,11.33254 -1.30024,1.06615 -3.09843,0.78248 -10.46808,-1.65149 -4.89401,-1.61634 -11.42975,-3.4568 -14.52386,-4.08993 -3.97182,-0.81273 -6.46292,-2.02528 -8.47383,-4.12453 -1.56649,-1.63537 -3.60569,-2.97339 -4.53155,-2.97339 -2.3032,0 -10.99742,9.47762 -10.99742,11.98836 0,1.11604 1.16961,5.09074 2.59913,8.83265 2.4753,6.47936 3.54723,12.88789 8.02697,47.98912 0.84613,6.62988 1.26885,13.913 0.93939,16.18469 -0.76365,5.26543 2.83635,40.53709 6.08307,59.59988 1.36973,8.04259 2.94878,17.56113 3.50901,21.15232 0.56013,3.59119 1.42769,19.41249 1.92785,35.15846 0.5988,18.84826 1.41333,30.68815 2.38444,34.6562 0.81122,3.31494 1.62374,9.39953 1.80573,13.52131 l 0.33073,7.49413 -3.40717,0.69698 c -1.87392,0.38332 -9.97954,0.0683 -18.01242,-0.70005 -8.03288,-0.76835 -23.67108,-1.66516 -34.75157,-1.99291 -19.70008,-0.58272 -28.32718,-0.1319 -58.31176,3.04715 -7.73353,0.81993 -23.77808,1.94622 -35.65456,2.50283 -43.84334,2.05482 -48.77697,2.39104 -45.6981,3.11419 1.65718,0.38923 -5.57416,0.70874 -16.06966,0.71002 -10.4955,9.8e-4 -18.17881,-0.24047 -17.07402,-0.53723 z"
     style="fill:#feb900"
     sodipodi:nodetypes="ssscsssssssssssssssssscssssssssssssssscsscsscsssssscscccsssssscs" />
</svg>
