<?xml version="1.0" encoding="UTF-8" standalone="no"?>
<!-- Created with Inkscape (http://www.inkscape.org/) -->

<svg
   xmlns:dc="http://purl.org/dc/elements/1.1/"
   xmlns:cc="http://creativecommons.org/ns#"
   xmlns:rdf="http://www.w3.org/1999/02/22-rdf-syntax-ns#"
   xmlns:svg="http://www.w3.org/2000/svg"
   xmlns="http://www.w3.org/2000/svg"
   xmlns:sodipodi="http://sodipodi.sourceforge.net/DTD/sodipodi-0.dtd"
   xmlns:inkscape="http://www.inkscape.org/namespaces/inkscape"
   id="svg2999"
   version="1.1"
   inkscape:version="0.48.2 r9819"
   width="425"
   height="425"
   sodipodi:docname="lem64000.svg">
  <metadata
     id="metadata3005">
    <rdf:RDF>
      <cc:Work
         rdf:about="">
        <dc:format>image/svg+xml</dc:format>
        <dc:type
           rdf:resource="http://purl.org/dc/dcmitype/StillImage" />
        <dc:title></dc:title>
      </cc:Work>
    </rdf:RDF>
  </metadata>
  <defs
     id="defs3003" />
  <sodipodi:namedview
     pagecolor="#ffffff"
     bordercolor="#666666"
     borderopacity="1"
     objecttolerance="10"
     gridtolerance="10"
     guidetolerance="10"
     inkscape:pageopacity="0"
     inkscape:pageshadow="2"
     inkscape:window-width="1920"
     inkscape:window-height="1018"
     id="namedview3001"
     showgrid="false"
     inkscape:zoom="0.5552941"
     inkscape:cx="569.42292"
     inkscape:cy="487.63598"
     inkscape:window-x="-8"
     inkscape:window-y="-8"
     inkscape:window-maximized="1"
     inkscape:current-layer="svg2999" />
  <path
     inkscape:connector-curvature="0"
     id="path3125"
     d="m 136,409.32833 c 1.1,-0.29543 -8.83544,-1.76871 -22.07876,-3.27397 -13.24333,-1.50525 -26.63083,-3.30795 -29.75001,-4.00599 l -5.67124,-1.26917 0,-5.14798 c 0,-2.83139 0.90677,-10.07228 2.01505,-16.09087 1.35863,-7.37819 2.34154,-19.08678 3.01732,-35.94289 0.94224,-23.50211 1.71443,-34.70728 3.96256,-57.5 0.51537,-5.225 0.93452,-23 0.93146,-39.5 -0.003,-16.5 0.42299,-36.525 0.94678,-44.5 1.51276,-23.03284 1.3941,-46.25223 -0.24784,-48.49772 C 87.8121,151.8038 87.5134,151.91416 82.8731,155.90966 67.46269,169.17872 59.28513,174.64495 55.95144,173.90523 54.22019,173.52108 33.59502,149.66586 24.55981,137.59746 14.30261,123.89683 8.4999895,115.05211 8.4999895,113.11803 c 0,-2.14433 8.2285405,-9.89444 13.0000005,-12.24415 1.925,-0.947971 6.05172,-2.209951 9.17049,-2.804391 4.95804,-0.94502 7.09396,-2.22786 17,-10.21021 6.23123,-5.02116 18.52951,-16.4054 27.32951,-25.2983 8.8,-8.8929 17.43415,-17.14565 19.187,-18.33945 3.65376,-2.48843 22.3435,-9.3732 39.63817,-14.60158 6.50384,-1.96618 12.80384,-4.21389 14,-4.9949 3.70502,-2.41913 20.44818,-8.52735 23.38714,-8.53208 1.53324,-0.002 5.9377,1.56213 9.7877,3.47687 8.46,4.20745 20.92966,7.52762 28.27172,7.52762 5.21642,0 19.81156,-3.17143 23.37723,-5.07972 3.10956,-1.66418 10.74666,-8.69134 10.12326,-9.31474 -0.33305,-0.33305 1.07101,-0.60554 3.12014,-0.60554 2.22915,0 3.47743,0.40168 3.10765,1 -0.33992,0.55 0.28197,1 1.38197,1 1.1,0 2.28209,0.45643 2.62686,1.01429 1.3045,2.11073 8.32332,4.83857 17.49117,6.79788 14.80181,3.16338 52.90491,14.68508 58.89495,17.8088 2.96722,1.54735 7.91722,5.45905 11,8.69264 3.08278,3.2336 10.096,9.30566 15.5849,13.49347 8.8006,6.71442 10.6323,7.69571 15.5,8.30395 4.6762,0.5843 7.427,1.95068 17.9928,8.93735 6.86,4.53618 16.4434,10.22376 21.2965,12.63907 4.8532,2.41531 9.0723,5.03873 9.3758,5.82982 0.684,1.78243 -4.4261,11.036241 -15.4525,27.982731 -4.6523,7.15 -10.571,17.5 -13.1528,23 -2.5818,5.5 -5.3975,10.57666 -6.2573,11.28147 -1.2946,1.06135 -3.085,0.77895 -10.4227,-1.64405 -4.8728,-1.60904 -11.3802,-3.44121 -14.4609,-4.07149 -3.9546,-0.80907 -6.4349,-2.01615 -8.4371,-4.10595 -1.5597,-1.62799 -3.59006,-2.95998 -4.5119,-2.95998 -2.29322,0 -10.94975,9.4349 -10.94975,11.93433 0,1.11101 1.16454,5.06779 2.58786,8.79284 2.46457,6.45016 3.53186,12.8298 7.99218,47.77283 0.84246,6.6 1.26335,13.85029 0.93531,16.11175 -0.76034,5.24169 2.82406,40.35439 6.0567,59.33127 1.3638,8.00634 2.936,17.48198 3.4938,21.05698 0.5577,3.575 1.4215,19.325 1.9195,35 0.5962,18.76331 1.4072,30.54983 2.3741,34.5 0.8077,3.3 1.6167,9.35717 1.7979,13.46037 l 0.3293,7.46036 -3.3924,0.69383 c -1.8658,0.3816 -9.93628,0.068 -17.93434,-0.69689 -7.99806,-0.76489 -23.56847,-1.65766 -34.60092,-1.98393 -19.61469,-0.58009 -28.20439,-0.13131 -58.05899,3.03342 -7.7,0.81624 -23.675,1.93744 -35.5,2.49155 -43.65328,2.04556 -48.56552,2.38026 -45.5,3.10015 1.65,0.38748 -5.55,0.70555 -16,0.70682 -10.45,0.001 -18.1,-0.23939 -17,-0.53481 z M 6.5789395,112.68079 c -0.0434,-1.05416 0.19293,-1.64479 0.52522,-1.3125 0.33229,0.3323 0.36782,1.1948 0.0789,1.91667 -0.31923,0.79773 -0.55619,0.56078 -0.60417,-0.60417 z"
     style="fill:#feb900" />
</svg>
