<?xml version="1.0" encoding="UTF-8" standalone="no"?>
<!-- Created with Inkscape (http://www.inkscape.org/) -->

<svg
   xmlns:dc="http://purl.org/dc/elements/1.1/"
   xmlns:cc="http://creativecommons.org/ns#"
   xmlns:rdf="http://www.w3.org/1999/02/22-rdf-syntax-ns#"
   xmlns:svg="http://www.w3.org/2000/svg"
   xmlns="http://www.w3.org/2000/svg"
   xmlns:sodipodi="http://sodipodi.sourceforge.net/DTD/sodipodi-0.dtd"
   xmlns:inkscape="http://www.inkscape.org/namespaces/inkscape"
   id="svg2999"
   version="1.1"
   inkscape:version="0.48.2 r9819"
   width="425"
   height="425"
   sodipodi:docname="han5500.svg">
  <metadata
     id="metadata3005">
    <rdf:RDF>
      <cc:Work
         rdf:about="">
        <dc:format>image/svg+xml</dc:format>
        <dc:type
           rdf:resource="http://purl.org/dc/dcmitype/StillImage" />
        <dc:title></dc:title>
      </cc:Work>
    </rdf:RDF>
  </metadata>
  <defs
     id="defs3003" />
  <sodipodi:namedview
     pagecolor="#ffffff"
     bordercolor="#666666"
     borderopacity="1"
     objecttolerance="10"
     gridtolerance="10"
     guidetolerance="10"
     inkscape:pageopacity="0"
     inkscape:pageshadow="2"
     inkscape:window-width="1920"
     inkscape:window-height="1018"
     id="namedview3001"
     showgrid="false"
     inkscape:zoom="8.8847056"
     inkscape:cx="345.19607"
     inkscape:cy="364.44416"
     inkscape:window-x="-8"
     inkscape:window-y="-8"
     inkscape:window-maximized="1"
     inkscape:current-layer="svg2999"
     showguides="true"
     inkscape:guide-bbox="true" />
  <path
     inkscape:connector-curvature="0"
     id="path3125"
     d="m 110.38859,403.83542 c -13.300992,-1.51378 -26.746778,-3.32668 -29.879538,-4.02869 l -5.695932,-1.27635 0,-5.17714 c 0,-2.84743 1.381923,-10.0614 2.023823,-16.182 0.80178,-7.64509 2.351735,-18.96977 3.030457,-35.92135 0.946342,-23.63522 1.609341,-35.12897 3.867259,-58.05078 0.517614,-5.25459 1.393338,-23.13385 1.048069,-39.72371 -0.340659,-16.36835 0.424831,-36.61932 0.950902,-44.63949 1.519346,-23.16329 1.400169,-46.62675 -0.248919,-48.88495 -1.318938,-1.80611 -1.618938,-1.69512 -6.279441,2.323 C 63.727766,165.61817 55.06439,171.34047 51.716186,170.59657 49.977399,170.21024 29.60009,146.10735 20.525542,133.9706 10.223685,120.19237 4.5083536,111.18501 4.5083536,109.23997 c 0,-2.15647 7.9267074,-10.625796 12.7189404,-12.988813 1.933382,-0.95334 6.190621,-2.335021 9.32297,-2.932828 4.979626,-0.950372 7.349952,-1.452607 17.299121,-9.480167 6.258359,-5.049598 18.610183,-16.498315 27.448497,-25.441583 8.838313,-8.943267 17.510055,-17.242758 19.270536,-18.443319 3.669668,-2.502525 22.440782,-9.426288 39.810742,-14.68428 6.53216,-1.977316 12.85959,-4.237757 14.06096,-5.023189 3.72115,-2.432831 20.53721,-8.575647 23.48896,-8.580404 1.53992,-0.002 5.96355,1.570977 9.83031,3.496562 8.49684,4.23128 21.02079,7.570255 28.39481,7.570255 5.23914,0 19.89782,-3.189393 23.47901,-5.108491 3.1231,-1.673605 10.79345,-8.7405655 10.16734,-9.3674963 -0.3345,-0.3349362 1.07567,-0.6089696 3.13372,-0.6089696 2.23886,0 3.49257,0.403955 3.12118,1.0056638 -0.3414,0.553115 0.2832,1.0056629 1.38799,1.0056629 1.10479,0 2.29203,0.4590152 2.6383,1.0200352 1.31018,2.122685 8.35955,4.865976 17.56732,6.836381 14.86625,3.181298 53.13525,14.768253 59.15137,17.909665 2.98014,1.556113 7.95169,5.489969 11.04789,8.741873 3.0962,3.251915 10.13995,9.358365 15.65275,13.569894 8.83892,6.752447 10.67859,7.739296 15.56749,8.350982 4.69656,0.587609 7.45933,1.961727 18.07113,8.987968 6.88987,4.561872 16.51499,10.281664 21.38922,12.710655 4.87433,2.428988 9.1118,5.067267 9.41662,5.862838 0.68698,1.792526 -4.44537,11.098755 -15.51977,28.141215 -4.67256,7.1905 -10.61703,17.59912 -13.21007,23.13028 -2.59304,5.53114 -5.421,10.63656 -6.28454,11.34536 -1.30024,1.06735 -3.09843,0.78336 -10.46808,-1.65336 -4.89401,-1.61817 -11.65486,-2.78539 -14.74897,-3.41924 -3.97182,-0.81365 -6.35036,-2.02757 -8.36127,-4.12919 -1.56649,-1.63722 -3.49314,-3.65208 -4.419,-3.65208 -2.3032,0 -10.99742,9.48834 -10.99742,12.00192 0,1.11731 1.16961,5.0965 2.59913,8.84265 2.4753,6.48669 3.54723,12.90247 8.02697,48.0434 0.84613,6.63738 1.26885,13.92874 0.93939,16.203 -0.76365,5.27139 2.83635,40.58295 6.08307,59.6673 1.36973,8.05169 2.94878,17.581 3.50901,21.17625 0.56013,3.59525 1.42769,19.43445 1.92785,35.19823 0.5988,18.86958 1.41333,30.72286 2.38444,34.6954 0.81122,3.31869 1.62374,9.41017 1.80573,13.53661 l 0.33073,7.50261 -3.40717,0.69776 c -1.87392,0.38376 -9.97954,0.0684 -18.01242,-0.70084 -8.03288,-0.76922 -23.67108,-1.66704 -34.75157,-1.99516 -19.70008,-0.58338 -28.32718,-0.13205 -58.31176,3.0506 -7.73353,0.82085 -23.77808,1.94842 -35.65456,2.50566 -26.41019,1.15112 -43.38965,2.68193 -62.21797,2.25101 -15.14323,-0.20174 -26.29905,-0.81803 -38.79869,-2.25283 z"
     style="fill:#feb900"
     sodipodi:nodetypes="cscsssssssssssssssssscssssssssssssssscsscsscsssssscscccssssccc" />
</svg>
