<?xml version="1.0" encoding="UTF-8" standalone="no"?>
<!-- Created with Inkscape (http://www.inkscape.org/) -->

<svg
   xmlns:dc="http://purl.org/dc/elements/1.1/"
   xmlns:cc="http://creativecommons.org/ns#"
   xmlns:rdf="http://www.w3.org/1999/02/22-rdf-syntax-ns#"
   xmlns:svg="http://www.w3.org/2000/svg"
   xmlns="http://www.w3.org/2000/svg"
   xmlns:sodipodi="http://sodipodi.sourceforge.net/DTD/sodipodi-0.dtd"
   xmlns:inkscape="http://www.inkscape.org/namespaces/inkscape"
   id="svg2999"
   version="1.1"
   inkscape:version="0.48.2 r9819"
   width="425"
   height="425"
   sodipodi:docname="han5500.svg">
  <metadata
     id="metadata3005">
    <rdf:RDF>
      <cc:Work
         rdf:about="">
        <dc:format>image/svg+xml</dc:format>
        <dc:type
           rdf:resource="http://purl.org/dc/dcmitype/StillImage" />
        <dc:title></dc:title>
      </cc:Work>
    </rdf:RDF>
  </metadata>
  <defs
     id="defs3003" />
  <sodipodi:namedview
     pagecolor="#ffffff"
     bordercolor="#666666"
     borderopacity="1"
     objecttolerance="10"
     gridtolerance="10"
     guidetolerance="10"
     inkscape:pageopacity="0"
     inkscape:pageshadow="2"
     inkscape:window-width="1920"
     inkscape:window-height="1018"
     id="namedview3001"
     showgrid="false"
     inkscape:zoom="0.5552941"
     inkscape:cx="569.42292"
     inkscape:cy="487.63598"
     inkscape:window-x="-8"
     inkscape:window-y="-8"
     inkscape:window-maximized="1"
     inkscape:current-layer="svg2999" />
  <path
     inkscape:connector-curvature="0"
     id="path3125"
     d="m 134,412.52203 c 1.1,-0.30078 -8.83544,-1.80074 -22.07876,-3.33326 -13.24333,-1.53251 -26.63083,-3.36785 -29.75001,-4.07853 l -5.67124,-1.29216 0,-5.2412 c 0,-2.88267 0.90677,-10.25469 2.01505,-16.38227 1.35863,-7.51181 2.34154,-19.43244 3.01732,-36.59381 0.94224,-23.92772 1.71443,-35.33581 3.96256,-58.5413 0.51537,-5.31962 0.93452,-23.41652 0.93146,-40.21533 -0.003,-16.79881 0.42299,-37.18646 0.94678,-45.30588 1.51276,-23.44996 1.3941,-47.08984 -0.24784,-49.376 -1.31322,-1.82846 -1.61192,-1.7161 -6.25222,2.35176 C 65.46269,168.0234 57.28513,173.58863 53.95144,172.83551 52.22019,172.4444 31.59502,148.15717 22.55981,135.87022 12.30261,121.92148 6.4999895,112.91658 6.4999895,110.94748 c 0,-2.18317 8.2285405,-10.07363 13.0000005,-12.465892 1.925,-0.965138 6.05172,-2.249972 9.17049,-2.855177 4.95804,-0.962134 7.09396,-2.268206 17,-10.395113 6.23123,-5.112092 18.52951,-16.702496 27.32951,-25.756443 8.8,-9.053947 17.43415,-17.456152 19.187,-18.671571 3.65376,-2.533494 22.3435,-9.542945 39.63817,-14.866009 6.50384,-2.001787 12.80384,-4.290202 14,-5.085356 3.70502,-2.46294 20.44818,-8.681777 23.38714,-8.686593 1.53324,-0.002 5.9377,1.59042 9.7877,3.539835 8.46,4.283645 20.92966,7.663942 28.27172,7.663942 5.21642,0 19.81156,-3.228863 23.37723,-5.171711 3.10956,-1.694318 10.74666,-8.8487373 10.12326,-9.4834269 -0.33305,-0.3390814 1.07101,-0.6165061 3.12014,-0.6165061 2.22915,0 3.47743,0.4089543 3.10765,1.0181096 -0.33992,0.5599603 0.28197,1.0181094 1.38197,1.0181094 1.1,0 2.28209,0.464696 2.62686,1.032659 1.3045,2.148954 8.32332,4.926194 17.49117,6.920987 14.80181,3.220667 52.90491,14.951021 58.89495,18.131311 2.96722,1.575372 7.91722,5.557911 11,8.85006 3.08278,3.292159 10.096,9.474182 15.5849,13.737832 8.8006,6.836016 10.6323,7.835076 15.5,8.454331 4.6762,0.594882 7.427,1.986006 17.9928,9.099202 6.86,4.618329 16.4434,10.408909 21.2965,12.867959 4.8532,2.459051 9.0723,5.12998 9.3758,5.935396 0.684,1.814709 -4.4261,11.236105 -15.4525,28.489485 -4.6523,7.27949 -10.571,17.81692 -13.1528,23.41652 -2.5818,5.59961 -5.3975,10.7682 -6.2573,11.48578 -1.2946,1.08057 -3.085,0.79305 -10.4227,-1.67383 -4.8728,-1.63817 -11.3802,-3.50352 -14.4609,-4.14522 -3.9546,-0.82372 -6.4349,-2.05266 -8.4371,-4.18031 -1.5597,-1.65747 -3.59006,-3.01358 -4.5119,-3.01358 -2.29322,0 -10.94975,9.60576 -10.94975,12.15046 0,1.13113 1.16454,5.15956 2.58786,8.95207 2.46457,6.56697 3.53186,13.06214 7.99218,48.63798 0.84246,6.71952 1.26335,14.10111 0.93531,16.40353 -0.76034,5.33661 2.82406,41.08519 6.0567,60.40574 1.3638,8.15133 2.936,17.79857 3.4938,21.43831 0.5577,3.63974 1.4215,19.67497 1.9195,35.63384 0.5962,19.1031 1.4072,31.10307 2.3741,35.12478 0.8077,3.35976 1.6167,9.52662 1.7979,13.70413 l 0.3293,7.59547 -3.3924,0.70639 c -1.8658,0.38851 -9.93628,0.0692 -17.93434,-0.70951 -7.99806,-0.77874 -23.56847,-1.68768 -34.60092,-2.01986 C 286.4443,402.975 277.8546,403.4319 248,406.65395 c -7.7,0.83102 -23.675,1.97252 -35.5,2.53667 -43.65328,2.0826 -48.56552,2.42336 -45.5,3.15629 1.65,0.3945 -5.55,0.71833 -16,0.71962 -10.45,0.001 -18.1,-0.24373 -17,-0.5445 z M 4.5789395,110.50232 c -0.0434,-1.07325 0.19293,-1.67458 0.52522,-1.33627 0.33229,0.33832 0.36782,1.21644 0.0789,1.95138 -0.31923,0.81217 -0.55619,0.57093 -0.60417,-0.61511 z"
     style="fill:#feb900" />
</svg>
