<?xml version="1.0" encoding="UTF-8" standalone="no"?>
<!-- Created with Inkscape (http://www.inkscape.org/) -->

<svg
   xmlns:dc="http://purl.org/dc/elements/1.1/"
   xmlns:cc="http://creativecommons.org/ns#"
   xmlns:rdf="http://www.w3.org/1999/02/22-rdf-syntax-ns#"
   xmlns:svg="http://www.w3.org/2000/svg"
   xmlns="http://www.w3.org/2000/svg"
   xmlns:sodipodi="http://sodipodi.sourceforge.net/DTD/sodipodi-0.dtd"
   xmlns:inkscape="http://www.inkscape.org/namespaces/inkscape"
   id="svg2999"
   version="1.1"
   inkscape:version="0.48.2 r9819"
   width="425"
   height="425"
   sodipodi:docname="han5500.svg">
  <metadata
     id="metadata3005">
    <rdf:RDF>
      <cc:Work
         rdf:about="">
        <dc:format>image/svg+xml</dc:format>
        <dc:type
           rdf:resource="http://purl.org/dc/dcmitype/StillImage" />
        <dc:title></dc:title>
      </cc:Work>
    </rdf:RDF>
  </metadata>
  <defs
     id="defs3003" />
  <sodipodi:namedview
     pagecolor="#ffffff"
     bordercolor="#666666"
     borderopacity="1"
     objecttolerance="10"
     gridtolerance="10"
     guidetolerance="10"
     inkscape:pageopacity="0"
     inkscape:pageshadow="2"
     inkscape:window-width="1920"
     inkscape:window-height="1018"
     id="namedview3001"
     showgrid="false"
     inkscape:zoom="0.5552941"
     inkscape:cx="569.42292"
     inkscape:cy="487.63598"
     inkscape:window-x="-8"
     inkscape:window-y="-8"
     inkscape:window-maximized="1"
     inkscape:current-layer="svg2999" />
  <path
     inkscape:connector-curvature="0"
     id="path3125"
     d="m 132.56347,412.32046 c 1.10479,-0.30212 -8.8739,-1.80875 -22.17488,-3.34808 -13.300992,-1.53933 -26.746778,-3.38283 -29.879538,-4.09668 l -5.695932,-1.2979 0,-5.26451 c 0,-2.89549 0.910718,-10.30029 2.023823,-16.45512 1.364545,-7.54521 2.351735,-19.51885 3.030457,-36.75653 0.946342,-24.03413 1.721894,-35.49295 3.979812,-58.80163 0.517614,-5.34328 0.938589,-23.52065 0.935516,-40.39416 -0.003,-16.87352 0.424831,-37.35182 0.950902,-45.50735 1.519346,-23.55424 1.400169,-47.29925 -0.248919,-49.59557 -1.318938,-1.83659 -1.618938,-1.72373 -6.279441,2.36221 -15.477504,13.56943 -23.690668,19.1594 -27.038872,18.40294 C 50.427611,171.17523 29.712643,146.78 20.638095,134.43841 10.336238,120.42764 4.5083536,111.3827 4.5083536,109.40484 c 0,-2.19287 8.2643664,-10.118425 13.0565994,-12.521325 1.933382,-0.96943 6.078068,-2.259977 9.210417,-2.867874 4.979626,-0.966412 7.124846,-2.278292 17.074015,-10.441339 6.258359,-5.134824 18.610183,-16.776769 27.448497,-25.870978 8.838313,-9.094209 17.510055,-17.533777 19.270536,-18.754601 3.669668,-2.544761 22.440782,-9.585382 39.810742,-14.932117 6.53216,-2.010688 12.85959,-4.30928 14.06096,-5.107969 3.72115,-2.473892 20.53721,-8.720384 23.48896,-8.725221 1.53992,-0.002 5.96355,1.597492 9.83031,3.555576 8.49684,4.302694 21.02079,7.698023 28.39481,7.698023 5.23914,0 19.89782,-3.243222 23.47901,-5.19471 3.1231,-1.701852 10.79345,-8.8880864 10.16734,-9.5255984 -0.3345,-0.3405892 1.07567,-0.6192476 3.13372,-0.6192476 2.23886,0 3.49257,0.4107728 3.12118,1.022637 -0.3414,0.5624504 0.2832,1.0226368 1.38799,1.0226368 1.10479,0 2.29203,0.4667625 2.6383,1.0372511 1.31018,2.1585101 8.35955,4.9481011 17.56732,6.9517631 14.86625,3.23499 53.13525,15.017507 59.15137,18.211939 2.98014,1.582377 7.95169,5.582627 11.04789,8.889416 3.0962,3.306799 10.13995,9.516312 15.65275,13.798922 8.83892,6.866414 10.67859,7.869918 15.56749,8.491927 4.69656,0.597527 7.45933,1.994837 18.07113,9.139665 6.88987,4.638866 16.51499,10.455195 21.38922,12.925181 4.87433,2.469985 9.1118,5.152792 9.41662,5.96179 0.68698,1.822779 -4.44537,11.286073 -15.51977,28.616173 -4.67256,7.31186 -10.61703,17.89615 -13.21007,23.52066 -2.59304,5.6245 -5.421,10.81608 -6.28454,11.53685 -1.30024,1.08537 -3.09843,0.79658 -10.46808,-1.68127 -4.89401,-1.64547 -11.42975,-3.51911 -14.52386,-4.16366 -3.97182,-0.82738 -6.46292,-2.06179 -8.47383,-4.19889 -1.56649,-1.66485 -3.60569,-3.02699 -4.53155,-3.02699 -2.3032,0 -10.99742,9.64848 -10.99742,12.20449 0,1.13616 1.16961,5.18251 2.59913,8.99188 2.4753,6.59617 3.54723,13.12023 8.02697,48.85427 0.84613,6.7494 1.26885,14.16382 0.93939,16.47647 -0.76365,5.36035 2.83635,41.26789 6.08307,60.67435 1.36973,8.18758 2.94878,17.87772 3.50901,21.53365 0.56013,3.65593 1.42769,19.76246 1.92785,35.7923 0.5988,19.18805 1.41333,31.24139 2.38444,35.28098 0.81122,3.3747 1.62374,9.56898 1.80573,13.76507 l 0.33073,7.62924 -3.40717,0.70954 c -1.87392,0.39023 -9.97954,0.0695 -18.01242,-0.71267 -8.03288,-0.7822 -23.67108,-1.69518 -34.75157,-2.02884 -19.70008,-0.59322 -28.32718,-0.13428 -58.31176,3.10209 -7.73353,0.83471 -23.77808,1.9813 -35.65456,2.54795 -43.84334,2.09186 -48.77697,2.43414 -45.6981,3.17033 1.65718,0.39625 -5.57416,0.72152 -16.06966,0.72282 -10.4955,10e-4 -18.17881,-0.24481 -17.07402,-0.54692 z M 2.5789397,108.9577 c -0.043589,-1.07802 0.19377,-1.68202 0.5275067,-1.34221 0.3337367,0.33982 0.3694214,1.22184 0.079244,1.96006 -0.3206198,0.81578 -0.5586115,0.57347 -0.6068004,-0.61785 z"
     style="fill:#feb900" />
</svg>
