<?xml version="1.0" encoding="UTF-8" standalone="no"?>
<!-- Created with Inkscape (http://www.inkscape.org/) -->

<svg
   xmlns:dc="http://purl.org/dc/elements/1.1/"
   xmlns:cc="http://creativecommons.org/ns#"
   xmlns:rdf="http://www.w3.org/1999/02/22-rdf-syntax-ns#"
   xmlns:svg="http://www.w3.org/2000/svg"
   xmlns="http://www.w3.org/2000/svg"
   xmlns:sodipodi="http://sodipodi.sourceforge.net/DTD/sodipodi-0.dtd"
   xmlns:inkscape="http://www.inkscape.org/namespaces/inkscape"
   id="svg2999"
   version="1.1"
   inkscape:version="0.48.2 r9819"
   width="425"
   height="425"
   sodipodi:docname="Han_5500_orange_front.svg">
  <metadata
     id="metadata3005">
    <rdf:RDF>
      <cc:Work
         rdf:about="">
        <dc:format>image/svg+xml</dc:format>
        <dc:type
           rdf:resource="http://purl.org/dc/dcmitype/StillImage" />
        <dc:title />
      </cc:Work>
    </rdf:RDF>
  </metadata>
  <defs
     id="defs3003" />
  <sodipodi:namedview
     pagecolor="#ffffff"
     bordercolor="#666666"
     borderopacity="1"
     objecttolerance="10"
     gridtolerance="10"
     guidetolerance="10"
     inkscape:pageopacity="0"
     inkscape:pageshadow="2"
     inkscape:window-width="1920"
     inkscape:window-height="1018"
     id="namedview3001"
     showgrid="false"
     inkscape:zoom="1.1105882"
     inkscape:cx="258.42083"
     inkscape:cy="170.77342"
     inkscape:window-x="-8"
     inkscape:window-y="-8"
     inkscape:window-maximized="1"
     inkscape:current-layer="svg2999" />
  <path
     style="fill:#ffd42a"
     d="m 180.24557,382.53213 c -27.83887,-1.95364 -45.32021,-4.71601 -58.20787,-9.19789 -6.73929,-2.34369 -15.27489,-7.27364 -16.03843,-9.26338 -0.43421,-1.13154 4.69879,-39.12709 10.91748,-80.81337 2.39093,-16.02734 2.97026,-22.30126 2.45391,-26.57522 -0.44663,-3.69694 -0.2471,-7.4487 0.58822,-11.06006 1.02506,-4.43173 1.05359,-6.98869 0.15086,-13.52073 -0.61229,-4.4305 -1.01685,-11.91367 -0.89902,-16.62929 0.18824,-7.5337 -0.1466,-9.62645 -2.76015,-17.25057 -3.71627,-10.84093 -5.04457,-13.48985 -7.39538,-14.74797 -2.60052,-1.39175 -5.88159,2.26923 -9.933528,11.08374 l -3.16149,6.87743 -5.798097,-0.64017 C 73.602992,198.96634 41.18708,183.6908 40.256078,177.27715 c -0.155164,-1.06892 4.809397,-13.85188 11.032357,-28.40658 19.529624,-45.67726 29.588707,-64.563006 38.409571,-72.113342 2.1159,-1.811134 7.236264,-4.599648 11.378574,-6.196688 4.14231,-1.597049 9.0001,-3.644068 10.79509,-4.548949 1.79499,-0.904873 9.13814,-3.637868 16.31811,-6.073314 16.85861,-5.718436 27.44449,-10.322047 34.861,-15.160424 7.60309,-4.960101 11.82685,-5.627074 19.2219,-3.035328 11.96409,4.193047 32.40591,5.765927 47.72129,3.671865 4.01174,-0.548522 11.0385,-2.243368 15.61503,-3.766324 8.09854,-2.694997 8.42255,-2.728612 12.12203,-1.257781 2.09058,0.83117 6.10891,3.037995 8.92962,4.904041 6.51086,4.307302 17.46162,9.024748 34.03492,14.661808 7.17997,2.442122 14.59122,5.208919 16.46946,6.148451 1.87822,0.939532 6.22795,2.767049 9.66605,4.06115 17.14944,6.455036 23.65832,16.671361 50.45856,79.199725 6.55545,15.29468 11.33499,27.64941 11.0472,28.55616 -0.60757,1.91429 -9.20705,8.05768 -16.24417,11.60468 -12.87843,6.49127 -34.6865,12.90065 -38.68024,11.36811 -0.81206,-0.31161 -2.50065,-2.88241 -3.75242,-5.7129 -2.89158,-6.53836 -6.80928,-11.69764 -8.88262,-11.69764 -2.70566,0 -4.38805,2.83601 -7.95103,13.40309 -3.04521,9.03146 -3.39192,11.01845 -3.17278,18.18304 0.13532,4.42397 -0.28291,11.58983 -0.9294,15.92413 -0.92912,6.22906 -0.9389,9.13422 -0.0467,13.86267 0.64,3.39185 0.8927,8.79771 0.58359,12.48462 -0.29982,3.57638 -0.10278,8.87742 0.43788,11.78008 0.54066,2.90267 3.84082,25.20899 7.3337,49.56961 7.31804,51.03881 7.57394,46.61601 -3.00359,51.91191 -12.39578,6.20625 -31.72722,9.63979 -67.36364,11.96477 -24.94209,1.62726 -42.86076,1.61765 -66.41984,-0.0356 z"
     id="path3035"
     inkscape:connector-curvature="0" />
</svg>
