<?xml version="1.0" encoding="UTF-8" standalone="no"?>
<!-- Created with Inkscape (http://www.inkscape.org/) -->

<svg
   xmlns:dc="http://purl.org/dc/elements/1.1/"
   xmlns:cc="http://creativecommons.org/ns#"
   xmlns:rdf="http://www.w3.org/1999/02/22-rdf-syntax-ns#"
   xmlns:svg="http://www.w3.org/2000/svg"
   xmlns="http://www.w3.org/2000/svg"
   xmlns:sodipodi="http://sodipodi.sourceforge.net/DTD/sodipodi-0.dtd"
   xmlns:inkscape="http://www.inkscape.org/namespaces/inkscape"
   id="svg2999"
   version="1.1"
   inkscape:version="0.48.2 r9819"
   width="450"
   height="450"
   sodipodi:docname="Han_5500_orange_front.png">
  <metadata
     id="metadata3005">
    <rdf:RDF>
      <cc:Work
         rdf:about="">
        <dc:format>image/svg+xml</dc:format>
        <dc:type
           rdf:resource="http://purl.org/dc/dcmitype/StillImage" />
        <dc:title></dc:title>
      </cc:Work>
    </rdf:RDF>
  </metadata>
  <defs
     id="defs3003" />
  <sodipodi:namedview
     pagecolor="#ffffff"
     bordercolor="#666666"
     borderopacity="1"
     objecttolerance="10"
     gridtolerance="10"
     guidetolerance="10"
     inkscape:pageopacity="0"
     inkscape:pageshadow="2"
     inkscape:window-width="1920"
     inkscape:window-height="1018"
     id="namedview3001"
     showgrid="false"
     inkscape:zoom="1.1105882"
     inkscape:cx="258.42083"
     inkscape:cy="170.77342"
     inkscape:window-x="-8"
     inkscape:window-y="-8"
     inkscape:window-maximized="1"
     inkscape:current-layer="svg2999" />
  <path
     style="fill:#ffd42a"
     d="m 184.42988,404.25726 c -29.85517,-2.09514 -48.60264,-5.05758 -62.42373,-9.86408 -7.22741,-2.51344 -16.38123,-7.80045 -17.20007,-9.9343 -0.46566,-1.2135 5.03912,-41.96098 11.70822,-86.66651 2.5641,-17.18816 3.18539,-23.91649 2.63164,-28.5 -0.47898,-3.9647 -0.265,-7.98819 0.63082,-11.86112 1.0993,-4.75271 1.1299,-7.49486 0.16179,-14.5 -0.65664,-4.75139 -1.0905,-12.77655 -0.96414,-17.83371 0.20188,-8.07935 -0.15722,-10.32368 -2.96006,-18.5 -3.98543,-11.62611 -5.40994,-14.46689 -7.93101,-15.81613 -2.78887,-1.49255 -6.30758,2.43359 -10.652995,11.88651 l -3.39047,7.37555 -6.21804,-0.68654 C 70.063415,207.3962 35.29969,191.01429 34.301258,184.13611 c -0.166402,-1.14634 5.157731,-14.85514 11.831406,-30.464 20.944111,-48.98555 31.731751,-69.239157 41.191491,-77.336341 2.26915,-1.942315 7.76037,-4.932794 12.2027,-6.645507 4.442325,-1.712714 9.651955,-3.908001 11.576955,-4.878415 1.925,-0.970415 9.8,-3.90135 17.5,-6.513189 18.07965,-6.132616 29.43224,-11.069654 37.3859,-16.25846 8.15377,-5.319348 12.68344,-6.034628 20.6141,-3.255171 12.83062,4.496742 34.753,6.183536 51.17764,3.937808 4.3023,-0.58825 11.83799,-2.405848 16.74599,-4.039108 8.6851,-2.890189 9.03258,-2.926244 13,-1.348884 2.242,0.891373 6.55137,3.258029 9.57637,5.259235 6.98243,4.619269 18.72633,9.678385 36.5,15.723729 7.7,2.618994 15.64803,5.586192 17.6623,6.593773 2.01426,1.00758 6.67903,2.967459 10.36614,4.355285 18.39154,6.922556 25.37184,17.878834 54.11317,84.935975 7.03024,16.40244 12.15595,29.652 11.84732,30.62442 -0.65158,2.05294 -9.8739,8.64128 -17.4207,12.44518 -13.81119,6.96142 -37.19877,13.83502 -41.48176,12.19148 -0.87088,-0.33418 -2.68177,-3.09118 -4.0242,-6.12667 -3.10101,-7.01192 -7.30246,-12.54488 -9.52597,-12.54488 -2.90163,0 -4.70587,3.04142 -8.52691,14.37385 -3.26577,9.68559 -3.63759,11.81649 -3.40257,19.5 0.14512,4.74438 -0.30341,12.42925 -0.99672,17.07748 -0.99641,6.68021 -1.0069,9.79579 -0.0501,14.86671 0.68635,3.63751 0.95735,9.43491 0.62586,13.38885 -0.32154,3.83541 -0.11023,9.52039 0.46959,12.63329 0.57982,3.1129 4.119,27.03482 7.86486,53.15982 7.84807,54.73544 8.12251,49.99231 -3.22113,55.67178 -13.29358,6.65575 -34.02515,10.33798 -72.24264,12.83135 -26.74859,1.74512 -45.96507,1.73481 -71.23048,-0.0382 z"
     id="path3035"
     inkscape:connector-curvature="0" />
</svg>
