<?xml version="1.0" encoding="UTF-8" standalone="no"?>
<!-- Created with Inkscape (http://www.inkscape.org/) -->

<svg
   xmlns:dc="http://purl.org/dc/elements/1.1/"
   xmlns:cc="http://creativecommons.org/ns#"
   xmlns:rdf="http://www.w3.org/1999/02/22-rdf-syntax-ns#"
   xmlns:svg="http://www.w3.org/2000/svg"
   xmlns="http://www.w3.org/2000/svg"
   xmlns:sodipodi="http://sodipodi.sourceforge.net/DTD/sodipodi-0.dtd"
   xmlns:inkscape="http://www.inkscape.org/namespaces/inkscape"
   id="svg2999"
   version="1.1"
   inkscape:version="0.48.2 r9819"
   width="425"
   height="425"
   sodipodi:docname="Han_5500_orange_front.svg">
  <metadata
     id="metadata3005">
    <rdf:RDF>
      <cc:Work
         rdf:about="">
        <dc:format>image/svg+xml</dc:format>
        <dc:type
           rdf:resource="http://purl.org/dc/dcmitype/StillImage" />
        <dc:title></dc:title>
      </cc:Work>
    </rdf:RDF>
  </metadata>
  <defs
     id="defs3003" />
  <sodipodi:namedview
     pagecolor="#ffffff"
     bordercolor="#666666"
     borderopacity="1"
     objecttolerance="10"
     gridtolerance="10"
     guidetolerance="10"
     inkscape:pageopacity="0"
     inkscape:pageshadow="2"
     inkscape:window-width="1920"
     inkscape:window-height="1018"
     id="namedview3001"
     showgrid="false"
     inkscape:zoom="1.1105882"
     inkscape:cx="258.42083"
     inkscape:cy="170.77342"
     inkscape:window-x="-8"
     inkscape:window-y="-8"
     inkscape:window-maximized="1"
     inkscape:current-layer="svg2999" />
  <path
     style="fill:#ffd42a"
     d="m 177.9552,395.94058 c -29.71116,-2.10689 -48.36819,-5.08594 -62.1226,-9.9194 -7.19253,-2.52753 -16.302195,-7.84421 -17.117085,-9.99003 -0.463416,-1.2203 5.014805,-42.19633 11.651735,-87.1526 2.55172,-17.28457 3.17001,-24.05064 2.61894,-28.65987 -0.47666,-3.98693 -0.26372,-8.03299 0.62778,-11.92763 1.094,-4.77937 1.12445,-7.53691 0.161,-14.58134 -0.65346,-4.77805 -1.08523,-12.84821 -0.95947,-17.93374 0.20089,-8.12466 -0.15647,-10.38158 -2.94579,-18.60375 -3.9662,-11.69133 -5.38384,-14.54804 -7.89275,-15.90485 -2.775421,-1.50092 -6.277153,2.44724 -10.601601,11.95318 l -3.374115,7.41691 -6.188044,-0.69038 C 64.140447,197.97536 29.544423,181.50155 28.550807,174.5848 c -0.1656,-1.15277 5.13285,-14.93847 11.774331,-30.63487 20.843077,-49.260325 31.578677,-69.627524 40.992782,-77.770131 2.258204,-1.953204 7.722935,-4.960458 12.143833,-6.682774 4.420903,-1.722326 9.605397,-3.92992 11.521107,-4.905782 1.91571,-0.975853 9.75272,-3.923232 17.41558,-6.549722 17.99242,-6.167007 29.29024,-11.131739 37.20555,-16.349653 8.11443,-5.349186 12.62226,-6.068478 20.51466,-3.273427 12.76872,4.521961 34.58535,6.218223 50.93075,3.959896 4.28155,-0.59155 11.78088,-2.419344 16.66521,-4.061765 8.6432,-2.9064 8.989,-2.942653 12.93729,-1.356446 2.23118,0.89637 6.51976,3.276305 9.53018,5.288729 6.94874,4.645179 18.63598,9.732675 36.32391,15.811923 7.66285,2.63369 15.57255,5.617522 17.57711,6.630754 2.00453,1.013231 6.6468,2.984105 10.31613,4.379719 18.30282,6.961387 25.24945,17.979111 53.85211,85.412379 6.99634,16.49445 12.09733,29.81831 11.79018,30.79619 -0.64843,2.06445 -9.82627,8.68975 -17.33666,12.51499 -13.74456,7.00046 -37.01932,13.91262 -41.28166,12.25986 -0.86667,-0.33606 -2.66882,-3.10852 -4.00479,-6.16105 -3.08605,-7.05124 -7.26723,-12.61523 -9.48001,-12.61523 -2.88762,0 -4.68317,3.05848 -8.48577,14.45447 -3.25001,9.73991 -3.62004,11.88276 -3.38616,19.60937 0.14442,4.771 -0.30194,12.49897 -0.99191,17.17327 -0.9916,6.71768 -1.00205,9.85073 -0.0499,14.9501 0.68304,3.65791 0.95274,9.48782 0.62284,13.46394 -0.31998,3.85692 -0.10969,9.57379 0.46732,12.70415 0.57703,3.13036 4.09913,27.18645 7.82694,53.45799 7.8102,55.04245 8.08331,50.27271 -3.2056,55.98403 -13.22945,6.6931 -33.86102,10.39597 -71.89414,12.90333 -26.61955,1.7549 -45.74334,1.74454 -70.88687,-0.0383 z"
     id="path3035"
     inkscape:connector-curvature="0" />
</svg>
