<?xml version="1.0" encoding="UTF-8" standalone="no"?>
<!-- Created with Inkscape (http://www.inkscape.org/) -->

<svg
   xmlns:dc="http://purl.org/dc/elements/1.1/"
   xmlns:cc="http://creativecommons.org/ns#"
   xmlns:rdf="http://www.w3.org/1999/02/22-rdf-syntax-ns#"
   xmlns:svg="http://www.w3.org/2000/svg"
   xmlns="http://www.w3.org/2000/svg"
   xmlns:sodipodi="http://sodipodi.sourceforge.net/DTD/sodipodi-0.dtd"
   xmlns:inkscape="http://www.inkscape.org/namespaces/inkscape"
   id="svg3045"
   version="1.1"
   inkscape:version="0.48.2 r9819"
   width="450"
   height="450"
   sodipodi:docname="Han_7110_Red_front.png">
  <metadata
     id="metadata3051">
    <rdf:RDF>
      <cc:Work
         rdf:about="">
        <dc:format>image/svg+xml</dc:format>
        <dc:type
           rdf:resource="http://purl.org/dc/dcmitype/StillImage" />
        <dc:title></dc:title>
      </cc:Work>
    </rdf:RDF>
  </metadata>
  <defs
     id="defs3049" />
  <sodipodi:namedview
     pagecolor="#ffffff"
     bordercolor="#666666"
     borderopacity="1"
     objecttolerance="10"
     gridtolerance="10"
     guidetolerance="10"
     inkscape:pageopacity="0"
     inkscape:pageshadow="2"
     inkscape:window-width="1920"
     inkscape:window-height="1018"
     id="namedview3047"
     showgrid="false"
     inkscape:zoom="0.55529412"
     inkscape:cx="-310.64619"
     inkscape:cy="212.5"
     inkscape:window-x="-8"
     inkscape:window-y="-8"
     inkscape:window-maximized="1"
     inkscape:current-layer="svg3045" />
  <path
     style="fill:#ff8080"
     d="m 194.20763,410.20022 c -34.31564,-2.85904 -47.57606,-4.89046 -62.26608,-9.53879 -10.66395,-3.37437 -20.19433,-8.89816 -23.59702,-13.6768 l -2.17295,-3.05162 2.0746,-9.32032 c 4.2508,-19.0971 6.35893,-25.44097 17.24157,-51.88388 7.4322,-18.05895 12.579,-41.20012 10.4297,-46.89426 -0.77509,-2.05344 -0.78522,-3.88986 -0.035,-6.33444 0.84501,-2.75329 0.73826,-3.96726 -0.53313,-6.06261 -1.27172,-2.09591 -1.36905,-3.20454 -0.4866,-5.54242 0.91258,-2.4177 0.77969,-3.41297 -0.76943,-5.76258 -1.02989,-1.56207 -1.87549,-4.44833 -1.87911,-6.41391 -0.0183,-9.91772 -6.32965,-37.42777 -10.99528,-47.92622 -1.58877,-3.575 -3.17216,-7.51432 -3.51864,-8.75404 -0.96627,-3.45731 -4.96056,-5.08715 -10.10971,-4.12519 -5.74895,1.07403 -9.681551,3.19154 -14.955311,8.05272 -3.84697,3.54601 -4.72011,3.92245 -7.63564,3.29197 -14.28849,-3.08987 -39.05219,-24.2918 -43.7594,-37.46546 -1.18236,-3.30898 -1.05364,-3.79893 2.35841,-8.9772 1.98496,-3.01245 3.60902,-5.83188 3.60902,-6.26538 0,-0.4335 1.56163,-3.14377 3.47029,-6.0228 1.90865,-2.87904 6.64826,-12.43461 10.53245,-21.23461 3.8842,-8.8 8.46333,-19.150002 10.17586,-23.000012 8.61917,-19.37712 17.98119,-32.500221 26.16367,-36.67461 2.21973,-1.132423 8.069821,-2.885419 13.000181,-3.895547 4.93037,-1.010127 9.43529,-2.307575 10.01093,-2.883216 0.57564,-0.575642 2.22061,-1.046622 3.65549,-1.046622 1.43488,0 3.48238,-0.660688 4.55,-1.468197 1.06762,-0.807508 3.12719,-1.482508 4.57682,-1.5 1.44963,-0.01749 3.92463,-0.704031 5.5,-1.525642 1.57537,-0.821612 3.63885,-1.496612 4.58552,-1.5 2.6257,-0.0094 17.46857,-5.634314 22.22844,-8.423785 l 4.22197,-2.474239 7.77071,2.467661 c 24.63546,7.823215 87.41228,6.852641 108.72285,-1.680932 2.25713,-0.90384 3.55853,-0.599005 8.5,1.991008 9.37211,4.912275 17.03596,8.111444 19.52289,8.149561 1.27156,0.01949 3.43693,0.678544 4.81193,1.464565 1.375,0.786021 3.70103,1.445075 5.16896,1.464565 1.46793,0.01949 3.94293,0.660494 5.5,1.424456 4.30765,2.113506 9.12557,3.618948 16.83104,5.259147 8.06988,1.71777 16.94142,5.491344 20.35845,8.659614 6.1558,5.707668 16.05699,24.013393 27.14796,50.192225 5.02779,11.86745 9.97761,21.60602 17.48137,34.39388 3.03171,5.16664 5.51221,10.02648 5.51221,10.79966 0,0.77317 -0.71432,2.78711 -1.58738,4.47542 -7.60972,14.71559 -29.90136,32.76848 -43.64641,35.34707 -2.9123,0.54635 -3.79862,0.26423 -5.37667,-1.71143 -3.5224,-4.40992 -9.41546,-8.07314 -15.16328,-9.42575 -5.16961,-1.21654 -5.95151,-1.17894 -8.04355,0.3868 -5.88006,4.40081 -16.76853,40.4092 -17.61735,58.26093 -0.14453,3.03962 -0.80849,7.18009 -1.47546,9.20103 -0.87206,2.64236 -0.91455,4.23149 -0.15128,5.65767 1.37529,2.56976 1.36181,2.67144 -0.61673,4.64997 -1.42206,1.42206 -1.51071,2.30529 -0.58099,5.7885 0.77358,2.89822 0.78605,4.69164 0.0423,6.08138 -1.47168,2.74987 -0.37904,17.05841 2.1724,28.44836 2.08462,9.30601 4.75302,16.72796 13.50936,37.5752 5.05566,12.03658 8.5,23.14213 11.04041,35.5975 l 1.66505,8.16353 -2.3352,2.54747 c -9.79244,10.68261 -30.83719,17.24612 -68.33519,21.31262 -9.69573,1.05146 -77.41822,2.11469 -86.5,1.35803 z"
     id="path3063"
     inkscape:connector-curvature="0" />
</svg>
