<?xml version="1.0" encoding="UTF-8" standalone="no"?>
<!-- Created with Inkscape (http://www.inkscape.org/) -->

<svg
   xmlns:dc="http://purl.org/dc/elements/1.1/"
   xmlns:cc="http://creativecommons.org/ns#"
   xmlns:rdf="http://www.w3.org/1999/02/22-rdf-syntax-ns#"
   xmlns:svg="http://www.w3.org/2000/svg"
   xmlns="http://www.w3.org/2000/svg"
   xmlns:sodipodi="http://sodipodi.sourceforge.net/DTD/sodipodi-0.dtd"
   xmlns:inkscape="http://www.inkscape.org/namespaces/inkscape"
   width="450"
   height="450"
   id="svg3092"
   version="1.1"
   inkscape:version="0.48.0 r9654"
   sodipodi:docname="han_5500.svg">
  <defs
     id="defs3094" />
  <sodipodi:namedview
     id="base"
     pagecolor="#ffffff"
     bordercolor="#666666"
     borderopacity="1.0"
     inkscape:pageopacity="0.0"
     inkscape:pageshadow="2"
     inkscape:zoom="0.7"
     inkscape:cx="290.46166"
     inkscape:cy="103.7012"
     inkscape:document-units="px"
     inkscape:current-layer="layer1"
     showgrid="false"
     inkscape:window-width="1600"
     inkscape:window-height="850"
     inkscape:window-x="-8"
     inkscape:window-y="-8"
     inkscape:window-maximized="1" />
  <metadata
     id="metadata3097">
    <rdf:RDF>
      <cc:Work
         rdf:about="">
        <dc:format>image/svg+xml</dc:format>
        <dc:type
           rdf:resource="http://purl.org/dc/dcmitype/StillImage" />
        <dc:title />
      </cc:Work>
    </rdf:RDF>
  </metadata>
  <g
     inkscape:label="Laag 1"
     inkscape:groupmode="layer"
     id="layer1"
     transform="translate(0,-602.36218)">
    <path
       style="fill:#ffff00"
       d="m 187.10079,1030.5377 c -41.28511,-3.5282 -50.48668,-4.7641 -67.07,-9.008 -10.0994,-2.5847 -21.322581,-7.5261 -25.931952,-11.4176 l -3.140684,-2.6515 7.905085,-55.38617 c 4.347781,-30.4624 8.375661,-57.8549 8.950821,-60.87221 0.59642,-3.12882 0.64652,-8.70529 0.11658,-12.97838 -0.66711,-5.37919 -0.4753,-9.44941 0.68003,-14.43117 1.29355,-5.5777 1.36272,-8.68584 0.35256,-15.84505 -0.69117,-4.89844 -1.36774,-14.7557 -1.5035,-21.90504 -0.22628,-11.91703 -0.58817,-13.8867 -4.34846,-23.66823 -4.815472,-12.52628 -7.25398,-15.61513 -10.820533,-13.70636 -1.319096,0.70595 -2.398369,1.97422 -2.398369,2.81835 0,0.84414 -0.70771,1.80637 -1.572699,2.1383 -0.864978,0.33193 -3.026736,4.24484 -4.803897,8.69536 l -3.231209,8.09187 -7.347155,-0.71658 C 63.637211,808.78822 44.872381,802.59362 31.61261,796.05326 20.870006,790.75447 9.1510223,781.8243 10.71436,780.12823 c 0.504105,-0.54689 6.636667,-14.47355 13.627931,-30.94811 27.096111,-63.85072 40.306204,-87.1766 53.116447,-93.79104 2.175877,-1.1235 8.143085,-3.657 13.260453,-5.62998 5.117378,-1.97298 9.598069,-4.06254 9.957109,-4.64347 0.35904,-0.58094 1.43604,-1.05624 2.39334,-1.05624 0.95729,0 3.34336,-0.71763 5.30235,-1.59471 1.95901,-0.87711 8.64831,-3.24187 14.86513,-5.25503 14.99536,-4.85588 27.75438,-10.49155 36.73574,-16.2262 11.2768,-7.20032 14.19439,-7.75416 23.34718,-4.43186 23.03351,8.36071 64.35511,7.54311 82.94002,-1.64107 3.64943,-1.80347 4.38262,-1.82567 8.53748,-0.25856 2.49986,0.94288 7.49337,3.68244 11.09668,6.0879 8.10304,5.40933 19.15996,10.24226 41.56601,18.16833 22.68095,8.02331 38.04328,14.41868 43.82339,18.24378 11.17867,7.3977 24.36913,31.36512 49.71454,90.33265 l 14.57515,33.90992 -4.13865,3.77577 c -9.18394,8.3787 -34.78176,19.91479 -51.82392,23.35531 -12.95617,2.61564 -13.62607,2.3934 -16.86731,-5.59549 -1.50014,-3.69746 -3.7391,-7.79943 -4.97546,-9.11549 -1.23637,-1.31605 -2.24795,-2.94144 -2.24795,-3.61196 0,-1.92173 -3.51043,-2.769 -5.30428,-1.28025 -2.44979,2.03316 -4.67934,6.85894 -8.45262,18.29535 -2.87066,8.70074 -3.33152,11.60644 -2.89599,18.25964 0.28489,4.35177 -0.22419,13.17711 -1.13125,19.61186 -1.47026,10.43005 -1.45884,12.45741 0.10523,18.68386 1.3669,5.44165 1.51863,8.64917 0.68695,14.52186 -0.58709,4.14565 -0.82237,8.19981 -0.5228,9.00924 0.29955,0.80942 4.36038,28.14567 9.02408,60.74719 l 8.47943,59.27547 -2.51386,2.6759 c -3.51796,3.7447 -14.48889,8.7493 -25.16795,11.4808 -17.48253,4.4718 -25.61765,5.5185 -70.94959,9.1294 -16.53797,1.3172 -53.95309,1.2769 -69.77654,-0.076 z"
       id="path3065"
       inkscape:connector-curvature="0" />
  </g>
</svg>
