<?xml version="1.0" encoding="UTF-8" standalone="no"?>
<!-- Created with Inkscape (http://www.inkscape.org/) -->

<svg
   xmlns:dc="http://purl.org/dc/elements/1.1/"
   xmlns:cc="http://creativecommons.org/ns#"
   xmlns:rdf="http://www.w3.org/1999/02/22-rdf-syntax-ns#"
   xmlns:svg="http://www.w3.org/2000/svg"
   xmlns="http://www.w3.org/2000/svg"
   xmlns:sodipodi="http://sodipodi.sourceforge.net/DTD/sodipodi-0.dtd"
   xmlns:inkscape="http://www.inkscape.org/namespaces/inkscape"
   id="svg2999"
   version="1.1"
   inkscape:version="0.48.2 r9819"
   width="425"
   height="425"
   sodipodi:docname="Han_5500_orange_front.svg">
  <metadata
     id="metadata3005">
    <rdf:RDF>
      <cc:Work
         rdf:about="">
        <dc:format>image/svg+xml</dc:format>
        <dc:type
           rdf:resource="http://purl.org/dc/dcmitype/StillImage" />
        <dc:title></dc:title>
      </cc:Work>
    </rdf:RDF>
  </metadata>
  <defs
     id="defs3003" />
  <sodipodi:namedview
     pagecolor="#ffffff"
     bordercolor="#666666"
     borderopacity="1"
     objecttolerance="10"
     gridtolerance="10"
     guidetolerance="10"
     inkscape:pageopacity="0"
     inkscape:pageshadow="2"
     inkscape:window-width="1920"
     inkscape:window-height="1018"
     id="namedview3001"
     showgrid="false"
     inkscape:zoom="1.1105882"
     inkscape:cx="258.42083"
     inkscape:cy="170.77342"
     inkscape:window-x="-8"
     inkscape:window-y="-8"
     inkscape:window-maximized="1"
     inkscape:current-layer="svg2999" />
  <path
     style="fill:#ffd42a"
     d="m 178.65993,392.36499 c -29.13507,-2.06602 -47.43035,-4.98729 -60.91807,-9.72699 -7.05307,-2.47851 -15.9861,-7.69206 -16.78519,-9.79626 -0.45443,-1.19663 4.91757,-41.37787 11.42581,-85.46214 2.50225,-16.94931 3.10855,-23.58414 2.56816,-28.10396 -0.46742,-3.9096 -0.2586,-7.87718 0.61561,-11.69628 1.07279,-4.68667 1.10265,-7.39072 0.15788,-14.29851 -0.64079,-4.68537 -1.06419,-12.599 -0.94087,-17.58589 0.197,-7.96707 -0.15343,-10.18021 -2.88867,-18.2429 -3.8893,-11.46456 -5.27945,-14.26586 -7.73971,-15.59635 -2.72161,-1.47181 -6.155444,2.39977 -10.396043,11.72133 l -3.308692,7.27305 -6.06806,-0.67699 C 67.051999,198.23962 33.126779,182.08535 32.152429,175.30276 31.99004,174.17235 37.185755,160.65405 43.69846,145.2621 64.137398,96.95726 74.664839,76.985115 83.896408,69.000447 c 2.214418,-1.915319 7.57319,-4.864242 11.908369,-6.553151 4.335183,-1.688919 9.419153,-3.853693 11.297713,-4.810627 1.87857,-0.956925 9.56362,-3.847135 17.0779,-6.42268 17.64356,-6.047388 28.72232,-10.915821 36.48415,-16.032525 7.9571,-5.24543 12.37752,-5.95077 20.11689,-3.209934 12.52114,4.434251 33.91475,6.097611 49.94322,3.883088 4.19853,-0.580076 11.55246,-2.372417 16.34208,-3.982981 8.47561,-2.850026 8.81471,-2.885575 12.68644,-1.330135 2.18792,0.878983 6.39335,3.212755 9.34539,5.186145 6.81401,4.555079 18.27464,9.543895 35.61961,15.505226 7.51427,2.582605 15.2706,5.508561 17.23629,6.50214 1.96567,0.993578 6.51793,2.926223 10.11611,4.294767 17.94793,6.82636 24.75987,17.630378 52.80794,83.75567 6.86068,16.17451 11.86276,29.23994 11.56157,30.19885 -0.63586,2.02441 -9.63574,8.5212 -17.00051,12.27224 -13.47806,6.86468 -36.30153,13.64276 -40.48122,12.02206 -0.84987,-0.32954 -2.61708,-3.04822 -3.92714,-6.04154 -3.02621,-6.91447 -7.12632,-12.37054 -9.2962,-12.37054 -2.83163,0 -4.59236,2.99915 -8.32123,14.1741 -3.187,9.55099 -3.54985,11.65228 -3.32051,19.22902 0.14162,4.67845 -0.29608,12.25653 -0.97267,16.84016 -0.97238,6.58738 -0.98262,9.65966 -0.0489,14.66012 0.6698,3.58696 0.93427,9.30379 0.61077,13.20279 -0.31378,3.78211 -0.10757,9.38809 0.45826,12.45773 0.56584,3.06964 4.01965,26.65913 7.67517,52.42109 7.65877,53.97481 7.92658,49.29759 -3.14344,54.89813 -12.97294,6.56327 -33.20447,10.19432 -70.50014,12.65305 -26.10341,1.72086 -44.85639,1.7107 -69.5124,-0.0376 z"
     id="path3035"
     inkscape:connector-curvature="0" />
</svg>
